<?xml version="1.0" standalone="no"?>
<!DOCTYPE svg PUBLIC "-//W3C//DTD SVG 20010904//EN"
 "http://www.w3.org/TR/2001/REC-SVG-20010904/DTD/svg10.dtd">
<svg version="1.0" xmlns="http://www.w3.org/2000/svg"
 width="2048.000000pt" height="2048.000000pt" viewBox="0 0 2048.000000 2048.000000"
 preserveAspectRatio="xMidYMid meet">
<metadata>
Created by potrace 1.16, written by Peter Selinger 2001-2019
</metadata>
<g transform="translate(0.000000,2048.000000) scale(0.100000,-0.100000)"
fill="#000000" stroke="none">
<path d="M5495 17023 c-270 -32 -487 -94 -696 -199 -169 -84 -386 -247 -520
-390 -123 -131 -264 -343 -333 -501 -48 -109 -111 -299 -130 -394 -9 -42 -21
-131 -27 -197 -8 -87 -9 -1494 -6 -4999 l5 -4878 21 -138 c50 -322 163 -590
354 -841 265 -349 655 -594 1101 -693 l121 -27 2174 -3 2174 -3 -6 1147 c-4
632 -7 1842 -7 2690 l0 1543 -762 2 -763 3 -3 948 -2 947 765 0 765 0 0 803
c0 689 8 1049 24 1197 3 19 7 64 11 100 4 36 20 130 37 210 79 387 228 683
471 937 360 374 852 553 1662 602 182 12 1054 6 1290 -8 240 -14 368 -23 385
-27 8 -1 27 -3 43 -3 l27 -1 0 -832 0 -833 -572 3 c-352 2 -619 -1 -692 -8
-228 -20 -358 -69 -461 -174 -106 -107 -154 -232 -174 -456 -7 -68 -11 -401
-11 -812 l0 -698 946 0 947 0 -7 -82 c-16 -191 -54 -424 -186 -1128 -22 -118
-56 -309 -75 -425 -20 -115 -38 -222 -41 -237 l-6 -28 -793 0 -793 0 2 -2690
1 -2690 1513 0 c1001 0 1546 4 1610 11 499 54 962 316 1258 710 210 280 334
614 364 977 7 82 10 1782 10 4996 0 5239 2 4961 -50 5166 -48 188 -149 411
-268 590 -304 457 -803 752 -1371 810 -70 7 -1558 10 -4700 9 -2528 -1 -4609
-4 -4626 -6z m5591 -312 c-17 -6 -17 -8 -3 -14 8 -3 21 1 27 9 11 12 245 14
1714 14 1041 0 1755 -4 1841 -10 142 -11 350 -51 369 -71 8 -9 6 -10 -8 -5
-10 3 -25 1 -32 -5 -11 -9 -14 -8 -14 1 0 7 -7 10 -15 6 -8 -3 -14 -2 -12 2 3
9 -14 11 -31 4 -7 -2 -19 1 -25 7 -9 9 -7 11 8 6 18 -6 18 -5 3 5 -13 8 -23 8
-37 0 -26 -13 -34 -13 -25 3 4 6 4 9 -1 5 -4 -4 -14 -3 -22 3 -10 9 -13 8 -13
-5 0 -10 4 -15 9 -11 5 3 13 0 16 -6 4 -5 13 -8 21 -5 19 7 26 -9 10 -23 -11
-9 -18 -8 -30 4 -15 16 -21 9 -17 -17 2 -16 -19 -58 -29 -58 -6 0 -16 11 -22
25 -6 14 -17 25 -24 25 -7 0 -10 9 -7 23 4 19 2 18 -12 -5 -8 -16 -20 -28 -26
-28 -6 0 -8 -4 -5 -9 4 -5 0 -12 -6 -14 -10 -4 -9 -8 2 -17 12 -10 12 -11 -5
-5 -27 10 -121 19 -114 11 3 -3 17 -7 32 -8 21 -2 24 -5 14 -16 -7 -10 -13
-10 -15 -3 -2 6 -8 9 -13 6 -5 -4 -3 -12 4 -20 8 -9 16 -10 25 -3 7 6 12 7 12
1 0 -11 36 -11 46 0 10 9 26 9 21 0 -3 -5 12 -8 33 -7 22 0 37 -3 34 -8 -3 -4
2 -8 11 -8 9 0 13 5 10 10 -9 15 1 12 35 -8 16 -10 27 -22 24 -25 -4 -4 3 -5
15 -2 11 2 21 0 21 -4 0 -5 -13 -8 -30 -7 -16 0 -30 4 -30 7 0 4 -7 9 -14 12
-10 4 -13 1 -9 -9 3 -7 0 -14 -6 -14 -6 0 -11 5 -11 10 0 13 -47 5 -65 -10 -7
-6 -26 -8 -42 -5 -25 5 -26 4 -5 -4 23 -11 30 -31 11 -31 -5 0 -7 5 -3 11 4 8
0 9 -15 4 -13 -4 -21 -2 -21 5 0 6 -5 8 -10 5 -5 -3 -10 1 -10 9 0 8 7 19 16
24 15 8 15 10 0 15 -10 4 -15 3 -11 -3 4 -6 -6 -10 -22 -10 -22 0 -25 -2 -13
-10 13 -9 13 -11 1 -19 -16 -10 -30 -7 -78 17 -17 9 -30 19 -27 23 2 4 -7 2
-21 -4 -30 -14 -33 -32 -5 -24 35 9 22 -8 -15 -19 -20 -6 -38 -7 -41 -3 -3 5
2 9 10 9 9 0 16 4 16 9 0 5 -12 7 -27 3 -16 -4 -97 -7 -181 -7 l-154 1 5 -24
c3 -17 0 -22 -12 -20 -9 2 -15 11 -13 21 3 15 0 15 -22 -4 -14 -12 -23 -27
-19 -32 4 -6 1 -7 -6 -3 -7 5 -10 15 -7 23 5 11 1 14 -11 11 -13 -4 -18 1 -19
19 -2 22 -1 23 11 6 13 -17 14 -17 12 3 -1 14 -7 21 -17 19 -8 -2 -19 -4 -24
-4 -4 -1 -5 -12 -2 -25 6 -25 -8 -44 -19 -26 -11 18 -25 11 -26 -12 -1 -17 -2
-19 -6 -5 -2 9 -9 17 -14 17 -5 0 -9 5 -9 11 0 5 3 8 8 5 4 -2 16 2 27 10 18
14 18 14 -10 10 -17 -2 -24 -1 -17 1 15 5 15 13 1 33 -9 13 -10 13 -6 -2 3 -9
1 -18 -6 -21 -7 -2 -10 -22 -8 -52 2 -40 0 -47 -13 -42 -8 3 -18 2 -21 -3 -3
-5 -12 -7 -20 -4 -16 7 -13 67 4 88 9 10 9 16 1 21 -6 4 -9 1 -8 -7 2 -7 -3
-12 -10 -10 -7 1 -15 -5 -18 -13 -4 -8 -15 -15 -25 -15 -10 0 -19 -5 -19 -10
0 -6 -6 -10 -12 -9 -24 3 -35 -1 -35 -13 0 -8 16 -13 44 -14 28 -1 43 3 43 12
0 7 -5 15 -10 17 -6 3 -5 4 2 3 8 -2 13 -18 13 -39 0 -19 4 -39 9 -44 5 -4 6
3 2 17 l-7 25 19 -22 c11 -12 22 -20 24 -18 3 3 5 -2 5 -10 0 -9 -10 -15 -23
-15 -13 0 -28 -8 -33 -17 -9 -16 -10 -15 -11 5 0 13 -4 21 -10 17 -5 -3 -18 3
-30 15 -11 11 -25 20 -31 20 -5 0 -7 5 -4 10 3 6 1 10 -4 10 -6 0 -9 10 -7 23
3 12 5 25 5 28 1 7 35 19 64 23 10 2 26 11 35 21 9 10 12 15 5 11 -6 -3 -14
-2 -18 4 -4 6 -11 8 -16 4 -5 -3 -7 -9 -4 -14 3 -5 1 -11 -5 -15 -5 -3 -10 -1
-10 4 0 6 -5 11 -11 11 -5 0 -8 -4 -4 -9 3 -5 1 -12 -5 -16 -5 -3 -10 -1 -10
5 0 8 -9 10 -27 5 -22 -5 -25 -4 -14 8 10 12 8 15 -13 13 -13 0 -22 -3 -20 -5
2 -2 -1 -10 -6 -17 -8 -8 -7 -12 2 -11 38 1 47 -4 43 -24 -6 -33 -13 -34 -21
-5 -6 26 -30 32 -28 8 1 -7 2 -20 3 -29 1 -10 16 -28 34 -40 22 -16 26 -23 14
-23 -9 0 -17 4 -17 8 0 4 -11 9 -26 10 -14 1 -23 -2 -20 -7 8 -12 -21 -34 -45
-36 -11 -1 -22 2 -25 7 -10 16 4 20 28 8 23 -11 23 -11 3 7 -11 10 -19 17 -17
16 10 -5 39 32 35 44 -4 11 -8 11 -20 1 -22 -18 -55 24 -47 58 5 19 3 23 -10
18 -9 -3 -16 -1 -16 4 0 7 -11 8 -31 2 -18 -6 -39 -6 -48 -1 -10 6 -23 4 -35
-5 -20 -14 -41 -10 -31 7 8 12 -6 11 -24 0 -9 -6 -22 -6 -32 0 -12 6 -22 4
-33 -6 -17 -18 -30 -20 -20 -3 5 8 2 9 -9 5 -10 -3 -17 -2 -17 3 0 11 -72 7
-104 -6 -14 -5 -17 -4 -12 4 8 13 -6 16 -18 5 -4 -5 -12 -9 -17 -9 -22 -3 -23
-5 -9 -14 11 -7 5 -9 -20 -5 -19 3 -29 3 -22 -1 6 -3 9 -11 5 -17 -4 -6 0 -8
9 -4 9 3 20 1 25 -4 5 -5 20 -11 34 -14 22 -4 23 -3 6 9 -16 12 -16 14 -2 20
9 3 13 2 10 -4 -3 -6 1 -13 9 -16 9 -3 13 -11 10 -16 -4 -6 2 -7 16 -3 19 6
22 4 17 -9 -4 -9 -2 -16 3 -16 6 0 10 9 10 20 0 11 4 20 10 20 5 0 8 -15 5
-35 -2 -19 1 -37 7 -41 7 -4 8 -3 4 4 -5 8 -2 10 8 6 9 -3 16 -14 15 -23 0 -9
-3 -11 -5 -4 -4 8 -15 9 -37 2 -20 -5 -35 -5 -41 1 -6 6 -20 10 -33 10 -18 0
-22 5 -20 23 1 12 7 26 12 30 6 5 -3 6 -19 2 -23 -5 -27 -3 -23 9 4 9 2 18 -3
21 -6 4 -10 2 -10 -4 0 -5 -11 -8 -25 -5 -21 4 -25 1 -25 -20 0 -18 4 -24 15
-20 9 4 15 0 15 -10 0 -9 -4 -16 -9 -16 -5 0 -17 -3 -25 -6 -13 -5 -15 -2 -9
12 6 16 5 17 -9 4 -23 -22 -13 -30 40 -30 37 -1 43 -3 29 -11 -28 -17 -116 9
-103 30 3 4 -7 7 -22 6 -19 0 -26 -5 -24 -17 4 -25 -30 -27 -58 -4 -14 11 -19
14 -12 6 6 -8 12 -16 12 -20 0 -7 -260 -3 -267 4 -7 6 7 9 47 8 20 -1 21 0 5
5 -11 3 -26 10 -34 17 -8 6 -12 7 -10 1 3 -5 -2 -18 -13 -27 -12 -12 -18 -14
-18 -5 0 8 -4 7 -10 -3 -5 -8 -10 -10 -10 -5 0 12 -75 14 -86 3 -10 -11 -24
-10 -24 1 0 5 10 11 22 14 12 4 19 9 15 13 -4 4 1 12 9 19 14 9 14 16 5 33 -6
12 -16 22 -21 22 -15 0 -12 -37 3 -43 7 -3 4 -6 -6 -6 -10 -1 -16 -5 -13 -10
7 -11 -41 -24 -56 -15 -7 5 -8 2 -2 -7 14 -23 13 -38 -2 -32 -8 3 -12 9 -9 14
3 4 -7 2 -22 -6 -17 -9 -29 -11 -31 -5 -2 6 -8 8 -13 4 -5 -3 -9 0 -9 6 0 7
-6 8 -19 1 -10 -6 -21 -7 -25 -3 -4 3 -59 5 -122 4 -95 -2 -119 1 -141 15 -15
10 -24 13 -20 6 10 -17 -69 -29 -88 -13 -11 9 -15 9 -15 1 0 -6 -13 -11 -29
-11 -16 0 -31 -5 -33 -11 -2 -5 -11 -7 -21 -4 -9 4 -14 11 -11 16 6 10 -39 12
-49 2 -12 -11 -79 -15 -72 -3 6 9 -3 8 -42 -7 -32 -11 -43 -11 -43 0 0 8 -23
11 -73 10 -39 -1 -76 -2 -82 -3 -20 -4 -141 0 -163 4 -17 4 -31 -2 -47 -19
-28 -31 -38 -32 -30 -2 4 15 3 18 -3 8 -8 -11 -14 -9 -31 8 -25 25 -34 26 -51
6 -13 -15 -35 -11 -25 6 10 15 -19 10 -45 -8 -14 -10 -27 -16 -30 -15 -3 2 -8
-7 -12 -20 -3 -13 -6 -18 -7 -11 -1 7 -8 10 -17 6 -10 -4 -17 2 -21 17 -4 16
-8 18 -14 8 -7 -10 -9 -10 -9 0 0 20 -60 15 -61 -5 -1 -17 -2 -17 -6 0 -2 9
-9 17 -14 17 -6 0 -7 5 -4 11 4 6 -2 5 -14 -3 -15 -9 -26 -10 -38 -2 -10 5
-31 7 -48 4 -22 -4 -35 -1 -47 14 -10 10 -18 14 -18 8 0 -7 -3 -11 -7 -11 -20
3 -26 -2 -13 -12 11 -7 -3 -9 -50 -8 -130 4 -140 2 -140 -27 0 -14 -7 -33 -16
-42 -15 -15 -16 -14 -10 6 5 14 3 22 -4 22 -6 0 -8 5 -5 10 3 6 0 10 -9 10 -8
0 -16 4 -18 9 -3 9 -61 16 -103 12 -16 -1 -17 -3 -6 -10 10 -7 7 -9 -12 -8
-14 1 -23 5 -21 9 9 14 -22 14 -34 -1 -10 -12 -15 -13 -18 -3 -9 19 -24 14
-24 -8 0 -11 -4 -20 -10 -20 -14 0 -13 -27 2 -36 6 -4 8 -3 5 2 -3 6 -2 16 3
24 7 12 12 12 22 2 9 -9 8 -12 -6 -12 -9 0 -15 -4 -11 -9 3 -5 1 -12 -5 -16
-5 -3 -10 -11 -10 -16 0 -6 4 -8 9 -5 5 4 7 -3 4 -14 -8 -31 -33 -25 -27 6 3
19 1 24 -8 18 -10 -6 -11 -5 -1 8 15 17 8 28 -18 28 -13 0 -16 5 -12 16 3 9 0
20 -8 26 -10 6 -7 7 10 3 16 -5 21 -4 17 4 -9 14 -76 15 -76 1 0 -5 7 -7 16
-3 14 5 14 3 3 -15 -7 -11 -17 -18 -21 -16 -4 3 -8 2 -8 -3 0 -4 -14 -8 -30
-8 -25 0 -28 2 -15 11 22 16 19 20 -16 18 -22 -2 -29 2 -25 12 4 9 -2 14 -17
14 -13 0 -29 6 -36 13 -10 8 -12 8 -7 0 4 -8 -6 -12 -34 -11 -22 0 -38 4 -35
8 3 4 -14 1 -36 -6 -36 -13 -45 -13 -71 1 -35 17 -93 21 -83 5 3 -5 -3 -10
-15 -10 -17 0 -19 -4 -14 -24 3 -13 1 -27 -5 -30 -7 -4 -11 1 -11 13 0 46 -9
52 -50 31 -36 -19 -70 -18 -70 0 0 5 -27 7 -60 5 -46 -2 -60 0 -60 11 0 8 -8
14 -17 14 -14 0 -15 -2 -4 -9 11 -7 9 -10 -8 -16 -11 -3 -25 -3 -31 0 -14 9
-160 12 -160 3 0 -4 -9 -5 -20 -3 -23 4 -27 -13 -5 -21 25 -10 17 -23 -10 -18
-20 3 -25 0 -25 -15 0 -10 8 -22 17 -25 12 -5 14 -9 5 -18 -7 -7 -12 -17 -12
-22 1 -6 16 7 34 28 34 39 58 42 51 6 -2 -10 2 -24 10 -30 10 -8 13 -8 11 2
-1 7 -5 18 -9 25 -4 6 -3 14 2 17 10 7 24 -10 27 -31 3 -19 -17 -30 -68 -36
-47 -6 -78 9 -63 33 4 6 -4 10 -19 10 -14 0 -26 5 -26 10 0 6 4 10 9 10 7 0
14 13 25 50 1 3 4 10 8 16 5 7 -5 11 -27 12 -19 1 -35 -3 -35 -8 0 -6 5 -10
10 -10 6 0 10 -5 10 -11 0 -5 -6 -7 -12 -3 -10 6 -10 5 -1 -7 10 -12 8 -15 -8
-16 -16 -2 -18 3 -14 28 5 28 4 29 -35 29 -25 0 -39 4 -35 10 3 6 -1 10 -10
10 -9 0 -14 -4 -11 -8 8 -13 -27 -11 -43 2 -11 8 -13 8 -7 -1 5 -10 -6 -13
-43 -13 -31 0 -51 4 -51 11 0 8 -4 8 -12 2 -7 -5 -39 -10 -70 -11 -49 -2 -58
0 -59 15 0 16 -2 15 -9 -2 -6 -13 -9 -15 -9 -5 -1 12 -3 12 -10 2 -4 -7 -12
-12 -17 -11 -23 4 -33 -2 -28 -18 5 -14 4 -15 -4 -4 -6 8 -20 12 -36 9 -17 -4
-29 0 -35 9 -7 13 -9 13 -14 -1 -4 -9 -2 -16 3 -16 5 0 15 -10 21 -22 11 -20
11 -22 -3 -10 -11 9 -18 10 -23 2 -3 -5 -11 -10 -17 -10 -7 0 -7 4 0 13 12 14
-3 40 -31 50 -10 4 -16 12 -12 19 4 7 0 5 -8 -4 -8 -10 -21 -18 -30 -18 -9 0
-19 -4 -22 -10 -4 -6 1 -7 12 -4 15 6 15 4 -2 -9 -20 -16 -40 -13 -30 4 4 5 1
9 -5 9 -7 0 -9 7 -6 17 4 10 4 14 0 10 -4 -4 -14 -1 -23 6 -14 11 -14 10 -2
-5 12 -17 9 -18 -40 -19 -30 -1 -59 -1 -66 0 -7 1 -15 -14 -19 -34 -5 -29 -2
-39 15 -54 31 -27 27 -51 -9 -51 -27 0 -30 3 -30 34 0 19 -3 41 -6 50 -9 23
-27 20 -19 -3 5 -16 2 -18 -14 -14 -21 5 -21 5 -1 30 30 39 25 46 -29 41 -28
-3 -55 -2 -62 3 -7 4 -22 3 -35 -1 -12 -5 -25 -6 -28 -3 -8 9 15 34 25 27 5
-3 9 2 9 10 0 9 -8 16 -19 16 -12 0 -18 -7 -17 -17 0 -10 -6 -18 -14 -18 -8 0
-21 -5 -28 -12 -7 -7 -20 -9 -29 -6 -12 5 -15 2 -10 -10 7 -18 -26 -43 -43
-32 -5 3 -11 1 -14 -4 -3 -5 8 -11 25 -13 16 -3 32 -1 35 4 3 4 17 5 31 2 18
-5 24 -3 19 5 -4 6 -2 11 5 11 8 0 7 5 -2 18 -13 15 -12 16 4 3 10 -8 16 -20
13 -28 -4 -9 4 -13 29 -13 28 0 35 4 35 20 0 11 5 20 10 20 6 0 10 -5 10 -11
0 -5 5 -7 10 -4 6 3 10 -3 10 -15 0 -12 5 -18 10 -15 9 5 11 1 10 -20 -1 -11
25 -33 33 -28 4 2 7 0 7 -6 0 -5 -8 -12 -18 -15 -25 -8 -122 -3 -122 6 0 4 8
7 18 6 32 -2 53 2 48 11 -6 10 -52 4 -83 -11 -11 -6 -27 -8 -35 -5 -7 3 -3 6
10 6 12 1 22 6 22 12 0 6 -9 8 -21 4 -12 -4 -28 -8 -35 -9 -7 -1 -17 -5 -20
-9 -15 -15 -26 -6 -22 18 6 29 -8 43 -25 26 -8 -8 -7 -11 3 -11 10 0 9 -4 -3
-18 -20 -21 -22 -32 -6 -32 5 0 8 4 5 9 -4 5 5 4 18 -2 l23 -11 -24 -13 c-30
-16 -47 -17 -38 -3 4 7 -7 9 -32 5 -45 -7 -75 7 -55 27 15 15 16 28 0 28 -6 0
-8 -3 -5 -7 10 -9 -12 -33 -26 -28 -35 13 -83 17 -184 19 -62 0 -113 4 -113 9
0 4 -6 7 -14 7 -9 0 -14 9 -13 20 1 11 5 20 9 20 4 0 9 8 9 18 1 15 2 15 6 0
6 -23 26 -28 54 -14 36 18 37 46 2 46 -16 0 -34 5 -41 12 -9 9 -18 9 -39 -1
-20 -9 -23 -15 -14 -20 8 -5 9 -11 3 -15 -5 -3 -7 -17 -4 -31 2 -15 0 -25 -7
-25 -6 0 -12 8 -12 18 -1 9 -2 22 -4 27 -1 6 -3 17 -3 25 -2 18 -37 23 -64 9
-10 -6 -18 -6 -18 -1 0 6 -26 8 -57 6 -43 -2 -53 0 -38 7 18 8 17 9 -5 4 -14
-2 -42 -5 -62 -5 -29 0 -38 -4 -38 -17 0 -15 -1 -15 -13 1 -11 15 -26 17 -127
13 -63 -3 -117 -6 -120 -7 -14 -5 -86 3 -109 12 -34 14 -61 17 -61 6 0 -4 -27
-8 -60 -8 -41 0 -60 4 -60 13 0 8 -3 9 -8 1 -4 -6 -15 -10 -24 -9 -21 4 -30
-19 -18 -47 5 -13 9 -17 9 -10 1 13 37 17 45 4 7 -12 -7 -29 -29 -34 -15 -2
-20 -11 -19 -31 1 -26 -1 -28 -40 -27 -22 0 -62 -2 -88 -5 -29 -4 -48 -2 -48
4 0 6 -11 6 -30 1 -19 -5 -30 -5 -30 1 0 6 -6 7 -12 2 -15 -9 -38 -13 -38 -7
0 3 10 9 23 13 21 8 21 9 3 17 -13 5 -23 2 -30 -8 -12 -16 -86 -21 -86 -6 0 4
5 9 10 9 6 1 14 2 19 3 6 0 16 7 23 15 10 10 10 12 1 7 -7 -4 -13 -3 -13 3 0
5 10 11 22 13 26 3 38 38 14 38 -20 0 -29 17 -15 26 8 5 9 3 4 -6 -6 -10 -4
-12 8 -7 9 3 18 -1 22 -11 6 -16 7 -16 19 1 7 9 26 18 42 18 16 1 4 5 -26 10
-30 4 -66 5 -79 2 -18 -4 -22 -3 -16 7 6 10 2 11 -16 6 -40 -13 -74 -12 -72 1
2 9 -8 9 -42 -1 -32 -10 -45 -11 -49 -2 -2 6 -5 1 -5 -11 -1 -13 -5 -23 -10
-23 -5 0 -16 -3 -25 -6 -9 -3 -16 -1 -16 6 0 6 5 8 10 5 6 -3 10 -1 10 4 0 6
-9 11 -20 11 -11 0 -20 -4 -20 -8 0 -4 -9 -8 -20 -9 -22 -2 -27 12 -7 20 6 3
2 6 -10 6 -13 1 -23 -5 -23 -11 0 -10 -2 -10 -8 0 -11 16 -104 14 -95 -2 4 -6
2 -7 -3 -3 -5 5 -9 14 -9 20 0 5 -7 12 -15 14 -13 4 -13 3 0 -6 13 -9 12 -11
-4 -11 -19 0 -19 0 -1 -13 14 -11 15 -16 5 -22 -8 -5 -11 -4 -7 2 8 12 -14 23
-43 23 -11 0 -35 14 -54 30 -21 19 -37 27 -41 20 -3 -6 -10 -8 -14 -6 -4 3
-13 0 -21 -5 -12 -8 -9 -10 10 -8 44 2 60 -1 60 -12 0 -5 -4 -7 -10 -4 -5 3
-10 1 -10 -5 0 -6 -4 -8 -10 -5 -5 3 -10 1 -10 -5 0 -6 -4 -9 -9 -6 -5 3 -51
8 -102 10 -52 3 -83 2 -69 -2 22 -7 23 -9 7 -15 -10 -4 -28 -7 -40 -8 -20 -1
-20 -2 3 -8 16 -4 30 -2 38 6 7 7 28 13 45 13 24 0 28 -3 17 -10 -9 -6 -10
-10 -3 -10 6 0 15 4 18 10 9 14 72 8 72 -7 0 -7 -4 -10 -9 -7 -4 3 -16 0 -25
-6 -16 -10 -15 -10 4 -5 12 3 24 2 27 -4 3 -5 15 -7 26 -4 12 3 20 0 20 -6 0
-7 5 -9 12 -5 7 4 8 3 4 -5 -4 -6 -2 -20 5 -29 11 -14 11 -15 0 -5 -16 13 -41
7 -58 -15 -11 -14 -13 -13 -13 9 0 13 -5 31 -10 39 -7 11 -8 6 -4 -16 4 -22 1
-34 -12 -45 -16 -13 -16 -12 -6 8 7 12 12 24 12 27 0 4 -29 5 -65 3 -59 -4
-94 5 -63 15 7 3 8 7 2 11 -5 3 -16 -3 -23 -15 -7 -11 -8 -17 -2 -14 5 4 15
-3 21 -14 10 -19 10 -20 -8 -11 -13 7 -22 7 -31 -2 -10 -9 -11 -8 -5 8 4 11 4
17 0 14 -8 -8 -56 37 -56 53 0 5 7 7 16 4 8 -3 12 -2 9 4 -10 16 -35 12 -42
-6 -6 -15 -7 -15 -20 1 -7 10 -16 15 -20 11 -5 -4 2 -16 15 -26 29 -24 28 -27
-8 -27 -16 0 -30 5 -30 11 0 6 -5 4 -10 -4 -7 -11 -10 -6 -10 21 0 32 3 37 28
42 15 3 33 1 40 -5 8 -7 17 -7 27 2 12 10 13 15 4 20 -18 12 -137 11 -144 0
-10 -16 -72 -12 -79 5 -3 8 0 15 7 15 9 0 9 2 0 8 -9 6 -7 11 7 20 16 9 21 9
28 -4 7 -13 11 -14 17 -3 5 8 4 14 -4 17 -9 3 -9 8 1 20 12 15 11 16 -5 3 -14
-11 -21 -11 -29 -3 -7 7 -23 12 -35 12 -20 0 -22 -3 -13 -19 5 -11 12 -35 15
-54 5 -28 3 -33 -12 -32 -10 0 -24 4 -31 9 -6 4 -17 4 -24 0 -7 -4 -8 -3 -4 4
4 7 2 12 -3 12 -6 0 -11 -7 -11 -15 0 -14 30 -21 70 -15 12 1 12 -1 3 -10 -6
-7 -9 -19 -6 -26 6 -16 -13 -19 -22 -4 -3 6 -11 10 -16 10 -6 0 -7 -4 -4 -10
4 -6 -7 -10 -25 -10 -34 0 -49 22 -31 44 9 11 8 15 -5 20 -21 8 -34 -1 -33
-22 0 -14 2 -13 10 3 7 17 8 15 7 -10 -2 -33 -16 -57 -28 -50 -4 3 -13 -2 -20
-9 -8 -11 -9 -20 0 -35 9 -17 8 -21 -5 -21 -9 0 -15 -9 -15 -21 0 -20 -2 -19
-22 7 -13 15 -22 37 -20 49 2 17 1 17 -8 -3 -12 -29 -30 -20 -23 11 4 17 2 19
-6 7 -5 -8 -13 -11 -17 -7 -4 4 -13 2 -21 -4 -15 -13 -18 -39 -3 -39 5 0 7 6
4 14 -3 8 -1 17 4 20 6 3 12 -1 16 -9 3 -8 1 -17 -5 -21 -7 -4 -6 -10 1 -19 8
-9 6 -14 -6 -19 -12 -5 -15 -2 -10 10 6 14 4 15 -9 4 -13 -11 -16 -11 -13 1 2
9 -5 14 -19 13 -13 -1 -20 3 -17 7 3 5 9 7 14 4 4 -3 6 4 3 15 -3 11 -9 17
-14 14 -5 -3 -7 -10 -4 -15 4 -5 -1 -9 -9 -9 -8 0 -22 -10 -30 -22 -9 -12 -19
-19 -22 -15 -4 4 3 15 14 26 24 20 31 57 10 46 -26 -13 170 171 213 200 24 16
47 33 50 38 6 9 67 -2 74 -13 3 -5 -3 -6 -14 -3 -10 3 -22 -1 -27 -8 -5 -9 -2
-11 9 -6 9 3 16 3 16 -1 -3 -18 2 -32 12 -32 5 0 8 4 5 9 -7 11 18 33 27 24 4
-3 7 -1 7 6 0 7 4 10 9 6 5 -3 13 0 17 6 5 8 3 9 -6 4 -10 -6 -12 -4 -6 11 4
10 9 25 10 32 4 21 20 13 21 -11 0 -16 7 -23 25 -25 14 -2 32 -6 40 -9 8 -3
18 -6 21 -5 3 1 4 -9 2 -22 -4 -21 -2 -23 21 -19 14 3 26 10 27 17 0 6 2 21 3
34 2 16 -1 19 -8 12 -5 -5 -16 -10 -24 -10 -9 0 -6 7 9 20 13 10 19 19 12 20
-6 0 -15 -4 -18 -10 -10 -16 -35 -12 -29 5 4 8 10 13 14 10 5 -3 12 0 16 6 4
7 3 9 -4 5 -6 -3 -14 -1 -18 5 -5 8 4 10 30 7 23 -2 35 0 33 6 -2 6 -11 10
-21 8 -9 -2 -16 1 -16 7 0 10 25 9 36 -1 3 -4 13 -4 22 -1 15 4 15 3 2 -6 -8
-6 -10 -11 -5 -11 6 0 1 -7 -9 -15 -16 -12 -17 -15 -4 -15 9 0 19 7 22 16 3 8
10 13 14 10 9 -5 47 63 44 77 -1 4 2 17 8 27 9 16 7 20 -6 20 -30 0 -10 9 77
34 134 38 260 61 379 69 100 7 5464 5 5446 -2z m4002 -90 c23 -19 29 -33 13
-28 -5 1 -8 -2 -7 -8 0 -5 7 -9 14 -8 7 0 11 -5 8 -12 -3 -9 0 -12 9 -8 8 3
12 10 8 16 -3 6 -1 7 5 3 7 -4 12 -3 12 3 0 5 -8 15 -17 20 -17 10 -17 10 0
11 9 0 17 -4 17 -10 0 -5 3 -9 8 -8 4 1 18 -4 30 -11 13 -7 26 -10 29 -7 5 4
58 -18 72 -30 2 -2 -2 -10 -8 -18 -16 -19 -9 -31 29 -50 28 -14 31 -13 42 7
10 20 10 21 -6 8 -22 -18 -33 -7 -13 14 13 12 18 13 29 3 7 -7 19 -14 26 -16
8 -1 25 -10 39 -19 23 -16 24 -17 7 -24 -12 -4 -23 -1 -31 8 -7 9 -13 11 -18
3 -3 -5 -12 -7 -18 -4 -7 4 -5 -1 4 -10 16 -18 75 -33 65 -17 -3 5 3 11 13 14
24 6 195 -118 185 -135 -4 -6 -3 -8 3 -5 12 8 36 -17 26 -26 -3 -4 1 -7 11 -7
10 0 25 -7 33 -16 14 -14 14 -17 0 -31 -14 -15 -16 -14 -23 11 -5 20 -9 24
-19 16 -16 -13 -28 2 -19 24 3 9 1 16 -5 16 -10 0 -15 -13 -12 -32 0 -4 -6 -5
-14 -2 -8 4 -15 2 -15 -4 0 -6 6 -13 13 -15 7 -4 6 -6 -4 -6 -9 -1 -19 8 -22
19 -3 11 -11 19 -19 18 -7 -2 -13 4 -13 12 0 8 -4 18 -10 22 -15 11 -37 10
-30 -2 3 -5 1 -10 -4 -10 -6 0 -11 5 -11 11 0 5 -4 7 -10 4 -5 -3 -19 -1 -31
6 -17 9 -23 8 -30 -2 -7 -11 -9 -10 -9 4 0 16 6 18 48 13 26 -3 39 -3 29 0
-19 6 -67 47 -67 58 0 4 4 5 8 2 5 -3 9 1 9 9 0 8 -3 12 -7 10 -4 -2 -19 -9
-35 -15 -27 -10 -27 -11 -10 -38 10 -15 12 -22 6 -16 -14 13 -61 6 -61 -8 0
-5 9 -6 20 -3 15 5 20 2 20 -12 0 -15 -2 -16 -10 -3 -6 10 -10 11 -10 3 0 -8
-15 -13 -39 -13 -41 0 -60 13 -40 26 8 5 9 3 4 -5 -5 -9 -2 -12 11 -9 11 2 20
13 22 26 2 12 7 20 12 17 4 -3 10 1 13 8 4 10 -4 14 -24 14 -19 0 -25 -3 -17
-9 9 -5 10 -8 1 -8 -6 0 -15 5 -19 11 -3 6 -17 9 -30 6 -13 -2 -24 0 -24 4 0
5 5 9 11 9 6 0 9 6 6 14 -3 7 0 19 6 25 8 8 8 11 -1 11 -7 0 -12 -3 -12 -8 0
-4 -37 -6 -82 -5 -72 2 -97 -9 -43 -19 13 -2 16 -6 9 -11 -7 -4 -22 2 -35 12
-23 18 -23 19 -4 37 18 19 18 19 -36 25 -30 3 -63 2 -74 -2 -11 -4 -15 -8 -9
-8 7 -1 15 -8 18 -16 4 -11 0 -15 -12 -13 -24 4 -43 30 -31 44 11 14 -8 24
-29 16 -10 -3 -10 -7 -2 -12 7 -5 6 -11 -6 -21 -12 -9 -15 -10 -10 -1 6 10 -3
16 -24 14 -3 0 -17 8 -30 18 -27 20 -9 22 26 2 14 -7 24 -8 31 -1 16 16 51 18
57 3 4 -9 14 -13 28 -9 35 8 128 12 128 5 0 -3 9 -6 20 -6 11 0 20 6 20 13 0
7 -7 10 -17 6 -10 -4 -14 -2 -10 4 4 6 1 14 -5 17 -7 3 -2 4 12 3 29 -2 58 39
40 57 -7 7 -10 6 -11 -2 -1 -7 -2 -17 -3 -24 0 -7 -12 -15 -26 -18 -14 -4 -24
-12 -23 -17 1 -6 -4 -14 -12 -17 -8 -3 -15 -1 -15 4 0 5 -6 7 -14 4 -8 -3 -17
-1 -20 5 -4 6 -21 8 -39 6 l-32 -5 32 10 c31 10 54 30 34 30 -5 0 -13 -5 -17
-11 -4 -7 -20 -8 -41 -4 -27 5 -33 3 -28 -7 3 -7 -1 -4 -9 6 -9 11 -16 23 -16
28 0 11 18 10 25 -2 9 -14 46 12 40 29 -4 10 1 12 21 7 17 -5 23 -3 19 4 -3 5
-2 10 3 10 6 0 13 -7 16 -16 3 -8 2 -13 -3 -10 -5 3 -12 -1 -15 -10 -5 -12 -1
-14 15 -9 16 5 20 3 17 -11 -2 -12 4 -19 17 -22 12 -2 16 0 9 5 -17 13 -24 42
-12 49 7 4 2 14 -13 25 -13 10 -19 19 -13 19 6 0 21 -8 32 -19z m-5636 -360
c6 -10 17 -17 24 -14 8 3 11 -2 7 -16 -3 -12 -9 -21 -14 -21 -5 0 -9 -11 -9
-25 0 -20 -5 -25 -25 -25 -15 0 -39 7 -55 15 -28 14 -35 13 -31 -8 1 -5 -3 -6
-9 -2 -6 3 -8 11 -5 16 4 5 1 9 -4 9 -6 0 -11 7 -11 15 0 8 -7 15 -16 15 -8 0
-12 -4 -9 -10 3 -5 1 -10 -5 -10 -6 0 -8 -5 -5 -10 4 -6 12 -8 18 -4 7 3 4 -1
-5 -9 -14 -11 -15 -16 -5 -27 17 -20 -21 9 -51 38 -20 20 -21 24 -8 37 8 8 30
15 50 15 19 0 38 5 41 10 7 12 58 13 69 3 4 -5 19 -8 33 -8 21 -1 22 1 9 11
-18 13 -21 24 -6 24 5 0 15 -9 22 -19z m2792 -5 c16 -2 34 -10 41 -19 7 -10
18 -17 25 -17 7 0 10 -3 7 -7 -4 -3 -1 -13 6 -21 8 -11 8 -14 0 -9 -15 9 -45
-2 -37 -14 3 -6 -30 -9 -80 -8 -89 1 -90 2 -89 47 1 6 -3 12 -8 12 -5 0 -9 9
-9 19 0 21 42 32 90 24 14 -2 38 -5 54 -7z"/>
<path d="M13655 16701 c11 -5 26 -6 33 -4 6 3 12 0 12 -6 0 -6 -6 -11 -12 -11
-9 0 -9 -3 -3 -8 17 -11 12 -57 -5 -57 -8 0 -25 -6 -37 -13 -14 -8 -23 -9 -23
-2 0 5 -4 10 -10 10 -5 0 -10 -7 -10 -15 0 -8 -1 -15 -3 -15 -1 0 -16 -4 -34
-9 -26 -7 -31 -7 -26 5 3 8 13 14 23 14 11 0 21 3 23 8 3 4 -26 8 -64 8 -38 1
-69 -2 -69 -5 0 -12 24 -38 40 -44 8 -3 -4 -5 -27 -4 -24 1 -43 5 -43 10 0 4
6 7 14 7 9 0 13 10 12 25 -1 24 -16 36 -16 13 0 -6 -9 -2 -20 10 -25 26 -40
30 -18 5 26 -31 31 -43 14 -37 -9 3 -16 1 -16 -6 0 -6 -4 -8 -10 -5 -5 3 -10
11 -10 16 0 6 5 7 10 4 6 -3 10 -1 10 4 0 7 -19 9 -50 6 -27 -3 -50 -1 -50 3
0 5 -6 9 -12 9 -7 0 -22 4 -32 9 -14 5 -17 4 -12 -4 4 -7 14 -12 21 -12 11 0
12 -6 5 -25 -9 -23 -7 -26 21 -32 21 -4 28 -10 24 -21 -5 -12 -3 -13 10 -2 14
11 17 10 22 -8 3 -12 9 -19 14 -16 5 3 9 0 9 -5 0 -6 5 -11 11 -11 5 0 8 4 5
9 -7 11 62 53 75 45 5 -3 7 -9 4 -14 -3 -5 9 -4 27 2 66 20 81 22 76 7 -3 -8
-12 -13 -21 -13 -9 1 -14 -3 -10 -9 4 -7 -5 -8 -28 -4 l-34 6 28 -15 c27 -15
30 -14 53 7 25 23 82 39 70 20 -4 -6 13 -4 39 3 33 10 45 11 45 3 0 -8 3 -8 8
0 5 7 20 14 34 15 17 1 24 7 20 16 -4 11 -6 11 -14 0 -5 -8 -6 -3 -2 15 4 18
2 27 -6 27 -10 0 -10 3 -1 14 9 10 9 16 1 21 -8 5 -8 11 1 21 16 20 30 7 20
-19 -5 -13 -3 -36 5 -59 13 -38 9 -77 -10 -91 -6 -4 2 -5 18 -1 22 5 27 4 21
-6 -5 -9 -4 -11 4 -6 6 4 9 12 6 17 -4 5 -2 9 3 9 5 0 9 7 9 15 0 8 -6 15 -13
15 -8 0 -11 -6 -8 -15 4 -8 2 -15 -4 -15 -6 0 -9 8 -7 18 2 9 4 20 4 24 1 4
13 3 28 -3 18 -7 30 -6 37 1 7 7 6 10 -3 10 -7 0 -9 5 -4 13 11 18 13 38 2 31
-5 -3 -9 -1 -9 4 0 6 -15 9 -32 7 -39 -3 -51 2 -41 18 11 18 12 36 2 43 -14 8
0 26 14 18 9 -5 9 -4 1 5 -9 10 -17 10 -34 1 -15 -8 -20 -8 -16 -1 5 8 -10 11
-46 10 -37 0 -47 -3 -33 -8z"/>
<path d="M11865 16620 c-4 -13 -12 -17 -23 -13 -13 4 -13 2 3 -11 11 -10 15
-15 9 -12 -16 8 -25 -19 -11 -33 14 -14 20 -51 7 -51 -6 0 -10 5 -10 11 0 6
-6 9 -12 6 -7 -2 -12 -10 -10 -16 1 -6 -7 -11 -18 -11 -12 0 -24 -9 -29 -22
-5 -13 -11 -22 -15 -20 -14 5 -26 1 -26 -9 0 -6 6 -9 14 -6 8 3 13 -1 12 -11
-1 -10 8 -18 21 -20 12 -2 21 -9 19 -15 -1 -7 -1 -8 2 -4 5 9 32 -11 32 -25 0
-5 -4 -6 -10 -3 -16 10 -12 -1 6 -15 8 -8 14 -9 13 -4 -4 14 11 54 21 54 5 0
7 -19 5 -42 -3 -27 -1 -37 5 -29 4 8 7 30 5 48 -2 30 0 34 16 30 11 -3 16 -1
13 5 -10 15 18 29 33 16 8 -6 16 -8 20 -4 3 3 1 6 -5 6 -6 0 -9 6 -6 14 4 11
-4 14 -35 13 -23 -1 -38 -3 -33 -6 9 -8 14 -31 5 -31 -3 0 -21 11 -40 26 -18
14 -33 20 -33 15 0 -6 5 -11 11 -11 5 0 7 -5 3 -11 -5 -8 -9 -8 -14 1 -4 7
-13 9 -19 6 -7 -5 -11 2 -11 19 0 24 3 26 25 21 17 -4 24 -3 23 6 -2 7 4 13
12 14 8 0 21 2 28 2 6 1 12 9 12 17 0 8 4 15 8 15 5 0 19 9 32 20 13 11 18 20
11 20 -7 0 -9 4 -6 10 3 6 -1 7 -9 4 -9 -3 -14 -9 -12 -13 3 -4 1 -13 -3 -20
-7 -10 -13 -11 -27 -2 -17 9 -17 10 6 11 23 1 23 2 5 10 -17 7 -17 9 -2 9 9 1
17 8 17 17 0 11 -6 14 -17 10 -17 -6 -17 -5 0 8 15 11 15 15 3 19 -9 4 -17 -1
-21 -13z"/>
</g>
</svg>
