<?xml version="1.0" standalone="no"?>
<!DOCTYPE svg PUBLIC "-//W3C//DTD SVG 20010904//EN"
 "http://www.w3.org/TR/2001/REC-SVG-20010904/DTD/svg10.dtd">
<svg version="1.0" xmlns="http://www.w3.org/2000/svg"
 width="2048.000000pt" height="2048.000000pt" viewBox="0 0 2048.000000 2048.000000"
 preserveAspectRatio="xMidYMid meet">
<metadata>
Created by potrace 1.16, written by Peter Selinger 2001-2019
</metadata>
<g transform="translate(0.000000,2048.000000) scale(0.100000,-0.100000)"
fill="#000000" stroke="none">
<path d="M8466 16693 c79 -186 191 -537 254 -798 163 -672 230 -1280 217
-1970 -6 -306 -13 -415 -42 -710 -80 -790 -300 -1599 -594 -2185 -121 -241
-205 -363 -329 -482 -241 -230 -568 -221 -807 22 -216 219 -350 566 -411 1070
-20 161 -24 627 -7 778 5 45 7 82 4 82 -9 -1 -32 -34 -129 -187 -609 -952
-1008 -2056 -1151 -3183 -87 -686 -86 -1296 5 -1811 126 -723 474 -1418 993
-1984 97 -105 160 -167 330 -322 612 -557 1417 -978 2286 -1198 261 -66 338
-78 215 -35 -200 71 -440 205 -611 341 -641 511 -843 1203 -644 2204 102 511
314 999 647 1492 108 160 136 195 124 157 -15 -52 -47 -214 -67 -344 -31 -198
-33 -574 -5 -725 53 -291 180 -540 301 -590 41 -18 98 -19 127 -4 11 6 29 32
41 57 18 41 21 77 28 267 21 560 111 974 306 1410 98 219 289 526 459 740 124
155 443 471 592 585 115 88 308 222 380 263 l31 18 -15 -37 c-26 -61 -101
-331 -127 -459 -98 -463 -96 -996 5 -1475 110 -525 295 -914 482 -1013 30 -16
58 -21 106 -21 159 1 277 133 344 382 36 135 48 256 44 450 l-3 173 23 -28
c50 -61 184 -287 260 -438 200 -400 321 -813 368 -1256 22 -207 15 -534 -14
-699 -90 -502 -365 -902 -835 -1216 -113 -76 -343 -190 -467 -233 -254 -88
241 24 551 125 533 172 1064 439 1509 757 268 192 631 522 843 767 521 603
836 1287 942 2045 57 410 58 897 5 1423 -65 632 -188 1193 -396 1802 -248 731
-626 1474 -1108 2180 -100 147 -319 445 -334 454 -5 3 4 -43 20 -102 101 -383
168 -789 199 -1192 15 -207 7 -720 -15 -900 -70 -572 -224 -1016 -441 -1269
-100 -116 -196 -181 -295 -199 -124 -23 -220 28 -272 146 -37 82 -48 172 -58
452 -26 734 -94 1263 -241 1859 -209 850 -606 1721 -1092 2401 -234 326 -431
555 -756 880 -437 436 -789 720 -1281 1030 -130 82 -490 290 -502 290 -5 0 -1
-17 8 -37z"/>
</g>
</svg>
