<?xml version="1.0" standalone="no"?>
<!DOCTYPE svg PUBLIC "-//W3C//DTD SVG 20010904//EN"
 "http://www.w3.org/TR/2001/REC-SVG-20010904/DTD/svg10.dtd">
<svg version="1.0" xmlns="http://www.w3.org/2000/svg"
 width="2048.000000pt" height="2048.000000pt" viewBox="0 0 2048.000000 2048.000000"
 preserveAspectRatio="xMidYMid meet">
<metadata>
Created by potrace 1.16, written by Peter Selinger 2001-2019
</metadata>
<g transform="translate(0.000000,2048.000000) scale(0.100000,-0.100000)"
fill="#000000" stroke="none">
<path d="M10020 16230 c-341 -13 -616 -47 -1005 -125 -845 -170 -1666 -544
-2400 -1094 -560 -419 -1040 -925 -1458 -1537 -361 -529 -646 -1148 -821
-1784 -142 -514 -206 -1005 -206 -1572 0 -606 79 -1141 255 -1716 246 -810
663 -1549 1242 -2202 189 -214 546 -558 758 -731 191 -156 504 -379 533 -379
26 0 43 21 182 225 68 99 124 181 125 183 2 2 46 -24 98 -58 53 -33 117 -70
142 -82 25 -12 45 -26 45 -30 0 -4 -40 -82 -90 -172 -49 -90 -90 -173 -90
-184 0 -26 31 -52 63 -52 32 0 42 14 142 200 43 80 80 146 81 148 1 2 81 -37
178 -85 157 -78 176 -90 172 -109 -3 -12 -38 -92 -77 -178 -75 -165 -80 -194
-38 -217 11 -6 31 -8 44 -5 25 6 31 18 135 246 29 63 54 117 55 119 2 1 64
-21 137 -49 73 -29 161 -62 195 -74 34 -12 63 -24 63 -29 0 -4 -24 -84 -55
-179 -30 -94 -55 -181 -55 -194 0 -24 33 -54 60 -54 21 0 56 38 65 70 12 44
98 315 101 321 2 4 50 -8 106 -26 57 -18 145 -42 196 -55 50 -13 92 -27 92
-33 0 -5 -19 -90 -41 -188 -39 -170 -40 -180 -25 -204 20 -30 65 -34 88 -7 9
9 30 82 48 162 17 80 36 161 41 181 l9 36 87 -17 c49 -9 142 -25 208 -35 66
-10 122 -20 123 -21 2 -1 -6 -91 -19 -198 -22 -190 -22 -196 -4 -216 22 -25
67 -26 87 -2 11 12 23 77 39 211 l23 193 66 -7 c36 -4 125 -10 198 -14 l134
-6 -2 -192 c-1 -188 0 -192 22 -207 32 -23 54 -20 77 10 19 25 21 40 21 204
l0 178 203 4 c111 2 204 3 206 1 4 -3 18 -127 26 -252 6 -81 11 -107 26 -122
25 -25 61 -24 84 1 17 19 18 29 6 163 -7 78 -14 161 -17 183 l-6 41 89 7 c48
4 141 15 207 25 79 11 119 14 122 6 2 -5 15 -82 29 -170 14 -88 32 -170 41
-182 30 -46 104 -18 104 39 0 14 -13 97 -30 184 -16 88 -30 160 -30 160 0 1
33 7 74 13 41 7 128 25 192 41 65 16 119 28 120 27 2 -1 23 -79 49 -172 54
-201 75 -230 133 -189 31 22 29 55 -18 228 -44 162 -46 176 -27 176 7 0 93 27
192 60 99 33 183 60 186 60 3 0 32 -73 64 -162 32 -90 65 -171 74 -181 22 -27
72 -19 90 14 14 25 11 37 -48 198 -35 95 -62 174 -60 176 2 2 39 17 81 34 43
17 121 51 174 76 54 25 98 44 100 42 2 -1 18 -38 37 -82 95 -219 124 -265 164
-265 20 0 53 38 53 61 0 12 -34 93 -77 180 -42 88 -74 161 -72 163 2 2 33 17
69 34 66 31 166 85 252 136 l47 27 17 -33 c9 -18 51 -91 92 -161 82 -137 101
-153 147 -123 42 28 33 60 -66 225 -51 83 -90 153 -88 155 2 2 48 32 102 66
54 34 133 86 175 116 72 52 78 54 90 37 7 -10 51 -74 98 -143 89 -129 116
-160 141 -160 18 0 63 45 63 63 0 8 -50 85 -111 171 -61 87 -109 159 -107 160
34 25 209 168 258 210 l65 56 24 -27 c155 -181 234 -263 255 -263 35 0 59 24
59 58 0 25 -22 55 -124 168 l-124 138 158 157 158 158 120 -117 c66 -64 135
-126 153 -137 32 -18 35 -18 60 -2 19 13 26 26 26 48 0 25 -13 42 -72 97 -40
37 -104 97 -142 133 l-70 67 65 73 c35 41 89 106 119 146 30 40 57 72 60 73 3
0 72 -52 153 -115 162 -125 192 -137 223 -90 9 13 13 33 9 44 -6 20 -76 79
-222 190 -46 34 -83 64 -83 67 0 2 40 62 88 132 49 70 99 145 112 167 13 22
25 42 26 44 2 2 61 -35 131 -81 179 -119 205 -132 234 -125 13 3 30 16 37 28
26 42 1 67 -169 174 -87 55 -159 103 -159 106 0 3 43 81 95 174 52 93 98 177
101 187 4 15 29 5 174 -67 93 -47 180 -85 194 -85 35 0 58 27 54 64 -3 30 -11
35 -176 117 -95 47 -175 89 -178 92 -4 3 18 61 48 129 30 68 65 151 78 186 13
35 29 62 36 62 8 0 87 -29 176 -65 89 -36 172 -65 184 -65 45 0 72 70 40 103
-8 8 -27 19 -43 25 -96 37 -305 112 -313 112 -13 0 -13 2 9 57 10 26 35 106
56 176 26 88 42 126 51 123 34 -13 342 -96 357 -96 23 0 57 35 57 59 0 45 -30
60 -208 105 -96 24 -176 47 -179 49 -3 3 11 72 30 154 19 81 38 163 42 181 5
24 11 31 23 28 33 -10 334 -66 356 -66 13 0 30 8 39 18 20 22 22 75 5 90 -7 5
-96 24 -198 42 -102 18 -188 35 -192 39 -10 10 44 369 56 365 6 -1 91 -10 189
-19 163 -15 180 -15 203 0 16 10 24 25 24 44 0 53 -20 59 -225 76 -104 9 -190
17 -192 18 -1 2 2 54 7 117 5 63 10 127 10 143 l0 27 193 0 c214 0 237 6 237
59 0 57 -17 61 -233 61 l-197 0 0 133 c0 72 -3 162 -6 198 l-7 66 189 12 c214
15 234 21 234 76 0 57 -19 60 -236 46 -102 -7 -188 -11 -191 -8 -2 3 -13 79
-23 169 -11 89 -20 174 -22 187 -3 25 -1 25 185 56 123 21 194 37 204 48 39
39 -2 115 -57 103 -67 -15 -354 -66 -356 -64 -1 2 -10 44 -19 93 -9 50 -25
126 -36 170 -10 44 -15 83 -11 86 4 4 79 26 167 49 88 23 170 48 182 56 27 17
37 48 23 73 -24 45 -40 45 -231 -10 -99 -28 -182 -49 -183 -47 -5 7 -96 331
-94 333 2 1 77 28 168 60 91 31 173 64 183 73 37 33 12 102 -39 102 -13 0 -99
-27 -190 -61 -91 -33 -168 -58 -171 -55 -4 3 -23 48 -43 100 l-37 94 180 78
c196 85 215 100 186 152 -26 47 -57 41 -241 -44 -93 -42 -170 -75 -172 -73 -8
9 -126 263 -126 270 0 5 69 43 153 85 83 42 162 85 175 97 41 38 17 97 -42 97
-14 0 -99 -38 -187 -85 -89 -47 -162 -85 -163 -83 -1 2 -26 46 -56 98 -29 52
-71 121 -92 153 -22 31 -37 61 -34 66 3 5 78 55 166 112 88 57 163 112 166
121 5 18 -11 58 -30 70 -26 18 -60 2 -208 -97 -87 -58 -160 -105 -162 -105 -2
0 -30 37 -62 83 -31 45 -79 110 -106 144 -26 35 -48 65 -48 67 0 4 217 179
261 210 8 6 24 24 34 39 18 27 18 29 -2 55 -38 51 -57 44 -222 -89 -146 -117
-153 -121 -166 -102 -21 30 -199 236 -217 251 -13 11 4 31 124 150 77 75 144
145 150 155 12 23 -11 62 -42 72 -29 9 -51 -7 -200 -152 l-130 -126 -113 111
c-61 61 -127 122 -144 137 l-33 27 65 76 c167 200 185 224 185 251 0 15 -5 32
-12 39 -18 18 -63 15 -86 -5 -22 -20 -126 -141 -186 -218 -22 -28 -43 -54 -46
-58 -4 -5 -38 18 -76 50 -52 45 -221 178 -252 199 -4 3 76 123 155 233 57 79
66 116 35 144 -39 35 -77 18 -123 -55 -19 -29 -62 -93 -96 -142 -34 -49 -64
-93 -66 -99 -1 -5 -57 26 -123 70 -65 44 -141 93 -167 108 -27 15 -51 33 -53
40 -3 6 31 77 76 157 44 80 80 157 80 171 0 54 -60 76 -97 35 -11 -13 -51 -81
-88 -153 -37 -71 -72 -135 -77 -141 -6 -8 -40 6 -116 48 -59 33 -144 78 -189
99 -46 22 -83 43 -83 48 0 5 29 74 65 155 36 80 65 157 65 170 0 26 -28 56
-52 56 -32 0 -59 -39 -116 -170 -32 -74 -61 -143 -65 -152 -5 -14 -21 -9 -124
36 -65 29 -146 63 -181 76 -40 14 -61 27 -58 35 7 19 86 273 100 325 7 25 21
73 31 107 21 71 17 86 -23 107 -35 18 -405 131 -572 175 -528 138 -1147 203
-1740 181z m292 -116 l60 -7 -7 -186 c-7 -169 -6 -189 9 -204 23 -22 69 -22
90 2 14 15 16 43 17 182 0 231 -9 213 113 205 174 -10 375 -29 384 -35 6 -4 6
-31 0 -71 -30 -211 -36 -305 -23 -326 20 -32 52 -36 81 -11 24 21 26 33 44
206 10 100 20 185 23 187 12 12 537 -92 537 -107 0 -5 -18 -86 -40 -180 -22
-95 -40 -183 -40 -197 0 -55 60 -81 95 -42 18 20 51 143 81 303 12 64 20 87
31 87 30 0 451 -126 466 -140 5 -4 -1 -34 -13 -66 -58 -165 -131 -416 -128
-441 3 -25 13 -32 123 -76 263 -106 587 -261 805 -385 267 -152 645 -417 845
-593 17 -14 57 -50 90 -79 125 -109 382 -370 502 -510 475 -551 792 -1116
1023 -1825 222 -682 302 -1496 215 -2200 -54 -447 -110 -705 -230 -1074 -115
-353 -277 -723 -441 -1010 -375 -652 -931 -1277 -1534 -1723 -951 -702 -2122
-1089 -3265 -1077 -1036 11 -1923 273 -2882 851 -89 54 -138 78 -150 74 -10
-4 -79 -97 -153 -207 -74 -111 -138 -203 -141 -205 -6 -4 -198 135 -322 234
l-75 59 69 93 c54 71 68 97 63 113 -10 35 -24 47 -53 47 -30 0 -53 -22 -121
-115 -24 -33 -44 -62 -46 -64 -4 -5 -193 159 -287 248 l-78 75 59 60 c73 74
85 96 73 129 -9 24 -29 37 -58 37 -8 0 -48 -32 -88 -70 l-72 -70 -109 113
c-60 62 -128 136 -152 164 l-42 51 27 22 c65 51 133 123 133 143 0 28 -28 57
-56 57 -14 0 -53 -26 -99 -66 -48 -42 -80 -63 -86 -57 -5 5 -49 60 -98 123
l-88 113 66 50 c94 71 121 98 121 121 0 28 -29 56 -58 56 -24 0 -105 -53 -164
-108 -14 -13 -31 -21 -38 -17 -12 7 -170 241 -214 317 l-27 47 23 14 c183 112
178 108 178 144 0 28 -45 64 -68 55 -27 -11 -134 -74 -161 -94 -13 -10 -27
-15 -32 -13 -9 6 -101 167 -97 170 2 1 49 26 106 55 115 58 136 82 109 124
-29 44 -49 42 -164 -19 -58 -31 -107 -54 -108 -53 -6 8 -126 271 -149 327 -29
73 -30 71 47 96 155 51 195 89 146 141 -12 13 -30 24 -38 24 -9 -1 -63 -20
-121 -45 l-105 -43 -13 24 c-13 25 -142 409 -142 423 0 4 24 13 53 20 186 43
233 71 205 127 -21 44 -45 45 -159 8 -57 -19 -112 -34 -121 -34 -12 0 -21 13
-29 43 -25 91 -86 372 -83 378 2 4 34 12 71 19 159 27 173 31 184 51 15 29 1
78 -25 90 -16 8 -51 4 -135 -16 -81 -18 -116 -23 -121 -15 -7 12 -45 268 -56
382 l-7 66 44 6 c24 3 80 8 124 12 51 4 86 12 98 22 23 20 22 65 -3 87 -18 16
-28 17 -108 6 -49 -6 -106 -11 -129 -11 l-40 0 -6 128 c-4 70 -7 184 -7 253
l0 126 135 -5 134 -5 12 27 c9 18 10 35 3 54 -11 32 -48 40 -186 41 l-88 1 0
67 c0 77 19 329 29 388 8 46 -1 45 159 19 87 -15 95 -15 113 2 23 20 25 67 4
87 -16 17 -40 23 -130 32 -33 3 -75 9 -93 12 l-34 6 7 51 c11 84 86 460 94
468 4 4 49 -4 101 -19 122 -33 157 -38 175 -23 19 15 20 74 2 89 -8 6 -67 24
-133 40 -102 25 -119 31 -116 47 3 20 101 340 124 409 16 46 7 47 151 -7 102
-38 108 -39 132 -24 18 12 25 25 25 50 0 18 -6 38 -12 44 -7 6 -64 27 -125 47
-62 20 -113 39 -113 44 0 7 145 359 170 414 7 15 18 27 23 27 6 0 57 -25 114
-56 58 -30 114 -54 125 -52 30 4 59 48 52 76 -5 17 -36 38 -125 83 -66 32
-119 61 -119 64 0 15 181 350 198 367 4 4 43 -15 87 -42 118 -73 122 -75 153
-64 32 11 52 56 36 82 -6 9 -56 43 -112 75 l-101 59 46 71 c71 113 195 287
203 287 4 0 47 -29 94 -65 48 -35 91 -67 96 -70 14 -8 48 12 65 39 24 36 5 63
-96 135 -49 36 -89 66 -89 67 0 7 142 189 149 192 5 1 52 -36 105 -83 54 -47
105 -85 115 -85 31 0 61 30 61 61 0 34 -16 51 -127 136 -40 31 -73 60 -73 64
0 13 129 158 243 274 l98 100 87 -91 c107 -113 121 -121 156 -93 48 38 37 65
-71 170 l-96 93 109 106 c61 58 138 129 171 158 l61 53 77 -106 c86 -117 100
-129 135 -112 61 31 53 64 -45 186 -41 52 -75 97 -75 101 0 14 360 280 380
280 5 0 39 -50 77 -110 44 -72 76 -113 90 -116 49 -13 87 42 65 91 -6 13 -39
66 -72 117 -45 69 -57 94 -48 100 7 5 98 60 203 123 l190 115 67 -134 c74
-147 90 -163 137 -129 14 11 27 30 29 42 2 13 -23 70 -62 141 -36 66 -66 123
-66 129 0 11 218 120 370 185 l105 45 18 -41 c10 -23 31 -80 48 -127 34 -96
51 -121 86 -121 27 0 63 33 63 58 0 10 -25 76 -55 146 -30 71 -54 131 -52 132
13 14 436 158 443 152 1 -2 19 -66 39 -143 21 -77 41 -148 46 -157 13 -25 71
-24 94 2 22 25 17 60 -30 206 -19 60 -35 114 -35 120 0 17 453 125 466 111 3
-3 17 -70 30 -149 29 -178 31 -183 50 -202 34 -35 94 -6 94 45 0 15 -13 96
-30 180 -16 84 -29 154 -27 155 11 11 504 70 512 62 3 -2 9 -83 15 -179 11
-166 12 -175 36 -196 31 -28 48 -29 74 -3 23 23 25 62 11 185 -6 44 -11 109
-13 145 l-3 65 118 5 c240 10 280 11 339 4z"/>
<path d="M10065 15233 c-1122 -28 -2262 -468 -3145 -1214 -370 -313 -706 -685
-960 -1064 -436 -650 -710 -1345 -824 -2090 -116 -755 -44 -1585 201 -2315
235 -699 649 -1380 1152 -1894 448 -458 873 -778 1386 -1042 804 -414 1599
-600 2475 -581 405 9 712 50 1105 148 982 244 1903 796 2586 1549 400 442 749
1001 968 1551 160 401 253 770 318 1254 26 199 28 230 28 590 -1 412 -8 510
-65 860 -77 476 -224 929 -446 1375 -267 536 -544 920 -964 1341 -299 299
-478 448 -789 654 -231 153 -425 264 -646 371 -736 355 -1546 527 -2380 507z
m526 -133 c557 -43 1146 -189 1638 -407 709 -314 1334 -779 1842 -1373 378
-442 713 -1025 899 -1565 175 -507 256 -962 267 -1495 24 -1150 -313 -2191
-1003 -3100 -474 -625 -1077 -1126 -1771 -1474 -569 -284 -1203 -464 -1828
-517 -191 -16 -649 -13 -852 5 -557 50 -1126 205 -1647 447 -577 268 -1040
593 -1490 1045 -457 459 -787 946 -1045 1541 -348 803 -474 1709 -356 2553 74
523 184 915 379 1344 342 751 851 1410 1467 1898 783 620 1666 983 2644 1088
198 21 642 26 856 10z"/>
<path d="M11841 14414 c-39 -50 -23 -73 81 -114 120 -47 445 -206 573 -279
519 -297 1033 -748 1373 -1204 397 -532 683 -1176 802 -1802 30 -160 33 -168
62 -184 23 -13 28 -13 52 2 33 22 34 52 5 208 -67 377 -221 814 -426 1209
-427 825 -1089 1491 -1932 1945 -188 101 -514 245 -555 245 -8 0 -24 -12 -35
-26z"/>
<path d="M9000 14326 c-547 -142 -1133 -434 -1564 -781 -513 -412 -901 -887
-1191 -1459 -280 -554 -434 -1157 -460 -1811 -4 -82 -2 -223 3 -312 7 -135 12
-166 27 -183 21 -23 53 -26 80 -6 18 13 19 29 16 307 -3 346 12 540 65 816 75
397 160 667 320 1016 441 960 1268 1743 2249 2130 165 65 412 145 545 177 103
25 133 44 133 84 0 65 -40 69 -223 22z"/>
<path d="M10187 13890 c-170 -4 -210 -8 -217 -20 -6 -9 -10 -145 -10 -317 l0
-302 -37 -6 c-455 -70 -802 -216 -1090 -456 -259 -217 -413 -484 -495 -860
-19 -91 -22 -132 -22 -329 0 -205 2 -236 27 -351 133 -628 519 -976 1442
-1299 83 -29 156 -54 163 -56 7 -2 12 -23 12 -56 1 -29 2 -448 3 -930 2 -775
0 -878 -13 -878 -67 0 -469 93 -647 150 -230 74 -517 193 -698 290 -50 28 -99
50 -108 50 -36 0 -54 -34 -60 -116 -4 -43 -16 -194 -27 -334 -11 -140 -25
-297 -31 -348 -6 -51 -7 -101 -4 -111 6 -21 127 -87 266 -147 192 -82 454
-161 691 -209 183 -36 451 -75 523 -75 23 0 57 -3 74 -6 l31 -6 0 -358 c0
-333 1 -358 18 -373 16 -15 50 -17 274 -17 234 0 256 1 271 18 15 17 17 58 17
378 l0 360 138 18 c354 46 702 173 982 360 126 85 313 267 384 375 226 341
323 780 271 1221 -34 288 -119 515 -275 732 -63 87 -240 265 -331 331 -182
133 -390 246 -669 362 -108 46 -402 153 -453 165 l-47 12 0 839 0 839 33 0
c50 0 276 -37 406 -66 198 -44 455 -135 672 -238 90 -42 123 -45 143 -13 8 13
29 138 50 307 20 157 43 334 52 393 20 143 22 140 -146 206 -339 133 -742 221
-1087 238 l-123 6 0 298 0 298 -26 20 c-20 15 -39 20 -73 19 -25 -1 -140 -5
-254 -8z m227 -277 c3 -87 5 -218 3 -291 -3 -111 -1 -137 12 -153 14 -16 39
-20 186 -29 385 -24 761 -105 1090 -235 39 -15 71 -29 72 -29 4 -3 -76 -628
-80 -632 -2 -2 -28 8 -58 22 -103 50 -301 125 -422 160 -258 75 -420 106 -642
124 -128 10 -130 10 -148 -11 -17 -21 -17 -67 -11 -938 5 -660 10 -919 18
-928 6 -6 74 -32 151 -58 315 -104 701 -274 892 -393 413 -255 646 -591 707
-1018 23 -159 28 -299 16 -439 -58 -671 -408 -1107 -1075 -1337 -201 -70 -478
-128 -608 -128 -25 0 -57 -4 -71 -10 l-26 -9 -2 -366 -3 -365 -162 -3 -163 -2
0 357 c0 299 -2 359 -15 371 -10 10 -49 17 -127 22 -329 19 -626 73 -933 167
-162 50 -364 127 -466 178 l-56 29 8 63 c4 35 18 188 30 341 12 152 26 277 31
277 5 0 48 -20 96 -44 281 -141 739 -298 1038 -356 172 -33 351 -52 374 -40
20 11 20 22 20 1029 0 832 -2 1021 -13 1030 -7 6 -94 38 -193 72 -370 126
-643 250 -840 382 -126 84 -280 227 -365 340 -99 131 -175 313 -220 527 -30
142 -33 455 -6 600 78 417 310 746 677 960 250 146 547 242 882 285 81 10 78
-2 78 336 l0 299 158 0 159 0 7 -157z"/>
<path d="M9900 12516 c-432 -102 -698 -431 -677 -836 7 -134 27 -211 87 -335
98 -202 245 -334 521 -470 61 -30 136 -62 165 -72 51 -16 54 -16 74 2 20 18
20 28 20 860 0 803 -1 843 -18 858 -24 22 -56 21 -172 -7z m62 -1565 c-5 -9
-170 76 -254 132 -299 198 -425 500 -343 823 58 226 255 406 530 484 l60 17 5
-726 c3 -399 4 -728 2 -730z"/>
<path d="M10432 9838 c-9 -9 -12 -236 -12 -959 0 -836 2 -948 15 -959 20 -17
145 -7 247 19 386 99 639 349 713 705 22 107 21 299 -1 396 -64 281 -258 507
-574 665 -94 47 -336 145 -359 145 -9 0 -22 -5 -29 -12z m218 -188 c289 -123
464 -269 561 -465 60 -122 73 -187 73 -350 0 -166 -15 -236 -80 -372 -96 -200
-273 -330 -549 -402 -43 -12 -87 -21 -97 -21 -17 0 -18 35 -18 825 0 454 4
825 8 825 5 0 51 -18 102 -40z"/>
<path d="M14706 9561 c-9 -10 -23 -56 -31 -107 -139 -857 -547 -1694 -1126
-2308 -546 -580 -1142 -971 -1850 -1211 -662 -225 -1361 -282 -2077 -168 -97
15 -103 15 -122 -2 -26 -24 -27 -81 -2 -94 23 -12 159 -36 337 -58 204 -25
781 -25 985 1 557 69 984 197 1485 446 546 270 1046 659 1436 1115 246 289
448 592 615 925 198 396 334 785 413 1185 46 229 47 249 22 274 -26 26 -62 27
-85 2z"/>
</g>
</svg>
