<?xml version="1.0" standalone="no"?>
<!DOCTYPE svg PUBLIC "-//W3C//DTD SVG 20010904//EN"
 "http://www.w3.org/TR/2001/REC-SVG-20010904/DTD/svg10.dtd">
<svg version="1.0" xmlns="http://www.w3.org/2000/svg"
 width="2048.000000pt" height="2048.000000pt" viewBox="0 0 2048.000000 2048.000000"
 preserveAspectRatio="xMidYMid meet">
<metadata>
Created by potrace 1.16, written by Peter Selinger 2001-2019
</metadata>
<g transform="translate(0.000000,2048.000000) scale(0.100000,-0.100000)"
fill="#000000" stroke="none">
<path d="M10538 16376 c-70 -19 -14 27 -704 -576 -541 -474 -529 -462 -589
-562 -65 -108 -609 -996 -710 -1158 -104 -168 -115 -192 -115 -270 0 -89 17
-122 162 -311 181 -236 218 -290 218 -316 0 -13 -22 -54 -50 -92 -40 -55 -57
-70 -82 -74 -18 -3 -265 -38 -548 -77 -604 -84 -609 -85 -652 -113 -18 -13
-78 -75 -133 -138 -130 -151 -299 -344 -570 -653 -121 -138 -305 -350 -410
-471 -191 -222 -383 -443 -646 -744 -421 -481 -410 -466 -410 -560 -1 -103 32
-145 240 -306 128 -99 191 -157 191 -173 0 -6 19 -22 43 -36 23 -14 56 -39 72
-57 17 -17 46 -41 65 -54 19 -12 59 -43 89 -69 30 -25 60 -46 66 -46 6 0 46
-28 87 -62 42 -35 117 -96 167 -137 50 -41 91 -78 91 -83 0 -4 5 -8 11 -8 13
0 70 -44 121 -93 50 -47 155 -130 185 -146 15 -7 36 -22 47 -33 12 -11 53 -44
93 -74 40 -29 80 -65 89 -79 9 -14 21 -22 27 -18 6 3 7 1 3 -5 -4 -6 6 -19 21
-29 15 -10 33 -22 40 -28 7 -5 19 -16 27 -22 8 -7 19 -13 24 -13 5 0 23 -17
40 -39 17 -21 55 -52 84 -69 74 -42 269 -211 316 -274 54 -72 698 -1149 1297
-2168 131 -223 338 -574 460 -780 122 -206 295 -501 385 -655 278 -478 297
-509 343 -554 35 -33 65 -50 123 -70 l78 -26 43 -74 c85 -144 132 -186 224
-200 116 -19 248 20 332 99 69 63 439 632 845 1300 l155 255 74 235 c88 277
391 1212 462 1421 l49 146 98 120 c55 66 290 349 524 628 585 700 717 859 925
1111 99 120 198 238 220 263 22 24 182 151 355 283 588 445 674 513 697 547
27 40 31 122 9 176 -14 33 -146 267 -404 717 -75 130 -141 234 -146 231 -5 -4
-6 -1 -2 5 11 19 -310 575 -326 566 -7 -4 -8 -2 -4 4 8 13 -39 99 -197 366
-91 155 -101 168 -113 151 -8 -11 -14 -13 -14 -6 0 7 -4 10 -9 7 -5 -3 -11 1
-14 9 -4 9 -1 12 8 9 10 -4 12 0 8 17 -5 16 -3 20 6 14 12 -7 -54 122 -86 170
-7 11 -13 40 -13 65 0 25 -9 146 -20 270 -61 706 -89 1036 -96 1125 -8 119
-24 168 -67 213 -37 39 -110 79 -164 90 l-38 8 -12 83 c-13 95 -41 146 -101
186 -21 14 -117 49 -213 79 -225 70 -729 226 -752 232 -10 3 -188 141 -395
307 -420 336 -465 371 -772 612 -118 93 -291 230 -385 304 -93 74 -188 145
-210 157 -52 28 -109 35 -167 20z m221 -591 c87 -69 164 -132 170 -139 9 -10
-8 -30 -76 -88 -125 -107 -330 -286 -464 -404 -480 -426 -463 -408 -580 -601
-83 -139 -228 -381 -499 -838 -105 -177 -149 -245 -159 -245 -5 0 -46 46 -92
103 -46 56 -106 129 -135 162 -52 60 -52 60 -37 90 38 73 579 961 715 1172 43
66 135 153 696 645 154 137 284 252 287 258 3 5 8 10 10 10 3 0 76 -56 164
-125z m-1406 -2577 c115 -152 144 -206 156 -293 17 -121 -15 -231 -108 -372
-134 -202 -166 -222 -428 -262 -103 -16 -260 -39 -348 -50 -88 -12 -245 -32
-350 -46 -104 -14 -211 -27 -237 -31 -44 -5 -53 -12 -115 -83 -38 -42 -158
-178 -268 -302 -110 -124 -239 -270 -286 -325 -182 -208 -320 -368 -495 -570
-100 -115 -270 -310 -379 -434 -109 -124 -234 -267 -279 -317 -44 -51 -85 -93
-91 -93 -5 0 -46 31 -91 68 -44 37 -115 95 -158 130 l-77 63 40 47 c21 26 102
117 178 203 224 252 712 810 948 1083 189 218 216 249 285 328 36 41 146 168
245 283 98 116 183 213 188 216 5 4 39 9 76 13 93 8 876 113 991 133 150 25
184 48 310 216 76 101 121 186 139 262 15 60 16 226 1 275 -25 84 -1 62 153
-142z"/>
</g>
</svg>
