<?xml version="1.0" standalone="no"?>
<!DOCTYPE svg PUBLIC "-//W3C//DTD SVG 20010904//EN"
 "http://www.w3.org/TR/2001/REC-SVG-20010904/DTD/svg10.dtd">
<svg version="1.0" xmlns="http://www.w3.org/2000/svg"
 width="2048.000000pt" height="2048.000000pt" viewBox="0 0 2048.000000 2048.000000"
 preserveAspectRatio="xMidYMid meet">
<metadata>
Created by potrace 1.16, written by Peter Selinger 2001-2019
</metadata>
<g transform="translate(0.000000,2048.000000) scale(0.100000,-0.100000)"
fill="#000000" stroke="none">
<path d="M14889 14290 c-114 -26 -212 -51 -218 -54 -15 -9 -14 -69 1 -84 17
-17 50 -15 167 9 56 11 107 19 113 17 16 -6 -293 -343 -926 -1013 -105 -110
-505 -535 -890 -945 -385 -410 -826 -878 -981 -1040 -155 -162 -373 -392 -486
-510 -367 -386 -679 -693 -769 -757 -244 -173 -585 -339 -1645 -798 -148 -64
-351 -152 -450 -195 -99 -43 -295 -128 -435 -188 -509 -220 -587 -254 -718
-317 -206 -99 -456 -255 -1102 -688 -906 -606 -1285 -864 -1960 -1335 -446
-312 -689 -476 -695 -470 -3 3 -4 1784 -3 3959 l3 3954 50 -95 c43 -82 54 -95
78 -98 33 -4 57 13 57 39 0 22 -185 382 -205 399 -8 6 -24 10 -37 8 -18 -2
-35 -26 -78 -108 -31 -58 -77 -145 -103 -194 -43 -80 -46 -91 -34 -110 17 -25
52 -32 73 -16 7 7 32 46 55 86 22 41 42 74 45 74 2 0 4 -1061 4 -2357 0 -5059
1 -5678 9 -5691 6 -11 1102 -13 6067 -12 3332 0 6146 -3 6252 -6 l193 -7 -68
-43 c-101 -63 -113 -73 -113 -97 0 -29 18 -47 47 -47 30 0 373 192 391 218 10
15 11 26 3 40 -13 25 -396 213 -417 205 -22 -8 -33 -44 -22 -69 5 -11 43 -37
85 -58 41 -20 73 -39 70 -42 -2 -3 -2495 -5 -5538 -4 -3044 0 -5787 0 -6096 0
-369 0 -563 3 -563 10 0 6 5 10 10 10 24 0 702 311 1585 727 99 47 328 153
510 235 181 82 447 204 590 270 342 158 701 318 839 373 155 61 718 241 1871
597 775 239 1134 364 1360 474 51 25 149 88 227 146 131 99 584 461 853 683
151 124 468 382 671 546 421 340 725 587 958 779 144 119 367 301 496 405 129
104 354 288 500 409 146 122 287 239 315 260 27 22 69 57 93 79 24 21 46 37
48 34 3 -3 -6 -57 -20 -120 -30 -134 -31 -150 -10 -171 21 -22 71 -21 82 2 20
37 105 449 98 476 -12 49 -36 52 -269 27 -116 -12 -224 -25 -240 -27 -30 -6
-44 -37 -32 -73 11 -36 34 -40 149 -30 161 15 163 14 85 -51 -331 -274 -542
-446 -694 -569 -203 -164 -658 -535 -805 -656 -173 -143 -391 -320 -595 -486
-110 -90 -234 -190 -275 -224 -41 -34 -185 -151 -320 -260 -135 -109 -272
-221 -305 -248 -63 -52 -162 -131 -415 -336 -85 -69 -202 -164 -260 -211 -169
-138 -290 -225 -367 -264 -171 -85 -461 -190 -963 -349 -511 -162 -1152 -362
-1300 -407 -217 -65 -760 -239 -894 -286 -129 -46 -333 -133 -631 -269 -88
-41 -353 -162 -590 -271 -236 -108 -506 -232 -600 -274 -93 -43 -242 -113
-330 -155 -88 -42 -227 -108 -310 -147 -313 -146 -494 -233 -615 -293 -135
-68 -211 -101 -195 -87 6 5 183 125 395 267 212 142 561 378 775 525 806 551
1594 1073 1885 1250 198 120 357 193 1480 675 1358 583 1683 737 1979 932 155
103 435 382 1257 1248 109 116 314 332 454 480 141 149 328 347 415 440 88 94
407 433 710 755 751 798 1146 1220 1232 1315 39 44 75 77 78 73 4 -4 2 -64 -4
-134 -10 -115 -10 -129 5 -146 31 -33 93 -14 94 30 1 9 9 113 19 231 11 125
16 224 11 236 -18 47 -39 45 -301 -15z"/>
</g>
</svg>
