<?xml version="1.0" standalone="no"?>
<!DOCTYPE svg PUBLIC "-//W3C//DTD SVG 20010904//EN"
 "http://www.w3.org/TR/2001/REC-SVG-20010904/DTD/svg10.dtd">
<svg version="1.0" xmlns="http://www.w3.org/2000/svg"
 width="2048.000000pt" height="2048.000000pt" viewBox="0 0 2048.000000 2048.000000"
 preserveAspectRatio="xMidYMid meet">
<metadata>
Created by potrace 1.16, written by Peter Selinger 2001-2019
</metadata>
<g transform="translate(0.000000,2048.000000) scale(0.100000,-0.100000)"
fill="#000000" stroke="none">
<path d="M10960 14763 c-166 -5 -598 -34 -815 -54 -981 -90 -1761 -272 -2235
-521 -265 -139 -428 -298 -480 -466 -19 -61 -20 -94 -20 -647 0 -369 4 -593
10 -610 8 -20 6 -40 -5 -78 -12 -41 -15 -115 -15 -374 0 -252 -3 -323 -12
-323 -52 0 -454 -35 -633 -56 -1340 -151 -2191 -439 -2451 -831 -19 -29 -45
-79 -57 -111 -22 -56 -22 -63 -22 -677 l0 -620 27 -57 27 -58 -27 -47 -27 -48
-3 -1174 c-3 -1283 -5 -1225 55 -1348 103 -209 458 -423 958 -578 372 -115
866 -216 1320 -270 629 -74 1141 -105 1755 -105 1737 0 3266 280 3850 704 151
109 280 294 280 401 0 22 5 24 63 29 34 3 139 8 232 11 1413 47 2639 298 3177
650 178 117 277 231 321 369 22 70 22 80 22 606 0 294 -1 549 -2 565 0 17 1
282 3 591 5 610 3 643 -50 761 -85 185 -325 374 -647 510 l-87 37 27 36 c38
47 76 123 95 191 17 57 22 286 20 959 0 157 0 566 0 910 l1 625 -23 65 c-50
138 -160 264 -332 379 -207 138 -573 280 -971 375 -611 147 -1402 246 -2194
276 -239 9 -904 11 -1135 3z m1370 -472 c1327 -76 2526 -353 2774 -642 63 -74
54 -124 -40 -207 -230 -206 -974 -405 -1884 -506 -500 -56 -852 -76 -1465 -83
-506 -6 -816 2 -1295 33 -983 62 -1832 226 -2255 434 -146 72 -224 132 -254
194 -30 60 -18 97 52 163 100 95 259 173 527 261 608 199 1482 325 2540 366
171 7 1120 -3 1300 -13z m-4365 -1212 c273 -141 799 -288 1320 -368 316 -49
763 -97 1160 -125 657 -47 1583 -45 2215 4 823 65 1482 170 1945 312 154 47
361 126 450 172 44 22 83 42 88 44 4 2 7 -133 7 -301 l0 -304 -47 -45 c-261
-242 -1096 -471 -2088 -572 -617 -63 -1030 -81 -1700 -73 -795 10 -1451 68
-2095 187 -614 113 -1098 284 -1288 455 l-52 47 0 305 c0 167 3 303 8 301 4
-2 39 -19 77 -39z m1 -1234 c43 -25 136 -68 207 -95 778 -304 2216 -474 3720
-440 725 17 1348 73 1946 176 481 82 912 205 1177 335 67 32 124 59 128 59 3
0 6 -136 6 -303 l0 -303 -47 -46 c-252 -247 -1099 -478 -2135 -582 -1008 -102
-2154 -93 -3116 24 -947 116 -1693 332 -1933 560 l-39 37 0 311 c0 172 1 312
3 312 2 0 39 -20 83 -45z m-540 -678 c34 -133 149 -272 314 -383 402 -267
1229 -484 2265 -593 327 -35 904 -71 1123 -71 60 0 92 -4 87 -9 -31 -30 -551
-133 -930 -185 -818 -112 -2045 -152 -2915 -96 -1041 67 -1900 220 -2344 416
-125 56 -255 141 -289 192 -97 139 73 276 543 437 157 53 513 143 715 180 401
73 1201 167 1374 162 45 -2 45 -2 57 -50z m7629 -581 c187 -50 415 -136 515
-193 131 -75 210 -158 210 -221 0 -140 -329 -309 -860 -442 -563 -141 -1460
-250 -2195 -267 l-270 -6 -1 341 -1 342 26 0 c14 0 116 7 226 15 823 63 1650
222 2126 409 62 24 119 45 124 45 6 1 51 -10 100 -23z m-3075 -814 l0 -308
-32 -31 c-109 -101 -364 -224 -643 -308 -505 -153 -1117 -253 -1930 -317 -253
-20 -352 -22 -1020 -23 -850 0 -1056 9 -1650 76 -709 79 -1360 231 -1710 399
-118 57 -215 118 -267 168 l-38 36 0 304 c0 167 3 302 8 300 4 -2 34 -17 67
-34 101 -53 339 -143 498 -189 578 -165 1406 -281 2333 -326 280 -13 1361 -7
1629 10 1173 74 2043 229 2565 460 52 23 113 52 135 65 22 13 43 25 48 25 4 1
7 -138 7 -307z m3810 -351 l0 -299 -25 -30 c-80 -95 -390 -252 -650 -330 -122
-36 -424 -110 -605 -147 -541 -111 -1237 -182 -1855 -188 l-200 -2 -5 345 c-3
190 -8 350 -12 356 -10 16 36 24 133 24 126 0 634 29 889 50 894 76 1655 230
2125 429 66 28 134 60 150 70 57 37 55 46 55 -278z m0 -1111 l0 -299 -32 -37
c-145 -165 -596 -335 -1233 -463 -539 -109 -1090 -166 -1912 -196 l-163 -7 -1
296 c0 163 0 326 -1 364 l0 67 173 7 c695 27 1102 61 1609 134 597 85 1199
250 1505 412 22 12 43 21 48 22 4 0 7 -135 7 -300z m-11018 241 c292 -157 769
-290 1423 -396 1070 -174 2574 -202 3755 -70 845 95 1457 234 1875 426 72 33
136 63 143 66 9 4 12 -61 12 -305 l0 -310 -35 -30 c-312 -275 -1171 -503
-2265 -601 -339 -31 -481 -39 -875 -52 -955 -30 -2012 40 -2758 182 -637 121
-1107 288 -1302 462 l-55 49 0 309 c0 170 2 309 4 309 3 0 37 -18 78 -39z
m166 -1182 c531 -223 1339 -366 2492 -441 266 -18 1519 -18 1810 0 683 41
1283 118 1780 228 367 81 599 156 829 265 68 32 125 59 127 59 2 0 4 -136 4
-303 l0 -303 -37 -36 c-220 -211 -824 -405 -1658 -532 -1222 -186 -2892 -176
-4080 25 -689 117 -1250 307 -1468 499 l-47 42 0 308 0 309 85 -44 c47 -24
120 -58 163 -76z"/>
</g>
</svg>
