<?xml version="1.0" standalone="no"?>
<!DOCTYPE svg PUBLIC "-//W3C//DTD SVG 20010904//EN"
 "http://www.w3.org/TR/2001/REC-SVG-20010904/DTD/svg10.dtd">
<svg version="1.0" xmlns="http://www.w3.org/2000/svg"
 width="2048.000000pt" height="2048.000000pt" viewBox="0 0 2048.000000 2048.000000"
 preserveAspectRatio="xMidYMid meet">
<metadata>
Created by potrace 1.16, written by Peter Selinger 2001-2019
</metadata>
<g transform="translate(0.000000,2048.000000) scale(0.100000,-0.100000)"
fill="#000000" stroke="none">
<path d="M4506 15059 c-388 -57 -702 -323 -819 -694 -45 -144 -47 -187 -47
-1121 l0 -884 250 0 250 0 0 863 c0 529 4 887 10 927 16 100 77 216 151 284
71 66 134 100 221 121 220 52 446 -51 550 -250 44 -85 58 -149 58 -261 l0 -85
-49 -49 c-91 -91 -153 -221 -170 -359 -8 -59 4 -397 15 -429 2 -8 12 -11 21
-8 10 3 91 13 181 21 89 9 294 31 455 51 160 19 318 37 350 41 31 3 57 7 57 8
0 35 -44 316 -56 355 -42 142 -157 306 -248 355 l-33 18 -8 116 c-19 322 -168
604 -417 792 -94 70 -143 96 -258 137 -154 54 -318 72 -464 51z"/>
<path d="M2782 12044 c-179 -48 -324 -190 -383 -374 -29 -90 -29 -230 0 -320
47 -147 159 -279 295 -345 81 -40 149 -55 247 -55 l67 0 30 -54 c47 -88 152
-323 203 -456 122 -320 206 -653 329 -1300 79 -414 150 -635 299 -925 195
-380 345 -575 712 -925 366 -349 496 -448 835 -635 76 -42 144 -82 151 -88 9
-9 3 -54 -27 -197 -21 -102 -45 -220 -54 -262 -43 -208 4 -381 138 -505 96
-89 230 -143 356 -143 170 0 321 83 419 230 21 30 95 160 166 289 l129 234 70
-6 c39 -4 168 -15 286 -26 381 -36 1387 -98 2070 -128 568 -25 1974 -25 2495
0 697 33 1407 75 2076 123 l86 6 118 -209 c65 -114 129 -228 143 -253 108
-189 340 -294 545 -246 237 56 399 251 399 481 0 48 -15 160 -37 279 -20 109
-35 206 -33 214 2 9 54 34 129 62 271 102 462 201 709 366 162 108 294 219
455 385 238 244 408 488 565 813 140 287 209 509 295 946 132 664 256 1074
469 1548 25 56 46 104 46 107 0 3 -58 5 -130 5 -71 0 -130 3 -130 7 0 4 27 64
61 133 l61 127 99 6 c158 10 280 62 387 166 144 140 202 373 137 554 -64 184
-204 322 -373 368 -65 18 -288 19 -7462 18 -6367 0 -7402 -2 -7448 -15z
m13679 -1151 c-15 -38 -40 -101 -55 -140 l-28 -73 -6099 0 c-3354 0 -6099 -2
-6099 -4 0 -2 18 -52 40 -111 151 -406 259 -820 360 -1375 93 -514 174 -748
345 -1005 75 -112 55 -102 -40 20 -162 209 -282 433 -363 675 -61 184 -90 303
-132 545 -44 252 -83 439 -142 670 -58 231 -182 617 -240 749 -22 50 -42 97
-45 104 -4 9 1252 12 6260 12 l6266 0 -28 -67z"/>
</g>
</svg>
