<?xml version="1.0" standalone="no"?>
<!DOCTYPE svg PUBLIC "-//W3C//DTD SVG 20010904//EN"
 "http://www.w3.org/TR/2001/REC-SVG-20010904/DTD/svg10.dtd">
<svg version="1.0" xmlns="http://www.w3.org/2000/svg"
 width="2048.000000pt" height="2048.000000pt" viewBox="0 0 2048.000000 2048.000000"
 preserveAspectRatio="xMidYMid meet">
<metadata>
Created by potrace 1.16, written by Peter Selinger 2001-2019
</metadata>
<g transform="translate(0.000000,2048.000000) scale(0.100000,-0.100000)"
fill="#000000" stroke="none">
<path d="M12441 15429 c-36 -14 -17 3 -1636 -1484 -613 -563 -1187 -1088
-1341 -1226 -40 -35 -194 -174 -343 -308 l-271 -244 0 -2062 0 -2062 351 -294
c194 -162 506 -422 694 -579 188 -157 456 -383 596 -501 140 -118 443 -375
674 -570 231 -195 599 -507 819 -692 219 -186 409 -345 422 -354 32 -20 119
-20 170 2 54 22 92 61 120 120 l24 50 0 5015 0 5015 -24 51 c-47 100 -167 158
-255 123z"/>
<path d="M6445 12126 c-86 -28 -106 -38 -171 -87 -81 -62 -150 -174 -174 -279
-6 -29 -10 -634 -10 -1665 0 -1767 -3 -1670 56 -1788 35 -68 135 -165 206
-199 122 -60 85 -58 1135 -58 l963 0 0 2050 0 2050 -967 0 -968 -1 -70 -23z"/>
<path d="M13120 10076 l0 -1684 58 18 c374 116 728 395 941 743 161 264 245
540 258 852 7 160 -6 295 -43 465 -110 499 -469 957 -929 1188 -81 40 -245
102 -271 102 -12 0 -14 -236 -14 -1684z"/>
</g>
</svg>
