<?xml version="1.0" standalone="no"?>
<!DOCTYPE svg PUBLIC "-//W3C//DTD SVG 20010904//EN"
 "http://www.w3.org/TR/2001/REC-SVG-20010904/DTD/svg10.dtd">
<svg version="1.0" xmlns="http://www.w3.org/2000/svg"
 width="2048.000000pt" height="2048.000000pt" viewBox="0 0 2048.000000 2048.000000"
 preserveAspectRatio="xMidYMid meet">
<metadata>
Created by potrace 1.16, written by Peter Selinger 2001-2019
</metadata>
<g transform="translate(0.000000,2048.000000) scale(0.100000,-0.100000)"
fill="#000000" stroke="none">
<path d="M10165 15665 c-22 -8 -137 -65 -255 -128 -118 -62 -411 -216 -650
-342 -239 -125 -500 -262 -580 -305 -80 -42 -217 -114 -305 -160 -88 -46 -313
-164 -500 -262 -187 -99 -360 -190 -385 -203 -111 -57 -692 -362 -960 -503
-556 -291 -925 -485 -1180 -617 -247 -128 -585 -305 -1315 -685 -654 -340
-750 -393 -787 -428 -58 -55 -83 -121 -83 -222 0 -73 4 -92 27 -136 57 -108
164 -174 283 -174 71 0 91 8 330 136 116 62 218 116 228 119 16 7 17 -163 17
-3479 l0 -3486 1302 2 1303 3 5 30 5 29 3435 1 c1889 0 3499 -1 3577 -3 l142
-3 3 -27 3 -27 1298 -3 1297 -2 2 282 c1 156 2 1722 3 3480 0 1758 3 3200 7
3203 4 4 107 -47 230 -113 123 -66 243 -126 268 -132 58 -16 147 -6 206 22 60
28 107 75 141 141 24 45 28 63 28 142 0 149 -44 213 -212 305 -142 77 -1012
533 -2083 1090 -261 136 -565 294 -675 352 -110 58 -308 162 -440 231 -523
273 -893 466 -1160 607 -154 81 -419 221 -590 310 -706 371 -880 462 -1085
572 -442 236 -719 379 -751 388 -46 14 -97 12 -144 -5z"/>
</g>
</svg>
