<?xml version="1.0" standalone="no"?>
<!DOCTYPE svg PUBLIC "-//W3C//DTD SVG 20010904//EN"
 "http://www.w3.org/TR/2001/REC-SVG-20010904/DTD/svg10.dtd">
<svg version="1.0" xmlns="http://www.w3.org/2000/svg"
 width="2048.000000pt" height="2048.000000pt" viewBox="0 0 2048.000000 2048.000000"
 preserveAspectRatio="xMidYMid meet">
<metadata>
Created by potrace 1.16, written by Peter Selinger 2001-2019
</metadata>
<g transform="translate(0.000000,2048.000000) scale(0.100000,-0.100000)"
fill="#000000" stroke="none">
<path d="M10133 15955 c-121 -34 -130 -41 -458 -344 -104 -97 -237 -219 -295
-271 -58 -52 -170 -156 -250 -230 -160 -150 -654 -604 -930 -855 -174 -158
-381 -347 -635 -580 -72 -66 -205 -187 -295 -270 -90 -82 -257 -235 -370 -340
-113 -104 -246 -226 -295 -270 -125 -112 -657 -596 -735 -669 -76 -70 -88 -82
-395 -360 -126 -115 -264 -241 -305 -280 -163 -153 -527 -490 -612 -565 -58
-52 -78 -87 -78 -139 0 -41 25 -83 60 -102 12 -6 1991 -10 5699 -11 5189 -1
5684 0 5706 15 13 9 29 25 35 37 13 23 16 86 6 117 -7 21 -205 207 -770 727
-317 291 -480 441 -785 724 -140 130 -313 289 -385 355 -253 229 -442 402
-581 531 -146 137 -383 353 -590 540 -265 240 -687 626 -820 750 -77 71 -268
247 -425 390 -156 143 -386 355 -510 470 -384 357 -563 520 -612 557 -92 71
-265 104 -375 73z m287 -2126 c61 -26 55 -23 875 -514 314 -188 656 -392 760
-454 105 -63 316 -189 470 -281 154 -91 426 -254 605 -360 733 -437 2156
-1292 2165 -1302 7 -7 7 -9 0 -6 -5 3 -494 247 -1085 541 -591 295 -1268 636
-1505 757 -236 122 -551 284 -700 360 -148 76 -468 240 -710 365 -242 125
-530 274 -640 331 -222 114 -282 134 -415 134 -148 0 -176 -12 -879 -374 -355
-183 -808 -415 -1006 -516 -198 -101 -556 -283 -795 -405 -795 -406 -2340
-1175 -2359 -1175 -8 0 14 14 279 170 124 74 401 239 615 368 914 550 1566
940 2100 1258 314 186 651 386 750 445 328 195 688 411 867 521 255 156 290
169 448 164 83 -3 117 -9 160 -27z"/>
<path d="M5410 7768 c0 -1722 3 -2571 10 -2622 43 -302 244 -530 546 -618 l79
-22 1627 -3 1628 -3 2 1457 3 1458 36 65 c38 71 100 121 169 140 25 7 281 9
742 8 l703 -3 46 -23 c59 -29 111 -81 141 -141 l23 -46 3 -1458 2 -1457 1633
2 1632 3 80 23 c252 73 428 241 513 487 l27 80 3 2611 2 2612 -4825 -2 -4825
-1 0 -2547z m7530 1287 l0 -375 -380 0 -380 0 0 375 0 375 380 0 380 0 0 -375z
m1018 3 l-3 -373 -382 -3 -383 -2 0 375 0 375 385 0 385 0 -2 -372z m-1018
-1003 l0 -375 -380 0 -380 0 0 375 0 375 380 0 380 0 0 -375z m1018 3 l-3
-373 -382 -3 -383 -2 0 375 0 375 385 0 385 0 -2 -372z"/>
</g>
</svg>
