<?xml version="1.0" standalone="no"?>
<!DOCTYPE svg PUBLIC "-//W3C//DTD SVG 20010904//EN"
 "http://www.w3.org/TR/2001/REC-SVG-20010904/DTD/svg10.dtd">
<svg version="1.0" xmlns="http://www.w3.org/2000/svg"
 width="2048.000000pt" height="2048.000000pt" viewBox="0 0 2048.000000 2048.000000"
 preserveAspectRatio="xMidYMid meet">
<metadata>
Created by potrace 1.16, written by Peter Selinger 2001-2019
</metadata>
<g transform="translate(0.000000,2048.000000) scale(0.100000,-0.100000)"
fill="#000000" stroke="none">
<path d="M8955 14729 c-756 -70 -1407 -354 -1974 -862 -284 -254 -522 -556
-705 -893 -195 -359 -326 -786 -377 -1224 -14 -120 -18 -491 -6 -627 l8 -93
-73 0 c-101 0 -298 -24 -453 -55 -603 -122 -1174 -487 -1565 -1000 -213 -280
-387 -658 -464 -1005 -44 -198 -58 -337 -58 -570 0 -230 13 -360 58 -577 142
-695 600 -1323 1245 -1708 346 -206 734 -331 1138 -365 88 -8 1472 -10 4631
-8 4943 4 4537 -1 4840 59 343 68 762 275 1055 522 437 368 736 849 865 1392
87 365 92 777 14 1147 -174 825 -735 1513 -1507 1849 l-112 48 -2 53 c-28 609
-194 1047 -552 1453 -224 254 -565 478 -889 585 -220 72 -420 102 -677 102
-327 -1 -624 -66 -909 -201 -60 -28 -112 -51 -116 -51 -4 0 -20 28 -35 63 -47
106 -164 316 -243 437 -482 737 -1254 1272 -2109 1459 -232 51 -420 71 -688
76 -132 2 -285 -1 -340 -6z"/>
</g>
</svg>
