<?xml version="1.0" standalone="no"?>
<!DOCTYPE svg PUBLIC "-//W3C//DTD SVG 20010904//EN"
 "http://www.w3.org/TR/2001/REC-SVG-20010904/DTD/svg10.dtd">
<svg version="1.0" xmlns="http://www.w3.org/2000/svg"
 width="2048.000000pt" height="2048.000000pt" viewBox="0 0 2048.000000 2048.000000"
 preserveAspectRatio="xMidYMid meet">
<metadata>
Created by potrace 1.16, written by Peter Selinger 2001-2019
</metadata>
<g transform="translate(0.000000,2048.000000) scale(0.100000,-0.100000)"
fill="#000000" stroke="none">
<path d="M9975 14985 c-451 -47 -848 -169 -1201 -368 -254 -143 -477 -311
-690 -522 -488 -483 -771 -1046 -881 -1755 -26 -165 -25 -602 0 -785 89 -626
286 -1080 747 -1725 403 -564 568 -867 690 -1272 68 -227 92 -348 115 -601 5
-52 13 -74 32 -98 54 -63 -49 -59 1448 -59 1333 0 1367 0 1404 19 62 32 72 57
91 230 29 253 67 412 156 659 120 332 269 596 576 1027 268 376 365 529 487
772 490 971 460 2077 -83 2991 -349 588 -938 1078 -1576 1310 -407 149 -926
219 -1315 177z m595 -311 c428 -56 845 -214 1205 -458 645 -436 1051 -1074
1187 -1863 19 -110 22 -167 22 -408 1 -312 -8 -396 -70 -655 -106 -443 -280
-792 -654 -1310 -293 -406 -465 -697 -605 -1025 -100 -234 -177 -502 -212
-731 l-17 -114 -1185 -2 c-652 -2 -1187 -2 -1189 -2 -2 1 -10 45 -18 99 -46
307 -131 580 -284 907 -122 262 -240 453 -529 858 -308 431 -467 719 -585
1059 -173 496 -198 1068 -71 1569 232 916 922 1657 1817 1952 402 133 802 174
1188 124z"/>
<path d="M9768 14180 c-258 -54 -535 -170 -767 -320 -392 -254 -733 -682 -886
-1110 -67 -190 -137 -540 -119 -597 19 -60 31 -76 69 -98 54 -32 111 -33 155
-2 56 37 71 67 81 157 21 184 87 423 164 585 262 560 791 974 1399 1095 92 19
104 24 137 59 95 99 28 253 -108 250 -21 0 -77 -9 -125 -19z"/>
<path d="M8873 7490 c-65 -39 -63 -16 -63 -687 0 -669 -1 -659 62 -790 42 -87
166 -215 255 -261 71 -37 196 -72 260 -72 38 0 45 -3 54 -27 6 -16 32 -71 57
-123 72 -151 196 -263 362 -326 74 -28 80 -28 317 -32 148 -2 271 1 315 8 236
36 438 202 533 437 l24 58 65 7 c263 26 465 192 543 444 17 55 18 100 15 674
-3 596 -4 616 -24 648 -41 66 58 62 -1410 62 -1304 0 -1334 0 -1365 -20z
m1837 -1822 c0 -7 -28 -40 -63 -74 -43 -42 -82 -69 -122 -85 -57 -23 -70 -24
-295 -24 l-235 0 -59 29 c-61 30 -127 90 -152 138 l-15 28 471 0 c360 0 470
-3 470 -12z"/>
</g>
</svg>
