<?xml version="1.0" standalone="no"?>
<!DOCTYPE svg PUBLIC "-//W3C//DTD SVG 20010904//EN"
 "http://www.w3.org/TR/2001/REC-SVG-20010904/DTD/svg10.dtd">
<svg version="1.0" xmlns="http://www.w3.org/2000/svg"
 width="2048.000000pt" height="2048.000000pt" viewBox="0 0 2048.000000 2048.000000"
 preserveAspectRatio="xMidYMid meet">
<metadata>
Created by potrace 1.16, written by Peter Selinger 2001-2019
</metadata>
<g transform="translate(0.000000,2048.000000) scale(0.100000,-0.100000)"
fill="#000000" stroke="none">
<path d="M2670 10080 l0 -3820 590 0 590 0 0 725 0 725 6466 0 6466 0 -2 -412
c-1 -227 -2 -554 -1 -725 l1 -313 510 0 510 0 0 2335 0 2335 -510 0 -510 0 0
-670 0 -670 -6465 0 -6465 0 0 2155 0 2155 -590 0 -590 0 0 -3820z"/>
<path d="M4629 12590 c-211 -33 -414 -199 -522 -428 -30 -63 -32 -74 -32 -177
0 -90 4 -123 24 -180 74 -216 263 -485 529 -753 238 -239 488 -424 745 -552
319 -159 507 -180 701 -77 65 34 181 143 231 216 29 42 29 43 10 57 -154 112
-275 234 -335 339 -108 189 -113 412 -12 585 14 25 48 68 75 97 l49 52 -20 28
c-38 52 -267 270 -372 353 -393 312 -806 482 -1071 440z"/>
<path d="M6519 11790 c-183 -18 -288 -88 -373 -249 -96 -184 -89 -311 27 -474
191 -267 716 -553 1206 -658 137 -29 375 -37 459 -15 154 39 270 168 317 351
34 132 12 232 -78 357 -281 392 -1059 736 -1558 688z"/>
<path d="M8750 10418 l0 -611 1058 6 c581 4 2318 7 3860 7 l2802 0 0 98 c0
440 -179 783 -510 978 -69 41 -186 85 -305 115 -40 11 -733 14 -3477 16
l-3428 3 0 -612z"/>
<path d="M4120 10025 l0 -225 2210 0 2210 0 0 225 0 225 -2210 0 -2210 0 0
-225z"/>
</g>
</svg>
