<?xml version="1.0" standalone="no"?>
<!DOCTYPE svg PUBLIC "-//W3C//DTD SVG 20010904//EN"
 "http://www.w3.org/TR/2001/REC-SVG-20010904/DTD/svg10.dtd">
<svg version="1.0" xmlns="http://www.w3.org/2000/svg"
 width="2048.000000pt" height="2048.000000pt" viewBox="0 0 2048.000000 2048.000000"
 preserveAspectRatio="xMidYMid meet">
<metadata>
Created by potrace 1.16, written by Peter Selinger 2001-2019
</metadata>
<g transform="translate(0.000000,2048.000000) scale(0.100000,-0.100000)"
fill="#000000" stroke="none">
<path d="M8677 17943 c-4 -3 -7 -424 -7 -934 l0 -927 -72 -22 c-40 -11 -81
-23 -90 -26 -17 -5 -18 17 -18 360 0 359 0 366 -20 366 -19 0 -20 -7 -20 -135
l0 -135 -25 0 -25 0 0 -244 0 -245 -82 -25 c-46 -13 -109 -32 -140 -41 l-57
-16 -3 -117 -3 -116 -114 -28 c-62 -15 -116 -30 -120 -34 -3 -3 -6 -209 -6
-457 l-1 -451 -79 -16 c-44 -10 -97 -20 -117 -24 -37 -7 -37 -7 -40 -59 l-3
-52 -95 -19 c-52 -11 -97 -21 -100 -23 -3 -3 -7 -464 -10 -1026 l-5 -1022 -70
-7 c-38 -4 -89 -10 -112 -13 l-43 -6 -1 -1807 c-1 -1675 -7 -2333 -19 -2345
-6 -6 -442 -48 -447 -43 -2 2 -7 412 -11 911 l-7 908 -95 41 -95 42 -3 140 -3
139 -177 115 c-97 63 -312 203 -477 310 -165 108 -393 256 -506 328 l-206 132
-91 -6 -92 -7 -2 -174 -3 -175 -238 152 -237 152 -95 -7 -95 -7 -1 -532 c-1
-292 -3 -592 -5 -666 -2 -74 -4 -167 -4 -207 l0 -72 -81 46 -80 45 -147 -32
c-126 -27 -985 -221 -1049 -237 -23 -5 -23 -8 -23 -164 l0 -159 -84 0 c-46 0
-98 -3 -115 -6 l-31 -6 0 -293 0 -293 37 -7 c21 -4 341 -6 713 -5 371 1 683 1
693 1 10 -1 17 -9 17 -21 0 -19 -7 -20 -203 -20 -112 0 -441 -3 -730 -7 l-527
-6 0 -104 c0 -103 0 -104 26 -114 17 -6 274 -9 703 -9 372 0 688 0 704 0 19 0
27 -5 27 -18 0 -18 -18 -19 -302 -25 -166 -4 -494 -7 -730 -7 l-428 0 0 -96
c0 -151 -94 -134 736 -134 l715 0 -3 -23 -3 -22 -724 -5 -724 -5 2 -100 c1
-55 5 -102 7 -105 13 -13 305 -18 852 -14 l592 3 0 -23 c0 -22 -5 -24 -65 -31
-36 -3 -273 -6 -527 -5 -255 1 -552 2 -660 1 l-198 -1 0 -104 c0 -99 1 -104
23 -110 12 -3 341 -6 730 -6 l708 0 -3 -22 -3 -23 -727 -3 -728 -2 0 -103 0
-102 31 -14 c25 -11 157 -13 727 -10 l697 4 3 -21 c3 -20 -1 -21 -239 -27
-133 -4 -462 -7 -731 -7 l-488 0 0 -109 c0 -90 3 -110 16 -115 9 -3 335 -6
725 -6 l709 0 0 -25 0 -25 -727 -2 -728 -3 4 -99 c2 -74 7 -104 19 -115 14
-14 92 -16 724 -15 l708 2 0 -29 0 -29 -725 0 -725 0 0 -109 c0 -104 1 -109
23 -115 12 -3 340 -6 730 -6 l707 0 0 -25 0 -25 -692 -1 c-381 0 -711 -3 -733
-7 l-40 -7 4 -94 c5 -150 -83 -135 752 -126 l711 7 -7 -24 c-4 -12 -8 -24 -10
-26 -1 -1 -310 -2 -686 -3 -376 0 -701 -3 -721 -6 l-38 -6 0 -100 c0 -83 3
-102 18 -113 14 -11 152 -13 725 -14 686 0 707 -1 707 -19 0 -11 -9 -21 -22
-25 -13 -3 -339 -6 -725 -6 l-703 0 0 -110 0 -110 723 -2 722 -3 0 -25 0 -25
-729 -3 -728 -2 4 -95 c2 -52 7 -98 12 -102 4 -4 331 -9 727 -11 461 -1 719
-6 719 -12 0 -6 -157 -10 -432 -10 -238 0 -565 -3 -726 -7 l-292 -6 0 -103 0
-103 34 -6 c18 -4 281 -8 582 -9 902 -5 834 -3 834 -26 0 -20 -8 -20 -727 -22
l-728 -3 4 -90 c2 -49 7 -91 12 -93 5 -2 9 -12 9 -23 0 -18 19 -19 712 -21
689 -3 713 -4 716 -22 2 -10 -2 -23 -10 -28 -7 -5 -281 -8 -643 -7 -346 1
-669 1 -717 0 l-88 -1 0 -34 c0 -79 13 -156 26 -156 8 0 14 -7 14 -15 0 -13
86 -15 715 -15 l715 0 0 -25 0 -25 -732 -2 -733 -3 1 -91 c2 -149 -83 -134
754 -134 733 0 726 0 702 -37 -6 -10 -168 -13 -733 -15 l-724 -3 4 -110 c2
-60 5 -112 8 -115 3 -3 328 -3 724 -1 l719 4 0 -27 0 -26 -132 -1 c-73 0 -378
0 -678 0 -300 1 -568 -1 -596 -5 l-51 -6 5 -96 c3 -59 10 -101 18 -109 10 -10
159 -13 724 -13 l711 0 -3 -27 -3 -28 -728 -3 -728 -2 7 -97 c4 -57 12 -103
20 -110 10 -10 162 -13 729 -13 l716 0 -3 -22 -3 -23 -730 -5 c-401 -3 -731
-6 -732 -8 -2 -1 -3 -44 -3 -95 0 -81 3 -95 21 -110 19 -17 66 -18 730 -17
l709 0 0 -25 0 -25 -352 -1 c-194 -1 -522 -2 -728 -3 l-375 -1 -3 -79 c-2 -44
1 -82 5 -85 4 -3 7 -90 5 -193 l-3 -188 -317 0 c-340 0 -395 -4 -390 -27 3
-12 1118 -15 8237 -19 4529 -3 8249 -3 8268 1 25 4 33 11 31 23 -3 15 -29 17
-271 20 l-267 2 -2 2627 -3 2628 -145 41 -145 42 -5 162 -5 162 -155 70 c-183
82 -671 300 -818 365 -91 40 -109 45 -157 41 l-55 -5 0 1783 0 1782 -152 37
c-129 31 -416 95 -426 95 -2 0 -3 51 -2 113 1 61 1 245 1 408 l-1 296 -160 43
-160 43 -2 116 c0 64 0 124 0 135 1 11 -31 53 -78 103 l-80 84 0 329 c0 310
-1 330 -19 339 -17 10 -19 34 -25 378 -8 453 -12 503 -37 503 -15 0 -19 -8
-19 -37 -1 -21 -5 -216 -10 -433 -8 -384 -9 -395 -29 -409 -21 -13 -21 -21
-21 -342 l0 -328 -80 -72 -80 -73 0 -147 c0 -132 -2 -148 -17 -153 -10 -2 -67
-16 -128 -31 -60 -14 -127 -30 -147 -36 l-38 -10 0 -398 0 -398 -222 -36
c-123 -21 -233 -40 -245 -43 l-23 -6 0 1813 0 1814 -53 35 c-184 121 -1322
860 -1370 889 l-37 23 -89 -69 c-49 -37 -265 -205 -481 -373 -216 -168 -526
-409 -689 -535 l-296 -230 -3 -708 c-1 -389 -4 -707 -6 -707 -1 0 -75 34 -162
75 l-159 75 -3 533 -2 533 -33 9 -32 10 -6 538 c-3 295 -9 540 -13 544 -22 22
-27 -49 -33 -545 l-6 -532 -39 -12 -38 -11 0 -533 0 -532 -27 -6 c-16 -3 -59
-10 -98 -16 -38 -6 -80 -13 -92 -16 l-23 -4 0 514 0 514 -33 11 -33 11 -10
550 c-6 302 -13 553 -17 556 -23 23 -27 -49 -34 -555 l-8 -544 -35 -12 -35
-12 0 -533 0 -533 -270 -43 c-148 -24 -276 -43 -283 -44 -10 0 -13 20 -11 82
l2 83 -61 27 -62 28 0 60 c0 33 -4 60 -10 60 -5 0 -41 14 -80 31 l-70 32 0
447 0 448 -55 22 c-31 12 -59 28 -63 36 -4 7 -33 24 -65 38 l-57 26 0 130 0
131 -109 50 -108 51 -5 240 c-4 190 -8 242 -19 249 -8 5 -18 7 -24 6 -6 -2
-12 -94 -15 -234 l-5 -231 -32 13 -33 14 0 465 0 466 -38 19 -39 20 -6 197
c-4 108 -7 315 -7 460 0 230 -2 263 -16 268 -21 8 -59 8 -67 -1z m4124 -2893
c1 -943 1 -2268 0 -2945 l-1 -1230 -148 -88 c-81 -48 -205 -123 -275 -167 -71
-44 -131 -80 -133 -80 -2 0 -5 383 -6 852 l-3 852 -75 27 -75 27 -3 75 -3 74
-99 34 -100 34 -2 418 -3 419 -167 71 -168 70 -2 299 -3 299 -117 52 -118 52
0 706 0 707 288 223 c518 402 1096 852 1151 896 29 24 55 42 57 41 1 -2 3
-775 5 -1718z m268 1580 c152 -98 733 -476 1044 -679 l127 -84 0 -144 c0 -134
-1 -143 -17 -134 -30 15 -324 151 -329 151 -2 0 -4 -1058 -4 -2350 l0 -2350
-40 27 -41 26 2 2340 c0 1286 -3 2342 -7 2347 -20 17 -407 191 -413 185 -3 -4
-7 -1071 -9 -2371 l-3 -2365 -32 -19 -32 -20 -5 2411 -5 2412 -176 82 -176 82
-6 -156 c-4 -86 -7 -1259 -7 -2606 l0 -2450 -22 -14 c-13 -8 -33 -21 -45 -29
l-23 -14 0 2932 0 2932 27 -17 c15 -10 101 -66 192 -125z m-4349 -685 l0 -104
-37 -10 c-137 -36 -487 -121 -499 -121 -11 0 -14 18 -14 89 l0 89 33 11 c17 5
120 35 227 66 107 31 213 63 235 70 22 7 43 14 48 14 4 1 7 -46 7 -104z m83
-242 c4 -58 7 -271 7 -474 l0 -367 -50 16 -50 16 0 334 0 334 -37 -6 c-80 -15
-73 22 -73 -357 0 -187 -4 -339 -9 -339 -5 0 -23 -3 -40 -6 l-31 -6 0 337 0
337 -26 -6 c-15 -4 -39 -9 -54 -12 -26 -6 -28 -10 -34 -70 -4 -35 -6 -186 -6
-335 1 -149 0 -272 -2 -274 -2 -1 -20 -5 -40 -9 l-38 -7 0 331 c0 225 -3 330
-11 330 -5 0 -30 -5 -55 -11 l-44 -11 0 -334 c0 -311 -1 -334 -17 -334 -10 0
-28 -3 -40 -6 l-23 -6 0 332 0 332 -26 -6 c-15 -4 -39 -10 -55 -13 l-29 -5 0
-334 c0 -320 -1 -334 -19 -334 -10 0 -33 -3 -50 -6 l-31 -6 0 436 c0 408 1
436 18 436 9 1 204 47 432 105 228 57 418 104 421 104 3 1 9 -47 12 -106z
m437 -159 c145 -69 155 -76 158 -104 2 -17 -1 -30 -6 -30 -5 0 -99 42 -208 93
-110 51 -225 104 -256 117 -56 23 -58 25 -58 61 l0 38 108 -51 c59 -27 177
-83 262 -124z m1580 -644 l0 -510 -22 0 -23 0 -4 501 c-3 415 -1 503 10 510
39 25 39 27 39 -501z m-440 -69 l0 -509 -25 -4 -25 -5 0 508 c0 396 3 508 13
512 38 16 37 23 37 -502z m-1647 -75 c41 -7 169 -61 572 -243 402 -182 365
-162 365 -199 l0 -33 -42 18 c-24 10 -115 51 -203 91 -88 40 -189 85 -225 100
-36 15 -139 60 -228 99 -90 39 -168 71 -174 71 -6 0 -9 -343 -7 -1000 2 -549
1 -1002 -2 -1005 -3 -2 -27 -8 -52 -11 l-47 -7 0 997 0 996 -22 0 c-13 0 -40
-5 -60 -11 l-38 -10 0 -994 0 -995 -30 -1 c-16 -1 -35 -2 -40 -3 -7 -1 -10
321 -10 986 l0 988 -32 -7 c-18 -3 -44 -9 -58 -13 l-25 -6 -5 -985 -5 -984
-42 -3 -42 -3 2 970 c1 533 -1 972 -5 976 -4 4 -30 2 -57 -5 l-51 -12 0 -974
c0 -820 -2 -974 -14 -974 -7 0 -28 -3 -45 -6 l-31 -6 0 971 c0 676 -3 971 -11
971 -5 0 -30 -5 -55 -11 l-44 -11 -2 -967 -3 -966 -42 -3 -43 -3 0 961 c0 875
-1 962 -16 956 -9 -3 -33 -9 -55 -12 l-39 -7 0 -958 0 -959 -29 0 c-16 0 -36
-3 -45 -6 -15 -6 -16 82 -16 946 l0 952 -37 -6 c-80 -14 -73 7 -74 -239 0
-122 -2 -294 -4 -382 -3 -88 -4 -415 -5 -727 l0 -568 -40 0 -40 0 0 995 c0
787 3 997 13 1000 6 3 53 13 102 24 l90 18 0 53 0 53 485 98 c267 54 492 99
500 101 11 2 16 -7 18 -33 3 -35 5 -37 45 -43z m2124 -739 c-4 -176 -9 -322
-11 -325 -7 -7 -57 -15 -512 -87 -574 -90 -609 -95 -625 -95 -12 0 -14 55 -14
325 l0 325 30 5 c17 3 143 23 280 45 356 56 678 108 765 123 41 8 79 11 84 9
5 -3 6 -136 3 -325z m103 -772 c0 -324 -3 -416 -12 -419 -7 -2 -247 -34 -533
-71 -286 -37 -557 -73 -602 -80 l-83 -12 0 344 c0 383 6 352 -69 337 l-31 -6
0 -343 0 -343 -22 -6 c-13 -3 -34 -6 -46 -6 l-24 0 3 340 c2 187 0 342 -3 345
-3 3 -24 3 -47 -1 l-41 -7 0 -348 0 -349 -27 0 c-16 0 -45 -3 -65 -6 l-38 -7
0 402 c0 220 1 401 3 401 42 0 1142 168 1437 219 91 16 173 29 183 30 16 1 17
-25 17 -414z m4315 203 l0 -172 -67 -17 -68 -17 0 126 0 126 62 63 c34 35 65
63 68 63 3 0 5 -77 5 -172z m72 -425 c-4 -124 -7 -263 -7 -308 l0 -82 -72 -7
c-40 -3 -119 -11 -175 -18 l-103 -12 0 -102 0 -102 -72 -12 c-40 -6 -81 -14
-91 -16 -16 -5 -17 16 -15 373 l3 378 260 67 c143 36 264 67 269 67 5 1 7 -91
3 -226z m273 152 c85 -24 175 -48 199 -55 l43 -11 -4 -374 c-2 -206 -6 -377
-10 -380 -3 -4 -42 2 -87 12 l-80 18 -3 94 -3 95 -105 27 c-58 15 -122 28
-142 28 l-38 1 0 304 0 304 38 -10 c20 -5 107 -29 192 -53z m-4612 -437 l-3
-53 -390 -51 c-665 -88 -1003 -133 -1195 -159 -102 -14 -206 -27 -232 -31
l-48 -6 0 51 c0 49 1 50 33 55 43 7 1022 138 1512 202 149 19 275 37 280 39
38 14 46 6 43 -47z m287 -48 c72 -26 227 -85 345 -130 118 -46 253 -98 300
-115 l85 -33 3 -41 3 -41 -53 21 c-29 12 -107 40 -173 64 -108 39 -285 106
-525 199 -47 18 -115 41 -152 52 l-68 19 0 47 0 48 53 -21 c28 -12 111 -43
182 -69z m-2411 -1553 c0 -809 -2 -3084 -2 -5054 l-2 -3583 -70 0 -70 0 0
2346 c1 1291 -1 2349 -5 2352 -3 3 -5 1143 -5 2534 0 2458 -1 2528 -19 2528
-10 0 -39 -3 -65 -6 l-47 -7 3 -2449 3 -2449 -35 6 c-43 8 -44 9 -46 43 0 15
-2 1110 -2 2434 l-2 2407 -52 -6 c-29 -3 -56 -8 -60 -12 -3 -3 -8 -1015 -9
-2248 -2 -1234 -7 -2243 -12 -2243 -4 0 -27 10 -50 22 -23 13 -49 23 -57 23
-8 0 -34 4 -57 9 l-43 8 0 119 c0 65 -2 119 -5 119 -6 0 -514 156 -607 186
l-78 26 -2 255 -3 256 -55 20 c-32 11 -83 20 -122 20 l-67 1 4 1806 5 1805 37
8 c21 4 360 47 753 96 393 50 729 92 745 94 17 2 46 5 65 5 l35 2 -1 -1473z
m6593 1439 c3 -3 4 -398 3 -5478 l0 -4598 -209 0 -209 0 -4 3467 c-2 2762 -6
3467 -15 3471 -10 3 -13 324 -13 1562 l0 1559 53 6 c126 16 380 23 394 11z
m116 -27 l37 -10 0 -5019 0 -5020 -50 0 -50 0 0 5030 c0 4017 3 5030 13 5030
6 0 29 -5 50 -11z m-603 -1644 c0 -795 -3 -1445 -6 -1445 -4 0 -24 5 -45 12
l-39 11 2 1426 3 1426 30 6 c17 4 36 7 43 8 9 1 12 -294 12 -1444z m722 -397
c1 -1003 1 -2862 0 -4133 -1 -1270 -1 -2661 -2 -3091 0 -686 -2 -781 -15 -781
-13 0 -15 559 -15 4914 0 4363 2 4913 15 4913 13 0 15 -209 17 -1822z m-952
542 l0 -1259 -22 8 -23 8 -3 301 -2 302 -30 22 -30 22 0 918 0 918 23 4 c55
12 63 14 75 15 9 1 12 -257 12 -1259z m-4780 1151 l0 -100 -52 -5 c-29 -3
-127 -11 -218 -17 -91 -5 -280 -19 -420 -30 -140 -10 -267 -19 -282 -19 l-28
0 0 95 c0 68 4 97 13 100 6 2 201 18 432 34 416 31 489 36 533 39 21 2 22 0
22 -97z m5946 78 l44 -11 -4 -77 c-2 -42 -5 -2239 -5 -4883 l-1 -4808 -50 0
-50 0 0 4895 c0 3433 3 4895 11 4895 5 0 30 -5 55 -11z m-1418 -1285 l-3 -427
-52 42 -53 41 0 799 0 799 53 9 52 8 3 -422 c1 -233 1 -615 0 -849z m1665
1232 l27 -6 0 -4860 0 -4860 -50 0 -50 0 0 4743 c0 2608 3 4799 7 4870 5 110
8 127 22 123 9 -2 28 -7 44 -10z m-1913 -736 c0 -401 -3 -730 -6 -730 -3 0
-28 18 -55 41 l-49 41 1 606 c1 334 4 641 8 682 6 73 7 75 36 81 17 4 38 7 48
8 16 1 17 -40 17 -729z m2140 680 l35 -10 2 -4830 2 -4830 -49 0 -50 0 0 4840
c0 3865 3 4840 13 4840 6 0 28 -4 47 -10z m-6418 -413 l-3 -94 -167 -11 c-92
-7 -288 -19 -437 -27 -148 -8 -298 -17 -332 -20 l-63 -6 0 100 0 99 123 7
c374 23 741 43 807 44 l75 1 -3 -93z m-2 -381 c0 -29 3 -73 6 -98 l6 -45 -123
-6 c-68 -4 -268 -14 -444 -22 -176 -8 -348 -17 -382 -19 l-63 -5 0 98 0 98
243 13 c133 7 343 18 467 25 124 7 240 13 258 14 l32 1 0 -54z m-4843 -4489
l6 -4385 -66 -4 -67 -3 0 425 c0 234 0 2070 -1 4080 0 2010 0 3793 0 3962 l1
307 58 3 c31 2 58 2 60 2 2 -1 6 -1975 9 -4387z m8370 3936 c-4 -234 -9 -428
-11 -430 -5 -5 -112 -30 -479 -113 -172 -39 -377 -86 -457 -104 l-145 -33 -5
-94 -5 -94 -80 -11 c-44 -6 -91 -13 -105 -15 -24 -4 -25 -2 -25 54 3 428 5
497 18 497 7 0 85 43 173 96 87 54 328 198 534 322 206 124 420 253 475 288
55 34 104 63 109 63 6 1 7 -170 3 -426z m298 219 c110 -82 348 -263 530 -400
l329 -251 2 -285 3 -285 -47 15 c-26 8 -91 26 -144 41 l-98 26 0 99 c0 98 0
99 -27 109 -45 18 -531 189 -613 215 -41 13 -101 34 -132 45 l-58 21 0 426 0
426 28 -26 c15 -14 117 -93 227 -176z m-9345 -593 l0 -770 -62 33 c-35 18 -63
39 -62 46 1 6 2 336 3 731 l1 720 48 4 c26 2 53 4 60 5 9 2 12 -158 12 -769z
m5521 461 c-1 -52 -3 -95 -4 -96 -1 -1 -202 -12 -447 -23 -245 -12 -469 -24
-497 -27 l-53 -5 0 100 0 101 53 1 c28 0 248 11 487 24 239 12 441 22 449 21
11 -1 13 -21 12 -96z m0 -420 c-1 -52 -3 -95 -4 -96 -3 -2 -929 -44 -964 -44
l-33 0 0 95 0 95 28 1 c15 0 232 11 482 24 250 12 464 22 474 21 17 -1 19 -9
17 -96z m3516 -376 c-6 -7 -1032 -151 -1039 -147 -5 2 -8 35 -8 73 l0 68 33 7
c46 10 704 159 872 198 l140 32 3 -114 c1 -62 1 -115 -1 -117z m333 126 c135
-49 302 -106 372 -127 l128 -38 0 -78 c0 -70 -2 -78 -17 -73 -46 14 -490 141
-583 167 -58 16 -122 29 -142 29 l-38 0 0 111 c0 102 1 111 18 104 9 -4 127
-47 262 -95z m-3852 -177 l-3 -98 -165 -6 c-521 -20 -769 -30 -797 -34 l-33
-4 0 100 0 99 53 1 c28 0 210 9 402 19 193 9 394 18 448 19 l98 1 -3 -97z
m3809 -43 c81 -23 336 -95 566 -161 230 -65 420 -119 422 -119 3 0 5 -50 5
-111 0 -86 -3 -110 -13 -106 -56 21 -939 257 -963 257 -12 0 -14 -538 -14
-3640 l0 -3640 -90 0 -90 0 0 3786 c0 3292 2 3785 14 3781 8 -3 81 -25 163
-47z m-9679 -467 l-3 -258 -380 -6 c-209 -4 -469 -10 -578 -14 l-198 -6 3 142
3 143 140 33 c77 18 273 62 435 99 162 37 349 79 415 94 66 15 130 28 143 29
l22 1 -2 -257z m9302 -3398 l0 -3655 -135 0 -135 0 0 145 0 145 -200 0 -199 0
-3 -148 -3 -147 -100 0 -100 0 -3 3489 -2 3489 -56 -6 c-31 -3 -59 -9 -62 -12
-4 -3 -5 -1569 -4 -3480 2 -1916 -1 -3475 -5 -3478 -5 -3 -27 -3 -49 0 l-41 5
-2 3466 c-1 1906 -4 3468 -6 3470 -2 3 -29 1 -60 -3 l-55 -6 -2 -3467 -3
-3467 -45 0 -45 0 -3 3463 -2 3463 -38 -6 c-20 -3 -47 -8 -59 -11 l-23 -4 0
-3453 0 -3452 -97 3 -98 3 3 3542 c2 2362 7 3544 13 3548 6 3 56 12 112 18
176 21 1424 189 1447 195 8 2 25 4 38 5 l22 1 0 -3655z m-9212 3612 c20 -13
87 -49 147 -80 l110 -56 1 -226 c1 -161 -2 -225 -10 -225 -6 0 -73 25 -148 57
l-138 57 0 96 c0 53 -3 165 -7 248 -3 84 -3 152 1 152 3 0 23 -11 44 -23z
m5785 -129 l3 -98 -45 0 c-59 0 -796 -28 -888 -34 l-73 -4 0 97 0 98 293 13
c160 7 362 16 447 20 85 4 179 7 208 6 l53 -1 2 -97z m4368 -52 c272 -74 531
-144 577 -156 l82 -22 0 -3454 0 -3454 -60 0 -60 0 0 3365 0 3364 -42 11 c-24
6 -51 13 -60 16 -17 5 -18 -160 -18 -3374 l0 -3380 -32 -3 c-18 -2 -43 -3 -55
-1 l-23 3 0 3394 0 3394 -54 15 c-30 9 -57 16 -61 16 -3 0 -5 -1536 -4 -3412
0 -1877 -2 -3412 -5 -3410 -3 1 -26 2 -51 2 l-45 0 0 3424 0 3425 -54 15 c-30
9 -58 16 -63 16 -4 0 -7 -1548 -5 -3440 l3 -3440 -36 -1 c-19 0 -52 -1 -72 -2
l-38 0 -3 3461 -2 3462 -28 6 c-15 3 -42 10 -59 14 l-33 8 0 -3474 0 -3474
-105 0 -105 0 0 3616 c0 2019 4 3613 9 3610 4 -3 230 -66 502 -140z m-4371
-365 l0 -98 -127 -7 c-71 -3 -263 -10 -428 -16 -165 -5 -333 -12 -372 -15
l-73 -5 0 99 0 99 93 6 c50 3 254 11 452 17 198 6 365 12 370 14 6 2 27 4 48
4 l37 1 0 -99z m-5870 -201 l0 -230 -695 0 -695 0 2 218 3 217 335 7 c184 4
387 9 450 11 63 1 224 4 358 5 l242 2 0 -230z m335 98 c2 -2 5 -1492 7 -3311
l3 -3307 -147 0 -148 0 0 48 c0 26 -3 98 -7 160 -6 110 -6 112 15 112 20 0 22
5 22 65 0 58 -2 65 -20 65 -17 0 -20 7 -20 43 0 31 5 45 20 55 17 10 20 23 20
87 0 68 -2 75 -20 75 -18 0 -20 7 -20 55 0 49 2 55 20 55 20 0 21 5 18 88 -3
75 -5 87 -20 84 -24 -4 -30 12 -22 63 5 35 10 45 25 45 17 0 19 8 19 86 0 77
-2 86 -20 91 -16 4 -20 14 -20 53 0 39 4 49 20 53 18 5 20 14 20 91 0 79 -2
86 -20 86 -17 0 -20 7 -20 50 0 43 3 50 20 50 18 0 20 7 20 86 0 77 -2 86 -20
91 -17 4 -20 14 -20 54 0 42 3 49 20 49 18 0 20 7 20 86 0 77 -2 86 -20 91
-17 4 -20 14 -20 54 0 42 3 49 20 49 18 0 20 7 20 85 0 78 -2 85 -20 85 -17 0
-20 7 -20 49 0 40 3 50 20 54 18 5 20 14 20 91 0 79 -2 86 -20 86 -17 0 -20 7
-20 50 0 43 3 50 20 50 18 0 20 7 20 70 0 62 -2 70 -19 70 -16 0 -20 9 -23 55
-3 51 -2 55 20 55 21 0 22 4 22 85 0 78 -2 85 -20 85 -17 0 -20 7 -20 49 0 40
3 50 20 54 18 5 20 14 20 91 0 83 -3 92 -32 87 -5 0 -8 24 -8 54 0 48 2 55 20
55 18 0 20 7 20 85 0 78 -2 85 -20 85 -17 0 -20 7 -20 49 0 40 3 50 20 54 18
5 20 14 20 91 0 79 -2 86 -20 86 -18 0 -20 7 -20 55 0 48 2 55 20 55 19 0 20
7 20 90 0 87 -1 90 -22 90 -22 0 -23 4 -20 55 3 46 7 55 23 55 17 0 19 8 19
90 0 83 -1 90 -20 90 -17 0 -20 7 -20 50 0 43 3 50 20 50 19 0 20 7 20 90 0
83 -1 90 -20 90 -17 0 -20 7 -20 49 0 40 3 49 18 47 15 -1 17 11 20 92 3 87 2
92 -18 92 -17 0 -20 6 -20 50 0 43 3 50 20 50 18 0 20 7 20 85 0 78 -2 85 -20
85 -17 0 -20 7 -20 50 0 36 4 50 14 50 20 0 26 23 26 106 0 67 -2 74 -20 74
-17 0 -20 7 -20 50 0 43 3 50 20 50 19 0 20 7 20 90 0 83 -1 90 -20 90 -17 0
-20 7 -20 50 0 43 3 50 20 50 19 0 20 7 20 95 0 90 -1 95 -21 95 -20 0 -21 4
-15 46 3 26 6 127 6 224 l0 178 141 -58 c77 -32 142 -60 144 -62z m5537 -320
c3 -51 3 -96 -1 -99 -3 -4 -175 -12 -381 -18 -206 -6 -430 -14 -497 -18 l-123
-6 0 100 0 100 198 8 c108 4 274 11 367 15 94 4 229 7 301 8 l132 2 4 -92z
m-2632 -279 l0 -221 -31 6 c-17 3 -38 6 -45 6 -11 0 -14 39 -14 215 l0 215 45
0 45 0 0 -221z m-729 179 c-1 -5 -1 -109 -1 -233 l0 -225 -34 0 -33 0 -7 106
c-4 58 -4 161 0 229 6 115 8 124 28 128 28 6 47 4 47 -5z m9939 -3148 l0
-3050 -40 0 -40 0 0 3044 0 3045 28 4 c15 2 33 5 40 6 9 1 12 -615 12 -3049z
m-12452 2994 l3 -31 -691 -7 c-381 -4 -694 -5 -697 -2 -3 3 -7 19 -8 36 l-3
30 657 3 c361 1 674 2 696 2 37 0 40 -2 43 -31z m5874 -174 c2 -84 1 -100 -12
-100 -40 0 -675 -20 -822 -26 l-168 -6 0 95 0 95 48 6 c26 3 227 10 447 16
384 11 482 14 497 18 4 1 8 -43 10 -98z m-5882 -110 l0 -30 -432 0 c-238 0
-551 -3 -695 -7 l-263 -6 0 36 0 37 695 0 695 0 0 -30z m3197 -245 l-2 -70
-165 -12 c-321 -24 -795 -63 -830 -69 l-35 -5 0 149 0 149 185 22 c102 11 275
28 385 37 110 9 256 21 325 27 l125 12 7 -85 c4 -47 6 -116 5 -155z m2683 -73
l0 -99 -282 -7 c-156 -3 -381 -9 -500 -13 l-218 -6 0 102 0 101 178 1 c97 1
269 5 382 9 113 3 258 7 323 8 l117 2 0 -98z m-5874 43 c4 -14 5 -28 3 -30 -4
-3 -1100 -9 -1306 -6 l-93 1 0 30 0 30 695 0 695 0 6 -25z m3434 -235 l0 -160
50 0 50 0 0 -45 c0 -41 2 -45 25 -45 23 0 24 -3 27 -67 l3 -68 53 3 52 4 0
-2375 c0 -1306 3 -2402 6 -2436 l7 -61 -317 0 -316 0 0 325 0 325 -140 0 -140
0 0 -92 c0 -51 -3 -198 -7 -325 l-6 -233 -44 0 -43 0 0 325 0 325 -140 0 -140
0 0 -325 0 -325 -50 0 -50 0 0 326 0 325 -102 -2 c-57 -1 -120 -4 -140 -7
l-38 -4 0 -319 0 -319 -250 0 c-137 0 -250 3 -250 8 0 4 -3 1072 -7 2375 l-6
2367 62 0 61 0 0 65 0 65 40 0 40 0 0 65 0 65 55 0 55 0 0 140 0 139 33 5 c68
11 1404 113 1510 115 l57 1 0 -160z m395 54 c116 -31 273 -74 350 -96 77 -22
149 -42 161 -45 19 -4 22 -14 28 -86 3 -45 6 -107 6 -138 0 -55 -1 -56 -25
-51 -25 4 -25 5 -25 107 l0 102 -62 17 c-35 10 -148 42 -253 71 -104 30 -265
73 -357 96 l-168 41 0 39 0 38 68 -20 c37 -11 162 -44 277 -75z m-3835 -99 l0
-35 -690 0 -690 0 0 30 0 30 678 3 c372 1 683 3 690 5 8 1 12 -10 12 -33z
m5880 -184 l0 -98 -132 -6 c-73 -4 -298 -10 -500 -13 l-368 -7 0 95 0 96 103
6 c56 4 271 10 477 15 206 4 385 9 398 9 21 2 22 -1 22 -97z m-2068 -50 c84
-21 268 -67 408 -101 140 -34 272 -66 293 -71 35 -9 37 -12 37 -49 0 -22 -3
-40 -6 -40 -3 0 -44 11 -92 25 -114 33 -752 185 -774 185 -12 0 -18 8 -18 23
0 12 -3 32 -6 45 -4 12 -4 22 0 22 3 0 74 -18 158 -39z m-3809 -33 c2 -18 4
-34 3 -34 0 -1 -313 -4 -693 -6 l-693 -5 0 33 0 34 683 3 c375 1 685 3 688 5
4 1 9 -13 12 -30z m-3 -260 c0 -5 0 -20 0 -35 l0 -28 -693 0 -692 0 -3 32 -3
33 673 3 c800 3 719 4 718 -5z m5880 -87 l0 -98 -397 -7 c-219 -3 -444 -9
-500 -12 l-103 -6 0 101 0 101 128 1 c70 1 240 5 377 9 138 3 305 7 373 8
l122 2 0 -99z m-1289 -2040 c1 -1147 2 -2117 2 -2156 0 -38 -1 -143 -1 -232
l-2 -163 -35 0 -35 0 -2 363 c-2 199 -2 1247 0 2329 l2 1966 35 -11 35 -10 1
-2086z m-4586 1819 c4 -16 4 -34 1 -39 -5 -7 -1274 -9 -1383 -2 -8 1 -13 15
-13 36 l0 35 694 0 694 0 7 -30z m5875 -199 l0 -99 -297 -6 c-164 -3 -389 -8
-500 -12 l-203 -5 0 100 0 101 118 1 c64 1 236 5 382 8 146 4 318 8 383 9
l117 2 0 -99z m-5880 -96 l0 -35 -692 2 c-659 3 -693 4 -696 21 -10 49 -41 47
698 47 l690 0 0 -35z m5880 -329 l0 -94 -172 -6 c-95 -3 -320 -9 -500 -12
l-328 -7 0 97 c0 53 1 97 3 97 5 4 532 15 755 17 l242 2 0 -94z m-5880 49 l0
-35 -689 0 -689 0 -4 30 -4 29 100 4 c56 1 368 4 694 5 l592 2 0 -35z m0 -280
l0 -35 -695 0 -695 0 0 29 c0 29 2 30 53 34 28 2 341 4 695 5 l642 2 0 -35z
m5880 -193 l0 -99 -337 -6 c-186 -4 -411 -7 -500 -7 l-163 0 0 95 0 95 123 1
c171 2 794 15 840 17 l37 2 0 -98z m-5870 -91 c0 -22 -5 -30 -22 -32 -13 -2
-328 -3 -700 -1 l-678 3 0 29 0 30 700 0 700 0 0 -29z m5870 -331 l0 -100
-117 -1 c-65 -1 -290 -4 -501 -8 l-382 -6 0 98 0 97 58 1 c31 1 230 5 442 8
212 4 411 8 443 9 l57 2 0 -100z m-5880 50 l0 -30 -685 0 c-377 0 -688 0 -692
-1 -11 0 -16 29 -9 47 5 12 104 14 696 14 l690 0 0 -30z m1 -205 c3 -3 4 -18
1 -35 l-4 -30 -694 0 -694 0 0 30 0 29 113 3 c221 6 1273 8 1278 3z m5881
-271 c2 -53 1 -97 0 -99 -2 -2 -228 -4 -503 -5 l-499 -1 0 95 0 96 198 3 c108
1 333 3 499 5 l302 2 3 -96z m-5874 -44 l3 -30 -700 0 -701 0 0 28 c0 16 3 32
8 36 4 4 318 5 697 2 l690 -5 3 -31z m0 -277 l-3 -28 -695 0 -695 0 -3 28 -3
27 701 0 701 0 -3 -27z m5882 -103 l0 -100 -338 0 c-187 0 -414 -3 -505 -7
l-167 -6 0 101 0 102 358 3 c196 1 423 3 505 5 l147 2 0 -100z m-5885 -175 l0
-30 -697 -3 -698 -2 0 28 c0 16 3 32 7 35 3 4 317 6 697 5 l691 -3 0 -30z
m5878 -250 l2 -100 -502 -3 -503 -4 0 101 0 101 493 2 c270 2 496 3 500 3 5 0
10 -45 10 -100z m-5875 -27 l-3 -33 -697 -3 -698 -2 0 28 c0 16 3 32 7 35 3 4
319 7 700 7 l694 0 -3 -32z m2 -288 l0 -30 -700 0 -700 0 0 30 0 30 700 0 700
0 0 -30z m5870 -110 l0 -100 -500 0 -500 0 0 95 0 95 308 3 c169 1 394 3 500
5 l192 2 0 -100z m-5880 -170 l0 -30 -695 0 -695 0 0 30 0 30 695 0 695 0 0
-30z m5880 -260 l0 -100 -500 0 -500 0 0 100 0 100 500 0 500 0 0 -100z
m-5874 -4 c3 -14 3 -30 -1 -35 -4 -8 -224 -11 -701 -11 l-694 0 0 28 c0 16 3
32 7 35 3 4 316 7 694 7 l689 0 6 -24z m-6 -288 l0 -31 -517 6 c-285 4 -597 7
-694 7 -167 0 -177 1 -182 20 -4 17 1 19 57 23 33 2 348 4 699 5 l637 2 0 -32z
m5880 -128 l0 -100 -500 0 -500 0 0 95 0 95 168 2 c92 2 317 4 500 5 l332 3 0
-100z m-5870 -185 l0 -165 -695 0 -695 0 0 165 0 165 695 0 695 0 0 -165z"/>
<path d="M12300 15743 c-231 -133 -653 -373 -780 -443 -60 -33 -65 -38 -68
-73 -2 -23 1 -37 8 -37 13 0 126 60 310 165 69 39 272 154 452 255 l328 185 0
43 c0 23 -3 42 -7 42 -5 -1 -114 -62 -243 -137z"/>
<path d="M12502 15570 c-18 -11 -210 -115 -425 -230 -216 -115 -441 -236 -502
-268 l-110 -60 -3 -42 -3 -41 33 17 c18 9 200 105 403 212 204 107 434 228
513 269 l142 75 0 44 c0 24 -3 44 -7 44 -5 0 -23 -9 -41 -20z"/>
<path d="M11998 15032 l-537 -267 -1 -37 c0 -21 2 -38 5 -38 7 0 417 197 630
302 94 47 234 115 313 153 l142 68 0 44 c0 24 -3 43 -7 42 -5 0 -250 -121
-545 -267z"/>
<path d="M12415 14953 c-66 -30 -190 -86 -275 -125 -85 -38 -273 -124 -417
-191 -262 -121 -263 -121 -263 -152 0 -18 2 -34 5 -37 3 -3 97 36 208 86 111
51 354 159 539 241 l338 150 0 43 c0 23 -3 42 -7 41 -5 -1 -62 -26 -128 -56z"/>
<path d="M12509 14710 c-8 -5 -222 -95 -475 -201 -252 -105 -480 -201 -506
-212 -48 -20 -56 -34 -42 -71 3 -9 10 -16 15 -16 5 0 160 62 346 139 186 76
420 172 520 212 l183 74 0 43 c0 43 -9 51 -41 32z"/>
<path d="M12528 14435 c-4 -4 -187 -76 -760 -298 -134 -52 -158 -64 -157 -81
2 -57 5 -57 154 0 77 30 285 109 463 176 l322 121 0 44 c0 39 -8 52 -22 38z"/>
<path d="M12460 14129 c-41 -16 -236 -86 -432 -156 l-358 -126 0 -40 c0 -33 3
-38 18 -34 9 3 148 51 307 107 160 56 350 122 423 147 l132 45 0 44 c0 24 -3
44 -7 43 -5 -1 -42 -14 -83 -30z"/>
<path d="M12158 13752 c-377 -126 -377 -126 -371 -151 3 -14 9 -30 13 -34 4
-4 160 40 346 99 186 58 354 111 372 116 30 8 32 12 32 53 0 25 -3 44 -7 44
-5 -1 -178 -58 -385 -127z"/>
<path d="M10260 14139 c-250 -43 -458 -78 -462 -78 -5 -1 -8 -100 -8 -221 l0
-221 33 6 c17 3 151 23 297 45 330 51 621 99 632 106 4 3 8 104 8 225 l0 219
-22 -1 c-13 -1 -228 -37 -478 -80z m440 -152 l0 -163 -121 -18 c-66 -10 -122
-16 -124 -14 -3 2 -6 13 -8 24 -1 10 -5 24 -9 29 -3 6 -9 25 -13 43 -5 24 -11
32 -21 28 -10 -4 -12 -2 -8 5 4 7 1 10 -7 7 -8 -3 -13 -11 -11 -17 1 -7 -2
-10 -7 -7 -5 4 -12 0 -14 -6 -4 -8 -6 -7 -6 4 -1 9 -5 20 -11 23 -5 3 -7 0 -5
-7 3 -8 -6 -24 -21 -37 l-26 -23 3 46 c3 25 1 46 -3 46 -5 0 -8 5 -8 11 0 5 5
7 10 4 6 -3 10 0 10 9 0 17 28 15 39 -3 6 -9 10 -6 14 9 5 19 8 21 20 9 7 -8
16 -20 18 -28 3 -9 17 -2 42 23 21 20 42 34 46 31 5 -2 20 4 34 15 14 11 31
19 38 18 6 -2 14 3 16 10 3 6 0 12 -7 12 -6 0 -8 -5 -4 -12 4 -7 3 -8 -4 -4
-7 4 -12 11 -12 15 0 12 49 20 56 9 9 -15 46 24 41 44 -4 12 2 18 22 21 14 2
29 5 34 6 4 0 7 -72 7 -162z m-484 73 c-92 -19 -110 -30 -101 -67 3 -12 0 -25
-6 -29 -8 -4 -7 -9 2 -15 10 -6 6 -11 -14 -18 -35 -14 -35 -28 1 -25 25 2 28
-1 24 -22 -5 -26 -18 -32 -24 -12 -3 7 -7 5 -11 -6 -4 -9 -3 -15 2 -11 11 6
20 -15 14 -32 -3 -6 -12 -9 -20 -6 -9 4 -21 0 -27 -9 -21 -28 -48 -37 -64 -21
-18 17 -38 11 -34 -11 2 -9 -1 -16 -7 -16 -5 0 -7 -9 -4 -20 4 -13 14 -20 32
-21 25 -1 6 -6 -96 -24 l-33 -6 0 160 0 160 33 6 c346 59 529 84 333 45z"/>
<path d="M10465 13424 c-165 -23 -308 -43 -317 -43 -15 -1 -18 -10 -18 -52 0
-50 0 -51 28 -45 27 6 391 54 575 77 l97 11 0 49 c0 49 0 49 -32 48 -18 -1
-168 -21 -333 -45z"/>
<path d="M10780 13293 c-14 -2 -160 -22 -325 -44 -165 -22 -306 -42 -312 -44
-11 -4 -20 -95 -10 -95 15 0 675 91 685 95 7 3 12 23 12 50 0 30 -4 45 -12 44
-7 -1 -24 -4 -38 -6z"/>
<path d="M10710 13113 c-52 -8 -203 -28 -335 -46 l-240 -32 -3 -39 c-2 -21 0
-42 5 -46 4 -4 58 -1 118 6 254 33 503 65 538 70 37 6 37 6 37 55 0 33 -4 49
-12 48 -7 -1 -56 -8 -108 -16z"/>
<path d="M8207 12203 c-16 -4 -17 -108 -15 -2046 l3 -2041 33 -10 32 -9 0
-106 c0 -109 4 -123 31 -134 12 -4 18 1 20 16 2 12 3 993 1 2180 l-2 2157 -43
-1 c-23 -1 -50 -3 -60 -6z"/>
<path d="M8012 12183 l-32 -4 2 -2001 3 -2000 58 -18 57 -18 0 2024 0 2024
-27 -2 c-16 0 -43 -3 -61 -5z"/>
<path d="M7824 12163 l-42 -4 -6 -142 c-5 -121 -4 -924 3 -3348 l1 -427 44
-11 c24 -6 51 -14 60 -17 16 -6 17 112 15 1702 -3 1939 -6 2255 -23 2252 -6
-1 -30 -3 -52 -5z"/>
<path d="M7620 12140 l-55 -5 0 -1903 c0 -1261 3 -1906 10 -1911 5 -4 28 -13
50 -20 22 -7 46 -15 53 -17 9 -5 12 384 12 1925 0 1061 -3 1931 -7 1933 -5 2
-33 1 -63 -2z"/>
<path d="M7367 12113 c-4 -3 -7 -732 -7 -1618 l0 -1612 43 -12 c23 -7 50 -15
60 -17 16 -5 17 77 17 1630 l0 1636 -53 0 c-30 0 -57 -3 -60 -7z"/>
<path d="M12828 9503 l-78 -4 0 -84 0 -85 164 0 c90 0 171 3 180 6 13 5 16 23
16 90 l0 84 -102 -2 c-57 -1 -138 -4 -180 -5z"/>
<path d="M12903 9153 l-153 -4 0 -84 c0 -46 4 -86 8 -89 5 -3 86 -2 180 1
l172 6 0 89 0 88 -27 -2 c-16 -1 -97 -4 -180 -5z"/>
<path d="M12757 8793 c-4 -3 -7 -45 -7 -91 l0 -85 92 7 c50 3 131 6 180 6 l88
0 0 85 0 85 -173 0 c-96 0 -177 -3 -180 -7z"/>
<path d="M12783 8443 c-20 -4 -22 -11 -25 -89 l-3 -84 106 0 c58 0 139 3 180
6 l74 7 0 83 0 84 -155 -1 c-85 -1 -165 -4 -177 -6z"/>
<path d="M12803 8093 l-43 -4 0 -85 0 -84 175 0 175 0 0 90 0 90 -132 -2 c-73
-1 -152 -3 -175 -5z"/>
<path d="M12868 7743 l-108 -4 0 -91 c0 -89 0 -90 23 -84 12 3 91 6 175 6
l152 0 0 90 0 90 -67 -2 c-38 -1 -116 -4 -175 -5z"/>
<path d="M12760 7300 l0 -90 93 0 c50 0 129 3 175 7 l82 6 0 83 0 84 -175 0
-175 0 0 -90z"/>
<path d="M12923 7033 l-163 -3 0 -85 0 -85 175 0 175 0 0 90 c0 67 -3 89 -12
88 -7 -1 -86 -4 -175 -5z"/>
<path d="M12828 6683 l-68 -4 0 -85 0 -84 176 2 176 3 0 85 0 85 -109 1 c-59
0 -138 -1 -175 -3z"/>
<path d="M12858 6333 l-98 -4 0 -84 0 -85 175 0 175 0 0 90 0 90 -77 -2 c-43
-1 -122 -4 -175 -5z"/>
<path d="M12913 5983 l-153 -4 0 -84 0 -85 175 0 175 0 0 90 c0 87 -1 90 -22
88 -13 -1 -92 -4 -175 -5z"/>
<path d="M12863 5633 l-103 -4 0 -84 0 -85 174 0 174 0 4 83 c2 45 2 85 0 90
-2 4 -36 6 -75 5 -40 -1 -118 -4 -174 -5z"/>
<path d="M12758 5198 c-2 -46 -1 -85 2 -88 3 -3 84 -4 180 -2 l175 4 0 84 1
84 -177 0 -177 0 -4 -82z"/>
<path d="M12760 4840 l0 -90 173 2 172 3 3 88 3 87 -176 0 -175 0 0 -90z"/>
<path d="M12760 4490 l0 -90 175 0 175 0 0 90 0 90 -175 0 -175 0 0 -90z"/>
<path d="M12760 4140 l0 -90 175 0 175 0 0 90 0 90 -175 0 -175 0 0 -90z"/>
<path d="M12760 3780 l0 -90 175 0 175 0 0 90 0 90 -175 0 -175 0 0 -90z"/>
<path d="M12758 3432 c-2 -46 -1 -86 1 -88 2 -2 82 -4 178 -4 l173 0 0 88 0
87 -174 0 -175 0 -3 -83z"/>
<path d="M12760 3141 c0 -15 -3 -56 -6 -90 l-7 -61 182 2 183 3 1 88 2 87
-177 0 -178 0 0 -29z"/>
<path d="M7440 5365 l0 -2025 55 0 55 0 0 2025 0 2025 -55 0 -55 0 0 -2025z"/>
<path d="M7247 7373 c-4 -3 -7 -912 -7 -2020 l0 -2013 55 0 55 0 0 2020 0
2020 -48 0 c-27 0 -52 -3 -55 -7z"/>
<path d="M7053 7363 c-10 -4 -13 -416 -13 -2014 l0 -2009 55 0 55 0 2 528 c1
290 1 912 0 1382 -1 470 -2 1140 -2 1488 l0 632 -42 -1 c-24 0 -49 -3 -55 -6z"/>
<path d="M6887 7353 l-47 -4 2 -2007 3 -2007 55 0 55 0 3 1840 c3 1716 -1
2188 -17 2183 -3 -1 -27 -3 -54 -5z"/>
<path d="M6671 7343 l-34 -5 6 -210 c4 -116 7 -1018 7 -2005 l0 -1794 53 3 52
3 3 2008 2 2007 -27 -2 c-16 0 -43 -3 -62 -5z"/>
<path d="M6478 7333 l-28 -4 0 -2000 0 -1999 55 0 55 0 0 2005 0 2005 -27 -1
c-16 -1 -40 -4 -55 -6z"/>
<path d="M6277 7323 l-27 -4 2 -1992 3 -1992 59 -3 59 -3 -7 62 c-3 34 -6 934
-6 2000 l0 1939 -27 -1 c-16 -1 -40 -4 -56 -6z"/>
<path d="M6078 7313 l-28 -4 0 -1990 0 -1989 60 0 60 0 -2 1563 c-1 859 -4
1757 -6 1995 l-3 432 -27 -1 c-15 -1 -39 -4 -54 -6z"/>
<path d="M5876 7303 l-29 -5 7 -105 c3 -59 6 -954 6 -1990 l0 -1883 55 0 55 0
0 1995 0 1995 -32 -1 c-18 -1 -46 -4 -62 -6z"/>
</g>
</svg>
