<?xml version="1.0" standalone="no"?>
<!DOCTYPE svg PUBLIC "-//W3C//DTD SVG 20010904//EN"
 "http://www.w3.org/TR/2001/REC-SVG-20010904/DTD/svg10.dtd">
<svg version="1.0" xmlns="http://www.w3.org/2000/svg"
 width="2048.000000pt" height="2048.000000pt" viewBox="0 0 2048.000000 2048.000000"
 preserveAspectRatio="xMidYMid meet">
<metadata>
Created by potrace 1.16, written by Peter Selinger 2001-2019
</metadata>
<g transform="translate(0.000000,2048.000000) scale(0.100000,-0.100000)"
fill="#000000" stroke="none">
<path d="M10162 15657 c-48 -18 -100 -63 -122 -106 -19 -38 -19 -65 -20 -859
-1 -751 0 -823 15 -854 30 -58 76 -98 133 -114 123 -36 248 29 282 147 6 21
10 336 10 815 0 863 1 851 -62 911 -18 17 -48 38 -67 48 -43 22 -127 28 -169
12z"/>
<path d="M7582 14937 c-112 -41 -168 -161 -128 -275 8 -22 86 -168 174 -324
87 -155 176 -314 197 -353 33 -61 170 -303 335 -595 27 -47 61 -97 77 -112 66
-63 173 -77 259 -33 61 32 94 73 110 137 24 90 21 97 -248 568 -58 102 -197
347 -308 545 -111 198 -214 373 -228 389 -56 59 -159 82 -240 53z"/>
<path d="M12732 14939 c-54 -16 -102 -78 -211 -275 -58 -104 -210 -373 -339
-599 -307 -538 -322 -566 -322 -618 0 -135 90 -228 221 -228 72 -1 138 28 173
75 27 35 511 885 669 1173 95 176 102 191 105 253 6 100 -35 170 -123 211 -43
20 -119 23 -173 8z"/>
<path d="M9932 13224 c-691 -75 -1344 -385 -1823 -867 -499 -500 -798 -1130
-870 -1832 -17 -170 -7 -562 20 -725 73 -453 215 -831 445 -1180 430 -653
1063 -1103 1816 -1290 272 -67 453 -90 720 -90 702 0 1337 225 1895 670 475
380 840 936 1010 1538 192 685 113 1488 -210 2132 -465 925 -1385 1554 -2415
1649 -152 14 -435 12 -588 -5z"/>
<path d="M5645 13012 c-131 -61 -166 -235 -69 -342 24 -26 118 -85 297 -186
144 -81 442 -250 662 -376 220 -126 418 -233 440 -239 85 -23 193 24 241 107
51 87 29 217 -46 273 -32 23 -641 375 -915 528 -99 55 -238 133 -310 173 -118
67 -136 74 -195 77 -49 3 -75 -1 -105 -15z"/>
<path d="M14605 12991 c-38 -21 -198 -111 -355 -201 -157 -89 -419 -238 -583
-331 -163 -92 -318 -182 -342 -199 -74 -51 -104 -135 -84 -230 9 -43 21 -63
59 -101 73 -72 155 -88 245 -45 48 22 1051 589 1242 702 106 63 148 108 162
176 31 144 -68 268 -215 268 -50 0 -70 -6 -129 -39z"/>
<path d="M4955 10448 c-82 -29 -145 -119 -145 -209 0 -93 69 -184 159 -209 23
-6 326 -10 822 -10 l785 0 55 28 c74 37 111 92 117 171 5 72 -10 121 -51 168
-67 77 -16 73 -912 72 -531 0 -810 -4 -830 -11z"/>
<path d="M13839 10437 c-66 -35 -102 -93 -107 -171 -2 -36 1 -81 8 -102 18
-53 86 -117 140 -133 34 -9 232 -11 835 -9 787 3 790 3 830 25 77 41 115 105
115 193 0 95 -63 183 -149 209 -27 8 -267 11 -833 11 l-795 0 -44 -23z"/>
<path d="M6966 8613 c-11 -3 -92 -47 -180 -98 -89 -50 -377 -215 -641 -365
-585 -332 -577 -327 -604 -382 -37 -78 -23 -186 32 -247 34 -36 115 -71 169
-71 54 0 90 17 423 204 1085 610 1051 589 1075 677 45 166 -109 324 -274 282z"/>
<path d="M13380 8603 c-44 -17 -100 -67 -119 -106 -27 -56 -28 -146 -2 -203
27 -60 30 -62 411 -276 74 -42 308 -174 520 -293 447 -253 491 -275 545 -275
45 0 118 30 153 63 58 54 80 156 53 240 -23 68 -39 79 -611 402 -216 123 -750
420 -787 439 -31 16 -131 21 -163 9z"/>
<path d="M12028 7251 c-62 -12 -113 -54 -143 -116 -41 -83 -34 -135 37 -261
255 -456 356 -634 583 -1034 133 -234 148 -255 208 -284 150 -75 317 25 317
189 0 71 -5 83 -146 332 -215 380 -236 417 -309 548 -335 597 -334 595 -417
620 -55 16 -72 17 -130 6z"/>
<path d="M8295 7236 c-50 -22 -77 -58 -177 -233 -311 -544 -499 -876 -606
-1068 -88 -157 -93 -241 -19 -330 80 -98 249 -100 330 -4 19 21 125 200 237
396 112 197 266 467 342 600 199 350 208 369 208 440 0 79 -44 156 -109 190
-51 27 -155 31 -206 9z"/>
<path d="M10167 6757 c-53 -17 -106 -63 -128 -111 -18 -39 -19 -81 -19 -854 0
-882 -2 -848 56 -905 48 -48 83 -61 160 -62 61 0 77 4 120 30 31 20 58 47 74
75 l25 45 3 798 c2 556 -1 810 -8 838 -17 60 -81 126 -143 144 -59 17 -88 18
-140 2z"/>
</g>
</svg>
