<?xml version="1.0" standalone="no"?>
<!DOCTYPE svg PUBLIC "-//W3C//DTD SVG 20010904//EN"
 "http://www.w3.org/TR/2001/REC-SVG-20010904/DTD/svg10.dtd">
<svg version="1.0" xmlns="http://www.w3.org/2000/svg"
 width="2048.000000pt" height="2048.000000pt" viewBox="0 0 2048.000000 2048.000000"
 preserveAspectRatio="xMidYMid meet">
<metadata>
Created by potrace 1.16, written by Peter Selinger 2001-2019
</metadata>
<g transform="translate(0.000000,2048.000000) scale(0.100000,-0.100000)"
fill="#000000" stroke="none">
<path d="M10150 13861 c-87 -27 -175 -105 -212 -188 -30 -68 -184 -472 -475
-1243 -172 -457 -400 -1041 -411 -1052 -4 -4 -137 -16 -297 -27 -159 -12 -348
-25 -420 -31 -371 -28 -834 -62 -1110 -80 -545 -37 -699 -49 -730 -58 -88 -27
-154 -81 -196 -162 -19 -37 -24 -61 -24 -130 0 -118 30 -180 128 -258 38 -32
150 -123 248 -204 98 -81 352 -290 566 -464 213 -175 481 -395 594 -488 113
-94 267 -222 342 -284 76 -62 137 -118 137 -125 0 -6 -65 -262 -145 -567 -176
-673 -298 -1146 -400 -1545 -65 -254 -76 -309 -72 -360 11 -146 132 -269 278
-282 113 -11 160 12 569 271 150 95 256 162 445 278 448 277 958 594 1116 695
81 51 151 93 157 93 10 0 50 -24 742 -455 498 -310 817 -510 1105 -690 121
-76 240 -149 265 -162 211 -109 450 33 450 266 0 57 -74 368 -205 861 -24 91
-116 449 -204 795 -88 347 -171 671 -185 720 -13 50 -21 93 -18 96 8 7 250
205 502 408 378 305 451 365 600 491 69 58 226 188 350 290 505 413 496 405
529 472 26 51 31 73 31 132 0 39 -5 88 -10 108 -14 48 -64 113 -118 155 -80
61 -41 56 -962 118 -201 14 -558 38 -795 55 -236 16 -533 37 -660 45 -126 9
-234 20 -238 24 -10 10 -109 265 -377 976 -114 303 -249 658 -300 790 -50 132
-112 294 -136 360 -90 240 -135 302 -250 345 -56 20 -154 26 -204 11z"/>
</g>
</svg>
