<?xml version="1.0" standalone="no"?>
<!DOCTYPE svg PUBLIC "-//W3C//DTD SVG 20010904//EN"
 "http://www.w3.org/TR/2001/REC-SVG-20010904/DTD/svg10.dtd">
<svg version="1.0" xmlns="http://www.w3.org/2000/svg"
 width="2048.000000pt" height="2048.000000pt" viewBox="0 0 2048.000000 2048.000000"
 preserveAspectRatio="xMidYMid meet">
<metadata>
Created by potrace 1.16, written by Peter Selinger 2001-2019
</metadata>
<g transform="translate(0.000000,2048.000000) scale(0.100000,-0.100000)"
fill="#000000" stroke="none">
<path d="M6396 13901 c-3 -4 -4 -721 -3 -1592 l2 -1584 1685 0 1685 0 0 1590
0 1590 -1682 3 c-936 1 -1684 -2 -1687 -7z"/>
<path d="M10700 12315 l0 -1595 1690 0 1690 0 0 1595 0 1595 -1690 0 -1690 0
0 -1595z"/>
<path d="M6397 9753 c-4 -3 -7 -721 -7 -1595 l0 -1588 1690 0 1690 0 -2 1593
-3 1592 -1681 3 c-924 1 -1684 -1 -1687 -5z"/>
<path d="M10700 8165 l0 -1595 1690 0 1690 0 0 1595 0 1595 -1690 0 -1690 0 0
-1595z"/>
</g>
</svg>
