<?xml version="1.0" standalone="no"?>
<!DOCTYPE svg PUBLIC "-//W3C//DTD SVG 20010904//EN"
 "http://www.w3.org/TR/2001/REC-SVG-20010904/DTD/svg10.dtd">
<svg version="1.0" xmlns="http://www.w3.org/2000/svg"
 width="2048.000000pt" height="2048.000000pt" viewBox="0 0 2048.000000 2048.000000"
 preserveAspectRatio="xMidYMid meet">
<metadata>
Created by potrace 1.16, written by Peter Selinger 2001-2019
</metadata>
<g transform="translate(0.000000,2048.000000) scale(0.100000,-0.100000)"
fill="#000000" stroke="none">
<path d="M8360 17789 c-1473 -5 -2073 -10 -2120 -18 -36 -6 -92 -14 -125 -16
-202 -17 -507 -58 -550 -75 -11 -4 -65 -16 -120 -25 -55 -10 -111 -22 -125
-28 -14 -6 -31 -9 -37 -8 -7 1 -13 -2 -13 -7 0 -5 -10 -9 -22 -8 -13 1 -25 -1
-28 -4 -3 -3 -32 -13 -65 -22 -33 -9 -85 -26 -115 -38 -30 -12 -73 -28 -95
-36 -55 -20 -58 -21 -255 -118 -187 -92 -247 -124 -268 -143 -7 -7 -17 -13
-22 -13 -5 0 -15 -6 -22 -14 -8 -7 -27 -20 -43 -29 -17 -8 -55 -35 -87 -58
-31 -24 -69 -53 -84 -64 -16 -11 -60 -47 -99 -80 -38 -33 -86 -73 -105 -89
-33 -29 -239 -236 -270 -273 -188 -221 -317 -410 -422 -618 -38 -77 -73 -144
-78 -150 -4 -5 -24 -53 -44 -105 -20 -52 -40 -104 -45 -115 -29 -71 -51 -133
-51 -146 0 -8 -4 -19 -10 -25 -15 -15 -56 -177 -104 -409 -48 -237 -60 -307
-80 -485 -40 -345 -41 -425 -40 -2405 1 -2452 2 -2615 17 -2621 8 -3 11 -23 9
-59 -3 -36 1 -61 10 -72 7 -9 9 -14 3 -11 -14 8 -15 -65 -1 -74 6 -4 7 -8 1
-8 -5 0 -11 -19 -11 -43 -1 -23 1 -31 3 -18 4 19 7 21 15 10 8 -11 9 -11 5 3
-3 9 4 29 16 45 14 19 16 23 4 14 -15 -12 -17 -11 -17 6 0 10 -6 25 -13 33
-10 12 -9 12 6 1 9 -7 17 -11 17 -7 0 4 14 0 30 -9 30 -16 42 -29 17 -19 -29
11 -12 -41 18 -58 24 -13 27 -18 14 -23 -9 -3 -20 -5 -25 -4 -5 1 -16 1 -24 0
-13 -1 -13 -3 0 -10 8 -6 19 -7 25 -4 7 4 7 2 0 -5 -5 -6 -21 -12 -35 -15 -25
-4 -25 -4 2 -6 15 0 30 -5 33 -11 7 -12 46 -14 44 -2 -1 4 -1 15 0 26 1 16 3
17 18 5 9 -8 18 -13 20 -11 1 1 6 2 11 2 4 0 0 -5 -8 -10 -13 -8 -13 -10 2
-10 9 0 23 -9 30 -19 10 -14 18 -17 28 -10 11 6 12 9 2 9 -7 0 -10 5 -7 11 4
6 -2 13 -13 16 -16 4 -18 8 -9 18 9 10 14 9 24 -4 10 -14 11 -12 7 9 -4 22 -3
23 5 5 5 -11 10 -30 10 -42 1 -13 6 -23 13 -23 6 0 9 3 6 6 -3 3 -3 17 2 32 5
20 2 35 -14 57 -12 18 -14 25 -5 18 9 -7 19 -10 23 -6 10 11 37 12 30 2 -3 -5
-1 -9 5 -9 5 0 12 6 14 13 6 14 11 -24 8 -70 -1 -27 1 -31 19 -26 11 3 20 10
20 15 0 5 -3 7 -7 5 -5 -3 -9 8 -10 24 -1 16 2 29 8 29 6 0 8 -4 4 -10 -3 -5
0 -18 7 -29 11 -18 13 -18 25 -3 12 15 12 15 6 -2 -7 -21 6 -17 39 12 9 7 23
11 30 7 7 -3 4 0 -6 9 -21 17 -19 18 38 31 22 5 27 3 23 -8 -4 -11 0 -13 14
-10 10 3 16 9 13 14 -3 5 5 9 17 9 18 0 19 2 9 15 -11 13 -10 14 3 10 8 -4 18
-16 22 -28 4 -13 8 -17 11 -10 3 7 21 15 41 19 21 4 30 10 23 14 -8 5 -7 9 4
13 10 4 16 1 16 -7 0 -8 7 -17 16 -20 14 -6 15 -4 4 10 -12 13 -11 17 0 24 8
5 18 6 22 4 4 -3 8 0 8 5 0 17 17 13 24 -5 8 -20 -9 -51 -33 -59 -10 -3 -21
-15 -24 -25 -3 -13 -1 -18 6 -13 6 4 8 -2 5 -15 -4 -13 -2 -20 4 -16 5 3 8 18
6 32 -2 18 2 27 12 28 8 1 20 2 26 3 7 0 11 11 11 24 -1 12 2 35 6 50 4 16 4
26 0 24 -4 -3 -8 5 -8 18 0 17 5 22 19 19 10 -2 21 -6 25 -10 3 -4 -2 -4 -11
-1 -10 4 -18 2 -18 -3 0 -6 4 -10 9 -10 5 0 7 -10 4 -22 -4 -22 -3 -22 11 2 8
14 20 26 28 26 7 1 21 2 31 3 9 0 17 6 17 12 0 6 -9 8 -22 4 -19 -6 -21 -5
-10 6 17 18 15 30 -5 22 -13 -5 -15 -2 -10 11 4 10 7 21 7 24 0 4 4 1 8 -5 4
-7 19 -14 32 -15 19 -2 25 2 24 14 -1 10 3 15 9 11 6 -4 8 2 4 16 -3 13 -3 21
0 18 3 -3 16 -2 29 3 15 6 24 6 24 0 0 -5 19 -3 41 5 48 17 60 19 39 5 -13 -9
-13 -10 0 -10 9 0 22 6 30 13 9 8 9 4 -2 -13 -10 -15 -24 -24 -36 -23 -11 1
-23 -4 -26 -12 -4 -10 1 -15 15 -15 11 0 17 -5 14 -10 -4 -6 -11 -7 -17 -4 -7
4 -8 2 -4 -4 4 -7 13 -12 21 -12 7 0 15 -9 17 -20 3 -18 4 -18 14 5 7 13 9 24
5 23 -31 -3 -37 20 -12 45 11 10 12 8 6 -12 -5 -17 -4 -22 6 -19 8 3 13 15 11
26 -2 12 4 32 12 44 9 12 16 17 16 10 0 -7 5 -10 10 -7 5 3 10 1 10 -5 0 -7
-7 -9 -16 -6 -10 4 -14 2 -11 -6 2 -7 10 -12 16 -10 8 1 10 -3 5 -10 -5 -10
-4 -10 6 -1 9 8 19 9 32 2 13 -7 24 -6 40 6 26 17 57 19 78 4 12 -9 11 -10 -7
-6 -14 3 -23 0 -23 -6 0 -7 -4 -6 -10 3 -8 13 -24 8 -26 -8 0 -4 -4 -15 -8
-24 -4 -9 -6 -24 -4 -32 3 -13 6 -13 28 0 14 9 17 13 8 10 -22 -7 -24 10 -3
18 9 3 18 0 21 -8 4 -10 18 -12 49 -8 40 4 44 3 42 -17 -1 -24 -17 -29 -17 -6
0 12 -3 12 -18 -2 -23 -22 -18 -35 11 -32 38 2 48 -1 41 -13 -4 -7 -3 -8 4 -4
17 10 15 36 -2 30 -10 -4 -14 0 -12 12 2 10 8 20 14 22 16 5 15 74 0 91 -10
11 -10 13 0 7 9 -6 12 244 12 1236 0 1526 11 1959 61 2393 23 201 56 386 99
550 16 61 32 121 36 135 15 57 44 150 75 235 17 50 38 108 46 130 29 81 174
363 245 475 254 402 597 744 990 987 329 202 692 341 1112 424 172 34 477 72
666 84 52 3 124 8 160 10 320 23 3988 35 4400 14 428 -21 607 -34 775 -55 66
-8 138 -18 160 -20 315 -39 709 -143 930 -244 33 -16 90 -41 126 -58 141 -63
425 -237 554 -340 196 -155 410 -366 536 -527 95 -122 189 -258 189 -274 0 -6
5 -11 10 -11 6 0 10 -4 10 -9 0 -5 20 -44 45 -85 166 -281 345 -788 391 -1106
7 -52 18 -126 24 -164 6 -38 19 -146 29 -240 45 -398 46 -476 46 -2811 0
-2244 -2 -2505 -16 -2740 -9 -142 -28 -392 -34 -440 -2 -16 -7 -52 -10 -80
-23 -186 -49 -317 -112 -575 -20 -79 -87 -279 -114 -337 -10 -24 -19 -45 -19
-48 0 -9 -61 -140 -108 -230 -92 -180 -111 -214 -122 -225 -3 -3 -31 -44 -62
-91 -31 -47 -75 -108 -98 -135 -22 -27 -40 -52 -40 -56 0 -4 -16 -24 -35 -45
-19 -21 -33 -44 -30 -51 3 -7 0 -10 -5 -7 -6 4 -22 -9 -38 -27 -15 -18 -49
-56 -75 -85 -27 -29 -46 -57 -42 -62 3 -6 0 -8 -8 -5 -8 3 -21 -3 -28 -14 -8
-10 -19 -21 -25 -23 -7 -2 -8 -12 -3 -24 6 -17 8 -17 8 -2 1 9 6 17 11 17 6 0
13 0 17 0 4 0 8 -6 9 -14 1 -9 -4 -12 -12 -9 -9 3 -14 -1 -14 -13 0 -9 -3 -14
-7 -11 -3 4 -13 1 -21 -6 -13 -10 -14 -8 -8 11 8 24 -8 31 -18 7 -3 -8 -12
-15 -20 -15 -8 0 -23 -11 -34 -25 -11 -14 -24 -25 -29 -25 -5 0 -20 -11 -33
-26 -21 -21 -22 -27 -10 -34 13 -8 12 -10 -2 -10 -10 0 -18 5 -18 11 0 5 -5 7
-11 3 -6 -3 -8 -17 -5 -30 7 -27 3 -29 -25 -14 -15 9 -21 7 -25 -5 -3 -8 -12
-15 -18 -15 -7 0 -21 -7 -32 -15 -15 -12 -16 -16 -5 -24 9 -6 10 -11 2 -15 -6
-4 -11 -2 -11 3 0 18 -13 12 -50 -21 -19 -17 -28 -27 -20 -23 8 5 22 14 31 22
14 12 18 11 30 -4 12 -16 12 -17 -2 -6 -13 11 -20 8 -43 -17 -15 -17 -24 -36
-20 -41 4 -8 -1 -9 -17 -4 l-24 8 25 -22 25 -21 -27 11 c-29 13 -59 -1 -57
-25 0 -7 2 -6 6 2 2 6 10 12 15 12 6 0 8 -3 5 -7 -4 -3 -2 -12 4 -19 7 -9 7
-19 -1 -33 -9 -17 -8 -21 5 -21 8 0 15 -4 15 -10 0 -5 -7 -10 -16 -10 -8 0
-13 -4 -9 -10 8 -13 33 -1 38 18 4 15 5 14 6 -1 1 -20 24 -47 39 -47 6 0 8 -9
5 -19 -3 -14 0 -19 14 -18 10 1 22 8 26 15 4 6 13 12 18 12 6 0 8 -4 5 -9 -3
-5 4 -11 15 -14 15 -4 20 -11 15 -23 -5 -14 -4 -15 9 -4 8 7 15 19 15 26 0 8
5 14 11 14 5 0 7 -4 4 -10 -3 -5 2 -10 12 -10 14 0 15 -2 4 -9 -9 -6 -10 -11
-2 -15 6 -4 11 -15 10 -24 0 -14 -2 -14 -8 2 -7 20 -8 20 -13 0 -4 -15 3 -25
23 -36 26 -16 28 -15 34 1 6 20 55 26 55 7 0 -6 3 -21 6 -33 5 -18 1 -25 -21
-33 -31 -12 -51 -4 -36 14 7 8 5 12 -9 13 -13 1 -17 -3 -13 -13 3 -8 2 -14 -3
-13 -21 4 -26 -2 -14 -16 8 -10 17 -12 24 -6 8 6 17 6 26 0 11 -8 12 -12 3
-16 -7 -2 -13 -10 -13 -16 1 -7 8 -3 18 9 17 20 42 22 42 3 0 -6 -6 -7 -12 -3
-10 5 -10 3 0 -7 11 -12 14 -12 22 1 5 8 10 10 10 4 0 -6 -3 -14 -7 -18 -5 -4
-9 -23 -9 -42 -1 -29 2 -34 20 -33 11 0 15 3 9 6 -19 7 -16 33 5 34 10 0 12 3
5 6 -7 2 -13 9 -13 14 0 6 9 5 21 -1 20 -11 20 -11 4 13 -12 19 -13 27 -4 32
13 8 31 -14 22 -28 -3 -5 4 -4 16 2 20 11 21 10 16 -24 -4 -33 -3 -35 16 -24
18 9 20 9 11 -7 -5 -9 -7 -25 -5 -34 3 -10 -2 -20 -11 -23 -14 -5 -15 -3 -6
13 6 12 7 20 1 20 -5 0 -12 -6 -15 -12 -2 -7 -4 -2 -3 12 1 17 -4 25 -18 28
-16 2 -17 1 -5 -7 13 -10 13 -11 0 -11 -12 0 -13 -2 -1 -9 9 -6 12 -21 9 -45
-3 -25 0 -36 9 -36 7 0 13 5 13 11 0 6 7 8 17 5 9 -4 21 -1 26 6 6 9 7 6 4
-10 -4 -18 -3 -21 8 -12 10 8 14 5 19 -15 4 -14 14 -25 24 -26 11 0 12 -2 4
-6 -7 -3 -19 1 -28 7 -12 11 -13 10 -7 -6 10 -27 49 -64 59 -56 5 4 3 0 -3 -8
-10 -11 -16 -11 -25 -2 -7 7 -16 12 -22 12 -5 0 -1 -8 10 -19 13 -12 23 -15
31 -9 7 5 18 6 25 2 7 -4 10 -4 6 1 -4 4 -4 13 0 19 5 6 5 22 1 36 -4 14 -7
18 -8 9 -1 -19 -27 -33 -35 -20 -3 5 3 16 14 26 15 14 23 15 33 6 8 -6 18 -7
22 -3 5 4 5 2 2 -4 -4 -7 0 -17 8 -24 27 -22 18 18 -11 47 -18 18 -22 29 -15
36 8 8 11 6 11 -6 0 -9 4 -17 9 -17 5 0 13 -10 16 -21 4 -13 10 -17 14 -11 10
16 26 1 28 -28 3 -25 3 -25 -7 -2 -10 24 -26 31 -16 7 3 -8 2 -15 -3 -15 -5 0
-11 -9 -14 -20 -3 -11 -2 -20 3 -20 4 0 14 -14 23 -32 13 -27 13 -33 1 -45 -8
-8 -14 -20 -14 -26 0 -8 3 -7 9 2 5 7 11 9 13 5 3 -5 3 -3 2 3 -2 7 4 16 12
21 9 5 15 12 15 15 -1 4 -1 16 -1 28 0 19 1 19 17 4 15 -16 17 -15 29 6 16 31
1 59 -31 59 -18 0 -23 4 -18 16 5 13 8 13 15 2 8 -10 11 -11 15 0 4 10 8 10
19 1 8 -6 11 -15 8 -20 -3 -5 -1 -9 5 -9 10 0 8 -22 -5 -63 -6 -19 -5 -20 10
-8 14 12 16 12 10 -3 -4 -11 -13 -14 -30 -10 -15 4 -24 2 -24 -6 0 -6 5 -8 10
-5 6 3 10 -1 10 -9 0 -9 7 -16 15 -16 8 0 15 -6 16 -12 0 -7 5 -3 11 10 14 27
32 29 23 2 -4 -13 0 -23 14 -32 12 -7 21 -16 21 -21 0 -4 -4 -6 -9 -2 -6 3 -9
-4 -8 -15 1 -19 3 -19 13 -6 13 18 29 22 18 4 -4 -7 -3 -8 5 -4 8 5 6 14 -8
32 -12 16 -17 32 -13 47 5 18 7 19 10 4 2 -9 7 -15 12 -12 5 3 7 -3 5 -14 -2
-11 3 -22 12 -25 10 -4 14 -15 11 -31 -3 -13 0 -26 6 -29 7 -3 6 -8 -3 -14 -8
-6 -12 -19 -8 -32 4 -16 2 -20 -8 -16 -8 3 -17 0 -21 -6 -5 -7 -2 -8 6 -3 10
6 12 4 7 -8 -3 -10 -2 -17 3 -17 6 0 10 5 10 10 0 6 8 10 17 10 13 0 14 3 5
12 -14 14 -16 42 -3 34 5 -3 8 7 7 24 -2 27 -1 28 15 14 15 -13 19 -13 30 -1
12 13 16 12 30 -4 14 -16 18 -17 22 -4 4 8 -1 19 -11 24 -9 6 -12 11 -6 11 16
0 36 -25 27 -34 -4 -4 -2 -10 4 -14 14 -9 6 -52 -10 -52 -6 0 -2 -7 9 -15 10
-8 14 -15 7 -15 -9 0 -8 -9 3 -35 12 -30 12 -34 -1 -29 -8 4 -15 10 -15 15 0
5 -5 9 -11 9 -7 0 -17 7 -24 17 -7 9 -19 14 -28 10 -21 -8 -12 -35 11 -33 8 0
22 -10 29 -24 7 -14 13 -19 13 -12 0 6 5 12 10 12 6 0 10 -8 10 -17 0 -23 29
-53 46 -46 8 3 14 9 14 15 0 5 -5 6 -12 2 -7 -5 -8 -3 -3 5 5 9 13 7 31 -10
35 -33 31 -78 -4 -49 -7 5 -3 0 8 -13 18 -19 22 -20 31 -7 8 12 9 11 7 -5 -2
-11 3 -20 10 -21 6 -1 17 -2 22 -3 6 0 10 -6 10 -12 0 -5 -4 -7 -10 -4 -5 3
-10 2 -10 -4 0 -5 -3 -16 -6 -25 -3 -9 -1 -16 6 -16 6 0 8 5 5 10 -3 6 -1 10
4 10 6 0 11 -6 11 -12 0 -9 4 -8 10 2 8 13 10 12 11 -5 1 -11 1 -25 0 -31 -1
-6 7 -18 16 -25 16 -13 17 -12 4 3 -7 10 -9 18 -3 18 16 0 35 -29 29 -44 -5
-12 -1 -13 18 -6 14 5 25 6 25 1 0 -4 9 -18 20 -31 11 -13 20 -18 20 -11 0 7
5 9 10 6 6 -3 10 -2 10 3 0 5 9 12 20 15 11 3 18 1 15 -4 -4 -5 8 -6 27 -2 18
3 35 10 36 15 2 4 9 8 16 8 6 0 18 9 26 20 8 11 24 20 35 20 46 0 360 282 360
323 0 16 5 21 21 20 15 -2 47 22 102 75 84 81 182 194 182 211 0 6 6 14 13 18
19 12 86 104 104 143 4 8 15 24 25 34 10 11 28 40 40 65 12 25 32 57 44 70 12
13 28 35 35 50 7 14 18 33 25 41 41 53 175 345 214 465 12 39 33 97 46 130 31
75 77 253 69 265 -4 6 -2 10 3 10 11 0 48 150 62 249 5 36 14 86 19 111 17 78
49 466 61 735 9 190 12 1251 11 3915 -1 3147 -3 3691 -16 3915 -24 404 -57
660 -131 999 -35 164 -127 458 -172 550 -14 28 -40 87 -59 131 -19 44 -38 84
-44 90 -5 5 -9 14 -9 21 0 7 -17 43 -38 81 -21 37 -58 104 -81 148 -66 122
-176 273 -334 459 -57 67 -207 227 -232 247 -11 9 -36 32 -56 50 -19 19 -54
50 -78 69 -24 19 -57 47 -74 62 -18 15 -36 28 -41 28 -4 0 -23 12 -42 28 -63
52 -139 109 -154 115 -8 4 -44 26 -80 49 -93 59 -240 137 -366 192 -60 26
-122 54 -139 61 -63 28 -260 94 -430 143 -130 38 -369 80 -545 96 -96 9 -193
19 -215 21 -214 26 -385 29 -2020 29 -940 1 -2635 -2 -3765 -5z"/>
<path d="M8559 15257 c-2 -3 -168 -7 -369 -11 -452 -8 -608 -18 -909 -57 -237
-31 -507 -98 -636 -158 -22 -10 -68 -30 -102 -45 -34 -14 -101 -48 -149 -76
-48 -27 -88 -50 -90 -50 -3 0 -126 -81 -193 -127 -47 -32 -255 -232 -326 -313
-27 -31 -104 -135 -130 -175 -10 -16 -22 -34 -27 -40 -5 -5 -17 -21 -28 -34
-11 -13 -55 -96 -99 -185 -125 -252 -199 -510 -256 -891 -47 -313 -59 -769
-51 -2010 6 -947 12 -1293 22 -1304 2 -2 5 74 5 170 1 96 4 162 6 146 2 -15 8
-25 13 -22 5 3 11 1 15 -5 3 -5 0 -10 -8 -10 -10 0 -14 -9 -13 -25 0 -14 6
-23 12 -21 6 2 9 -8 6 -26 -3 -20 -1 -29 6 -24 6 3 13 -2 15 -11 3 -10 5 4 6
31 1 46 2 48 16 30 15 -19 15 -19 9 1 -5 16 -4 17 5 5 8 -11 7 -18 -6 -27 -15
-12 -11 -18 10 -14 10 2 5 -32 -7 -40 -5 -4 1 -12 13 -18 19 -11 21 -9 23 16
0 15 1 34 1 41 -1 6 6 12 14 12 13 0 13 3 2 18 -13 16 -13 16 7 0 35 -30 96
-16 65 15 -8 8 -11 6 -11 -8 0 -17 -2 -18 -10 -5 -14 21 -12 30 5 30 8 0 15 5
15 11 0 5 -5 7 -11 3 -8 -4 -8 0 0 15 7 11 8 21 4 21 -4 0 -2 5 4 11 19 19 4
46 -23 41 -13 -2 -24 0 -24 6 0 6 8 11 18 11 56 2 57 3 41 32 -10 19 -9 19 10
9 12 -6 20 -14 18 -18 -2 -7 6 -12 24 -12 5 0 7 5 4 10 -3 6 -3 16 2 23 4 6 8
15 9 20 1 4 2 10 3 15 1 4 8 -2 16 -12 8 -11 15 -15 15 -8 0 7 -9 17 -20 24
-11 7 -20 16 -20 20 0 5 9 3 20 -4 14 -9 22 -10 31 -1 8 8 6 13 -10 18 -12 3
-21 12 -21 20 0 10 9 11 38 4 27 -6 41 -4 50 5 10 10 11 16 3 20 -6 4 -11 0
-11 -8 0 -20 -14 -20 -30 -1 -13 16 -12 17 23 18 12 1 25 8 29 17 4 9 7 1 7
-20 1 -26 4 -31 11 -20 8 13 10 13 10 1 0 -11 3 -10 13 3 12 16 14 16 26 2 17
-21 6 -36 -24 -30 -14 2 -25 1 -25 -4 0 -15 44 -11 62 5 10 9 18 13 18 8 0 -4
6 -2 13 4 8 6 17 8 20 4 4 -3 7 -1 7 5 0 6 6 9 14 6 8 -3 12 -12 10 -19 -4 -9
1 -12 13 -11 10 2 17 11 17 20 -2 18 11 22 21 6 10 -16 28 -11 21 6 -4 12 0
15 17 12 16 -2 22 -10 22 -28 0 -22 -4 -25 -32 -22 -27 3 -32 0 -27 -12 4 -11
13 -14 30 -10 15 4 24 2 24 -5 0 -19 68 -13 79 7 9 15 10 15 11 1 0 -24 29
-32 47 -14 8 8 20 12 26 8 13 -8 37 -13 37 -8 0 2 -4 15 -9 29 -8 19 -6 27 7
37 14 11 15 11 5 0 -19 -22 3 -69 32 -67 13 0 21 4 18 9 -2 4 0 7 6 7 5 0 13
-4 16 -10 3 -6 14 -9 23 -9 15 1 15 2 0 6 -10 2 -18 8 -18 11 0 4 -13 13 -28
20 -16 7 -29 19 -29 27 0 10 4 12 12 5 7 -5 16 -6 20 -2 5 4 5 1 1 -6 -4 -7 0
-15 11 -19 10 -4 21 -11 25 -17 4 -6 11 -7 15 -2 4 4 -1 14 -11 22 -17 12 -18
16 -6 27 9 8 11 8 6 0 -3 -6 0 -16 9 -20 8 -5 16 -20 17 -33 3 -29 15 -40 43
-39 18 0 18 1 -2 9 -13 5 -23 12 -23 16 0 3 7 4 15 0 8 -3 15 -1 15 4 0 6 -9
10 -20 10 -18 0 -19 3 -10 20 9 16 8 20 -5 20 -8 0 -15 5 -15 10 0 7 6 7 19 0
26 -13 31 -13 31 4 0 9 7 12 20 9 26 -7 26 -23 -1 -23 -14 0 -19 -5 -17 -17 2
-13 13 -18 36 -18 27 0 30 -2 17 -11 -12 -9 -13 -13 -3 -16 7 -3 20 5 30 16
11 13 17 16 18 8 0 -7 5 -10 10 -7 7 4 2 14 -11 26 l-22 19 26 0 c14 0 29 -5
33 -12 4 -7 3 -8 -4 -4 -7 4 -12 3 -12 -3 0 -5 6 -12 13 -14 10 -4 10 -6 0 -6
-7 -1 -13 -6 -13 -12 0 -6 9 -8 21 -4 14 5 19 4 15 -4 -5 -7 -1 -9 8 -5 19 7
21 20 5 30 -6 3 -9 15 -6 25 3 13 0 19 -10 19 -12 0 -13 3 -4 14 9 11 8 17 -2
28 -29 28 -21 68 13 68 7 0 10 6 7 13 -4 10 2 13 19 9 33 -6 30 14 -3 26 -25
9 -25 11 -6 11 12 1 29 -9 38 -21 8 -13 19 -23 23 -23 4 0 6 -6 6 -12 -1 -7 2
-13 8 -13 5 0 6 -5 2 -12 -4 -7 -3 -8 5 -4 6 4 9 12 6 17 -4 5 -1 10 4 10 6 1
15 2 20 3 5 0 13 5 18 10 4 5 3 6 -4 2 -7 -4 -11 1 -10 13 1 15 5 17 18 11 10
-6 20 -5 27 2 7 7 12 8 12 4 0 -5 -8 -15 -17 -22 -23 -16 -17 -21 30 -27 29
-4 37 -2 33 8 -3 10 4 13 30 10 18 -2 31 1 28 6 -3 5 0 9 6 9 6 0 8 4 5 10 -3
5 0 7 8 4 9 -3 13 -13 10 -25 -6 -22 7 -25 26 -6 10 10 15 8 27 -7 11 -16 17
-17 26 -8 9 9 9 12 0 12 -10 0 -10 4 0 19 17 27 28 17 29 -27 1 -70 18 -82 18
-14 1 35 5 82 10 105 5 23 19 92 31 152 12 61 28 136 36 168 8 31 15 73 16 92
1 19 5 35 10 35 4 0 8 9 8 21 0 11 -4 18 -8 15 -5 -3 -9 1 -9 9 0 9 7 14 16
13 12 -2 17 6 18 32 1 19 0 29 -3 23 -9 -20 -23 -15 -17 6 3 13 11 17 24 14
14 -4 19 0 19 13 0 11 7 32 15 47 8 16 16 39 18 52 1 12 8 29 15 37 6 8 18 34
27 57 20 58 219 456 235 471 3 3 27 39 52 80 45 72 109 163 145 206 10 11 29
35 43 53 14 17 34 42 45 55 11 13 45 52 75 87 80 92 312 324 333 332 9 3 17
11 17 17 0 5 6 10 14 10 8 0 16 4 18 8 7 18 307 236 384 280 17 9 88 50 157
90 69 39 130 72 135 72 5 0 22 6 38 14 178 86 452 177 662 221 219 45 336 57
611 62 348 7 511 -10 811 -83 141 -35 368 -105 402 -124 9 -5 52 -23 96 -40
92 -35 338 -159 399 -201 23 -16 45 -29 48 -29 4 0 21 -10 38 -22 17 -13 39
-27 49 -33 165 -98 512 -405 671 -595 39 -47 78 -92 87 -101 8 -9 23 -27 32
-40 9 -13 42 -60 74 -104 31 -44 88 -129 125 -190 38 -60 72 -114 76 -120 24
-30 166 -334 189 -405 8 -25 19 -54 24 -65 21 -45 44 -118 86 -284 83 -325
109 -577 101 -946 -7 -275 -36 -499 -92 -700 -47 -168 -58 -205 -72 -255 -9
-30 -20 -59 -25 -64 -4 -6 -8 -20 -8 -32 0 -13 -5 -26 -10 -29 -6 -3 -7 -18
-4 -33 4 -20 3 -23 -5 -12 -8 12 -12 9 -20 -13 -6 -16 -22 -53 -36 -83 -14
-30 -25 -59 -25 -63 0 -5 -5 -11 -11 -13 -6 -2 -11 -16 -11 -31 0 -15 -4 -24
-9 -21 -4 2 -18 -15 -29 -38 -11 -24 -29 -56 -39 -73 -52 -87 -70 -126 -65
-142 4 -13 3 -14 -4 -5 -7 10 -13 7 -25 -12 -10 -14 -17 -32 -17 -40 0 -8 -4
-16 -8 -18 -19 -8 -52 -68 -46 -85 5 -15 4 -15 -5 -3 -9 13 -12 12 -25 -5 -8
-11 -13 -28 -10 -39 4 -13 2 -16 -6 -11 -13 8 -30 -11 -30 -35 0 -13 1 -13 10
0 5 8 10 10 10 4 0 -6 -7 -17 -15 -24 -12 -10 -15 -10 -15 0 0 10 -3 10 -15 0
-8 -7 -15 -21 -15 -30 0 -26 -11 -50 -22 -50 -6 0 -7 8 -4 18 8 20 -54 -47
-91 -100 -14 -21 -30 -38 -34 -38 -5 0 -9 -7 -9 -16 0 -9 5 -12 11 -8 7 4 10
1 7 -7 -3 -9 -15 -13 -31 -11 -19 2 -27 -1 -27 -11 0 -8 -6 -17 -14 -20 -8 -3
-20 -24 -27 -46 -10 -33 -15 -39 -29 -31 -18 9 -30 4 -30 -12 0 -5 5 -6 10 -3
21 13 8 -13 -20 -40 -16 -16 -30 -35 -30 -42 0 -7 -7 -13 -17 -13 -14 0 -14 2
2 20 14 16 15 20 4 20 -22 0 -50 -39 -51 -71 -1 -15 -5 -26 -10 -23 -5 3 -7
12 -4 20 3 8 -1 14 -9 14 -11 0 -12 -6 -5 -25 7 -19 6 -23 -5 -19 -9 4 -16 -3
-21 -20 -3 -14 -9 -26 -13 -26 -5 0 -27 -17 -78 -60 -7 -5 -17 -10 -23 -10 -5
0 -10 -7 -10 -15 0 -8 7 -15 15 -15 8 0 15 5 15 10 0 19 24 37 42 32 10 -2 18
1 18 7 0 7 4 10 9 7 5 -4 7 3 4 14 -4 15 0 20 15 20 42 0 48 -39 8 -53 -17 -7
-16 -9 7 -27 14 -11 28 -20 32 -20 5 0 14 -8 21 -17 12 -16 13 -16 14 9 0 18
-6 29 -20 33 -23 7 -27 25 -5 25 8 0 15 -6 15 -12 0 -10 2 -10 8 -1 8 12 52
14 52 2 0 -3 10 -11 23 -17 12 -6 16 -11 9 -11 -7 -1 -21 3 -31 8 -10 6 -23 6
-32 0 -11 -7 -11 -9 4 -9 10 0 15 -5 12 -10 -4 -6 -12 -7 -18 -4 -7 4 -8 3 -4
-1 12 -14 37 -15 34 -2 -2 13 43 11 57 -3 5 -5 15 -6 23 -3 10 4 13 0 11 -13
-2 -11 4 -20 15 -22 9 -2 17 2 17 8 0 7 -7 10 -17 6 -17 -6 -17 -5 0 8 9 7 17
18 17 24 0 7 10 6 28 -4 36 -19 42 -18 42 8 0 34 11 17 19 -31 1 -3 7 3 14 14
8 10 19 15 25 11 17 -10 15 -46 -3 -46 -8 0 -15 -4 -15 -8 0 -7 45 -8 69 -3 2
1 -2 7 -8 15 -9 11 -9 15 1 19 11 4 10 6 0 6 -7 1 -10 6 -6 13 4 6 3 8 -4 4
-6 -3 -16 0 -24 7 -7 8 -19 12 -26 9 -8 -2 -11 4 -9 20 3 15 11 23 24 23 12 1
28 6 36 13 11 9 17 10 22 2 4 -6 3 -10 -2 -9 -22 4 -25 -2 -7 -15 17 -13 21
-12 38 2 19 17 19 16 0 -13 -10 -16 -23 -33 -28 -36 -5 -4 0 -12 11 -18 11 -5
24 -7 28 -3 5 4 5 2 1 -5 -4 -7 -13 -10 -21 -6 -18 6 -20 -11 -2 -25 12 -10
40 -2 38 12 -3 24 1 36 9 31 8 -5 7 -11 -1 -21 -9 -11 -8 -14 5 -14 9 0 16 -4
16 -10 0 -5 -7 -6 -17 -3 -12 5 -14 3 -8 -7 6 -10 4 -12 -7 -7 -26 9 -29 -5
-6 -24 21 -19 21 -19 1 -19 -11 0 -26 -7 -33 -15 -6 -8 -17 -13 -23 -12 -7 1
-11 -6 -9 -15 2 -10 -1 -18 -7 -18 -5 0 -8 11 -7 25 3 27 -14 48 -29 37 -16
-11 -16 -32 -1 -32 9 0 13 -7 11 -20 -2 -12 2 -20 9 -20 8 0 16 -9 19 -21 3
-12 10 -18 16 -14 6 3 9 10 6 15 -3 5 -1 11 4 14 5 3 11 -1 15 -9 3 -8 2 -15
-2 -15 -4 0 -7 -11 -7 -25 0 -14 3 -25 8 -25 4 0 7 -7 7 -15 0 -9 -6 -12 -15
-9 -8 4 -15 1 -15 -5 0 -6 7 -11 15 -11 8 0 15 -4 15 -10 0 -17 41 -33 53 -21
10 10 -1 16 -25 12 -8 -1 -12 14 -9 37 1 8 -3 20 -10 28 -6 7 -9 21 -5 30 3 8
2 24 -4 33 -11 21 -4 32 16 24 10 -3 12 -18 9 -49 -3 -26 0 -46 7 -50 7 -5 8
-3 3 6 -5 8 -3 11 5 8 23 -7 23 -28 -1 -36 l-23 -9 22 -5 c12 -4 20 -2 16 3
-9 15 13 10 26 -6 12 -15 30 -12 30 5 0 5 -6 7 -14 4 -16 -6 -31 29 -21 46 4
6 1 9 -6 8 -6 -2 -15 9 -20 25 -4 15 -3 27 2 27 19 0 8 18 -15 24 -13 3 -26
14 -28 24 -4 15 0 17 25 14 23 -4 28 -2 22 9 -5 8 1 5 13 -5 12 -11 22 -25 22
-33 0 -20 17 -15 23 7 5 20 27 28 27 10 0 -5 7 -10 15 -10 17 0 20 -16 5 -25
-5 -3 -10 -1 -10 4 0 6 -4 11 -10 11 -5 0 -10 -7 -10 -15 0 -8 4 -15 9 -15 5
0 11 -9 14 -21 5 -20 5 -20 -14 -3 -12 11 -19 13 -19 5 0 -7 -4 -9 -10 -6 -5
3 -10 1 -10 -5 0 -7 6 -10 12 -8 7 3 19 -1 26 -9 8 -7 18 -11 23 -7 5 3 13 -6
19 -20 13 -35 21 -33 10 2 -6 22 -4 29 6 29 8 0 15 -4 15 -9 1 -4 2 -12 3 -16
2 -15 32 -40 52 -44 11 -2 20 -13 22 -28 3 -24 3 -24 -11 -5 -9 11 -19 17 -23
12 -4 -4 -2 -7 5 -7 7 0 9 -4 6 -10 -3 -5 -2 -10 4 -10 5 0 13 -9 16 -21 5
-15 10 -17 20 -9 7 6 20 8 29 4 11 -4 16 -1 16 11 0 24 34 15 38 -10 3 -17 1
-18 -8 -5 -8 11 -9 8 -4 -15 4 -16 11 -33 17 -36 5 -4 11 -21 13 -40 l4 -33
-25 24 c-14 13 -25 19 -25 14 0 -5 -5 -2 -10 6 -5 8 -10 11 -10 5 1 -18 27
-46 41 -43 8 2 14 -4 14 -12 0 -8 -6 -14 -14 -12 -8 2 -11 -3 -8 -12 3 -8 1
-17 -6 -20 -9 -3 -9 -5 0 -5 6 -1 19 9 27 21 l16 22 0 -22 c0 -14 6 -22 16
-22 13 0 14 3 4 15 -6 8 -8 20 -4 26 4 7 3 9 -4 5 -12 -7 -11 39 1 51 4 3 7
17 7 30 0 20 2 22 14 11 8 -7 10 -17 6 -23 -5 -5 -1 -28 7 -50 8 -22 15 -48
14 -58 0 -15 5 -18 23 -13 30 8 40 -3 18 -21 -16 -14 -16 -14 1 -9 9 3 17 1
17 -4 0 -6 9 -10 20 -10 20 0 45 -34 35 -50 -3 -5 4 -8 15 -7 11 1 20 5 20 9
0 33 19 52 36 37 17 -14 18 -29 3 -29 -5 0 -8 4 -4 9 3 5 2 12 -3 15 -5 3 -9
0 -9 -7 0 -7 -2 -19 -4 -27 -2 -8 3 -14 11 -15 9 0 14 -9 13 -23 -2 -12 2 -22
8 -22 5 0 8 4 4 10 -10 16 31 49 54 43 24 -6 27 -16 8 -31 -9 -8 -17 -8 -27 0
-12 8 -12 9 3 4 9 -3 17 -1 17 4 0 16 -18 20 -30 6 -9 -12 -6 -17 16 -29 25
-13 28 -12 54 15 27 28 52 40 31 15 -6 -8 -7 -17 -3 -21 4 -4 3 -7 -3 -6 -21
5 -36 0 -30 -10 3 -5 0 -11 -7 -12 -7 0 -20 -2 -28 -3 -8 -1 -21 4 -29 9 -11
8 -13 8 -8 -1 4 -7 0 -16 -10 -22 -19 -11 -19 -12 12 -16 11 -2 25 -4 30 -5
20 -5 36 0 30 10 -3 6 1 7 9 4 9 -3 16 -1 16 5 0 6 7 8 15 5 21 -8 19 -21 -5
-27 -11 -3 -20 -10 -20 -17 0 -6 4 -9 9 -6 5 4 4 -5 -2 -19 -7 -13 -13 -20
-15 -15 -2 6 -10 10 -18 10 -8 0 -14 5 -14 11 0 5 5 7 12 3 7 -4 8 -3 4 4 -9
15 -44 -2 -53 -24 -3 -8 -11 -13 -18 -10 -8 3 -10 -4 -7 -20 5 -30 20 -40 35
-25 8 8 6 11 -8 12 -11 0 -14 3 -7 6 6 2 12 11 12 19 0 8 5 14 11 14 6 0 9 -9
6 -20 -5 -21 33 -60 59 -60 8 0 14 -5 14 -11 0 -5 -4 -8 -9 -5 -4 3 -7 -6 -5
-20 3 -35 14 -43 14 -12 0 25 21 43 34 31 12 -12 6 -35 -8 -30 -10 4 -15 -5
-18 -30 -3 -28 -2 -32 7 -19 7 9 14 13 17 10 9 -8 -3 -44 -12 -39 -5 3 -6 -4
-3 -15 5 -19 6 -20 19 -3 12 16 13 16 8 -7 -5 -22 -4 -23 6 -7 6 10 16 14 23
10 7 -4 17 -8 22 -9 6 -1 17 -3 25 -5 8 -2 19 6 25 19 10 24 20 28 30 12 3 -5
11 -8 18 -6 7 1 9 1 5 -1 -17 -9 -8 -43 11 -43 16 0 18 6 14 48 -3 46 -3 47
13 23 9 -13 18 -33 19 -45 1 -11 3 -30 5 -41 1 -11 4 -15 7 -7 2 6 9 9 15 6 5
-4 3 -13 -7 -24 -16 -18 -16 -18 4 -13 12 3 21 12 21 19 0 8 9 14 19 14 11 0
21 6 24 13 4 9 7 9 18 -1 12 -11 12 -13 -1 -10 -10 2 -14 -3 -12 -16 3 -16 1
-18 -11 -8 -17 14 -28 6 -20 -16 5 -11 2 -13 -8 -8 -8 4 -5 1 5 -8 10 -8 22
-13 27 -11 4 3 11 0 15 -6 4 -8 3 -9 -4 -5 -7 4 -12 1 -12 -8 0 -25 18 -27 34
-4 9 12 16 18 16 13 0 -6 5 -3 10 5 9 13 10 13 10 0 0 -22 -30 -61 -41 -55 -5
4 -9 -3 -9 -14 0 -12 7 -21 15 -21 8 0 19 -9 25 -19 9 -19 50 -19 50 -1 0 4 7
10 15 14 11 4 15 -1 14 -17 0 -12 -3 -17 -6 -10 -3 9 -9 10 -23 1 -18 -11 -18
-12 2 -22 31 -16 33 -35 6 -45 -13 -6 -16 -10 -8 -11 13 0 13 -1 0 -10 -21
-14 -30 -12 -24 4 3 7 -1 15 -8 18 -18 6 -48 -27 -38 -42 5 -8 10 -9 14 -2 11
18 34 2 29 -19 -4 -14 -1 -18 10 -13 8 3 18 1 22 -5 3 -7 0 -8 -9 -5 -9 3 -17
1 -17 -5 -3 -26 -4 -30 -10 -36 -9 -9 -59 5 -59 17 0 5 4 7 9 4 5 -3 14 1 21
10 11 12 11 17 1 27 -10 9 -12 9 -9 -3 1 -9 -1 -16 -7 -17 -5 -1 -9 8 -7 20 2
20 0 20 -22 -6 -21 -24 -23 -32 -13 -48 6 -10 18 -19 25 -19 10 0 10 -5 2 -20
-8 -15 -8 -20 1 -18 6 2 14 -3 17 -11 3 -9 0 -12 -10 -8 -13 4 -14 1 -4 -19
12 -27 26 -32 26 -9 0 22 51 40 62 23 4 -7 8 -19 8 -26 0 -7 5 -10 11 -6 7 4
10 2 8 -5 -7 -20 -24 -14 -31 11 -4 17 -6 18 -7 5 -1 -14 -6 -17 -21 -12 -14
5 -20 2 -20 -9 0 -9 4 -16 10 -16 5 0 6 -7 3 -17 -4 -11 -3 -14 5 -9 7 4 20 9
31 11 14 3 18 -1 14 -16 -4 -12 2 -26 13 -34 12 -10 14 -13 4 -10 -16 6 -20
-6 -22 -75 -1 -21 -9 -41 -21 -50 -22 -18 -16 -60 9 -60 8 0 14 -4 14 -10 0
-22 -21 -8 -44 28 -22 35 -56 53 -56 30 0 -5 -4 -7 -8 -4 -5 3 -9 -1 -9 -9 0
-8 4 -15 9 -15 5 0 6 -5 2 -11 -3 -6 -1 -15 6 -19 7 -4 10 -15 7 -25 -4 -9
-11 -14 -16 -10 -5 3 -13 0 -17 -6 -4 -8 -3 -9 4 -5 7 4 12 1 12 -8 0 -9 5
-16 10 -16 6 0 10 5 10 11 0 5 5 7 10 4 16 -10 12 -23 -9 -30 -11 -3 -22 -12
-25 -21 -4 -11 0 -13 19 -10 14 3 27 0 30 -5 7 -11 35 -12 35 -1 0 5 -12 13
-27 20 -24 10 -20 11 34 6 41 -3 64 -1 68 7 4 6 2 15 -5 19 -8 5 -7 9 5 13 9
4 13 3 10 -3 -8 -14 6 -13 38 3 15 6 31 24 36 40 6 15 15 27 20 27 15 0 14
-17 -1 -23 -7 -3 -8 -6 -2 -6 5 -1 19 7 30 17 10 10 28 21 38 25 10 4 16 10
12 14 -3 3 -17 0 -31 -7 -14 -7 -27 -11 -31 -8 -3 3 8 12 25 19 16 7 32 22 35
32 4 16 10 18 36 12 32 -7 32 -7 28 31 -2 25 1 39 11 42 10 3 11 0 5 -9 -6
-12 -5 -12 8 -1 9 8 14 20 11 28 -3 9 1 14 11 14 10 0 16 -7 14 -16 -2 -10 3
-19 11 -22 9 -3 11 1 7 16 -4 12 -1 26 8 35 8 8 12 17 9 20 -3 4 13 9 36 13
25 4 41 12 41 20 0 8 7 14 15 14 8 0 15 7 15 15 0 8 7 15 15 15 8 0 15 4 15
10 0 5 19 29 43 52 23 24 63 72 88 108 55 77 149 244 149 264 0 8 4 16 8 18
10 4 80 166 117 268 77 217 139 566 159 905 18 297 21 688 21 2710 0 2251 -2
2394 -36 2785 -18 210 -60 461 -105 620 -23 85 -65 223 -74 245 -52 131 -70
172 -109 245 -135 255 -350 512 -546 655 -22 16 -42 31 -45 34 -5 6 -109 76
-142 96 -162 98 -239 138 -378 193 -252 100 -386 131 -760 176 -302 37 -455
47 -855 55 -368 8 -3428 14 -3436 8z m4994 -1046 c164 -58 336 -216 399 -366
68 -163 73 -314 16 -494 -31 -96 -144 -257 -212 -301 -17 -11 -48 -31 -68 -45
-21 -14 -64 -35 -95 -46 -32 -11 -69 -26 -82 -32 -15 -8 -80 -12 -180 -12
-138 1 -163 3 -221 24 -36 13 -89 40 -119 60 -30 20 -66 44 -80 53 -61 41
-159 169 -195 257 -57 134 -70 273 -40 419 25 124 81 221 186 324 74 72 139
114 233 149 92 35 119 38 265 35 105 -3 148 -8 193 -25z"/>
<path d="M9960 12439 c-249 -20 -410 -55 -660 -146 -127 -46 -291 -124 -367
-175 -23 -15 -44 -28 -47 -28 -18 0 -253 -178 -316 -240 -26 -25 -71 -67 -101
-95 -30 -27 -62 -60 -71 -73 -8 -12 -33 -42 -54 -65 -51 -55 -124 -153 -124
-167 0 -5 -4 -10 -10 -10 -5 0 -10 -9 -10 -20 0 -11 -4 -20 -9 -20 -15 0 -95
-134 -82 -138 6 -2 11 -11 11 -19 0 -12 -3 -13 -14 -3 -13 10 -21 0 -49 -60
-22 -43 -33 -79 -29 -92 3 -15 2 -19 -7 -14 -6 4 -8 13 -5 19 5 8 3 9 -4 2
-30 -27 -147 -347 -137 -373 2 -7 1 -11 -4 -8 -8 6 -21 -33 -41 -124 -12 -58
-13 -90 0 -90 5 0 7 6 4 14 -3 8 0 23 6 33 10 16 11 16 6 1 -3 -10 -2 -18 3
-18 4 0 8 -6 8 -12 1 -33 13 -72 24 -79 8 -4 4 -9 -10 -14 -22 -7 -26 -16 -14
-29 4 -4 6 -23 4 -43 -2 -28 0 -35 12 -30 8 3 20 0 26 -6 11 -11 16 2 12 26
-1 5 3 6 9 2 6 -3 7 -11 4 -17 -5 -7 -2 -9 8 -5 9 3 21 0 27 -6 8 -8 11 -8 11
1 0 7 15 12 37 12 29 0 34 -3 25 -12 -13 -13 -17 -32 -4 -25 4 3 8 -7 8 -21 1
-15 -1 -21 -3 -15 -4 10 -8 9 -19 -1 -19 -20 -18 -29 4 -22 13 4 18 0 19 -14
2 -22 -12 -27 -21 -7 -5 10 -7 10 -12 0 -3 -7 -14 -13 -25 -13 -20 0 -24 -8
-11 -26 10 -16 44 -14 38 3 -3 7 -1 13 4 13 6 0 10 -7 10 -15 0 -13 19 -20 43
-16 5 1 6 -3 2 -8 -3 -6 -13 -7 -22 -4 -11 4 -14 3 -9 -5 4 -7 3 -12 -2 -12
-5 0 -12 -9 -15 -21 -5 -17 -3 -18 9 -8 12 10 18 8 30 -7 11 -14 14 -15 11 -3
-3 9 1 16 9 16 8 0 14 -7 15 -16 0 -14 1 -14 6 -1 3 8 13 23 21 33 13 15 17
15 31 3 27 -24 81 -24 81 -1 0 8 9 15 19 15 11 0 23 5 27 11 4 8 9 7 15 -2 6
-10 9 -11 9 -1 0 6 5 12 12 12 6 0 8 -3 5 -7 -9 -8 24 -32 46 -33 9 0 17 -6
17 -14 0 -9 9 -14 21 -13 14 1 19 7 16 18 -6 21 21 15 42 -10 10 -12 15 -13
18 -3 3 6 11 12 19 12 8 0 11 7 8 18 -4 10 -3 13 3 6 4 -6 18 -14 31 -18 12
-4 22 -12 22 -17 0 -5 7 -9 15 -9 13 0 14 -4 5 -21 -7 -11 -9 -23 -6 -27 3 -3
6 1 6 9 0 10 2 11 8 2 5 -8 13 -9 22 -3 12 8 12 10 -4 10 -18 0 -14 14 5 16
22 3 23 6 5 13 -19 7 -19 8 2 13 14 4 20 2 15 -5 -4 -6 2 -8 18 -4 24 6 24 6
3 -11 -18 -15 -19 -20 -8 -52 7 -19 13 -33 14 -30 7 27 6 40 -3 40 -6 0 -2 6
8 14 11 8 24 12 28 9 5 -3 4 -9 -2 -13 -13 -8 -11 -31 4 -42 5 -4 13 -2 18 5
6 8 7 7 4 -3 -2 -9 -14 -14 -26 -12 -15 1 -21 -2 -18 -10 2 -7 11 -12 20 -10
11 2 15 -2 11 -12 -3 -8 0 -17 7 -22 8 -4 10 -3 5 4 -4 7 -3 12 2 12 6 0 9 8
8 18 -1 20 35 24 42 4 2 -7 -2 -11 -10 -10 -8 2 -13 -5 -12 -18 0 -12 -9 -25
-23 -31 -18 -9 -23 -8 -23 2 0 7 -12 16 -26 19 -16 4 -24 12 -21 21 3 7 -1 19
-8 25 -18 15 -65 4 -65 -15 0 -7 -5 -17 -10 -20 -6 -4 -10 -3 -9 2 1 4 0 10
-1 13 -11 29 -6 38 18 34 21 -4 23 -3 13 9 -6 8 -21 13 -31 10 -16 -4 -20 -1
-18 18 2 13 7 27 12 30 12 9 -2 29 -19 29 -21 0 -30 -22 -14 -34 8 -6 15 -20
15 -31 1 -11 3 -26 5 -34 2 -8 -4 -17 -13 -19 -13 -2 -16 1 -12 12 9 23 -3 20
-16 -5 -9 -15 -8 -24 1 -35 6 -8 10 -17 7 -20 -8 -7 -49 -17 -80 -18 -33 -1
-32 0 -12 -21 12 -12 19 -13 24 -5 4 6 13 12 21 13 8 2 19 6 26 10 14 9 43 -1
43 -15 0 -6 -6 -5 -15 2 -12 10 -15 10 -15 -3 0 -21 23 -27 35 -10 6 8 34 18
63 21 47 6 51 8 32 20 -12 7 -20 8 -20 2 0 -5 -4 -10 -8 -10 -5 0 -9 6 -9 14
0 7 9 12 21 11 12 -1 27 -3 35 -4 9 -1 12 -10 9 -26 -4 -17 -1 -25 8 -25 8 0
11 -7 7 -17 -5 -15 -3 -14 10 2 13 16 17 17 18 5 1 -8 1 -19 0 -23 -1 -5 3 -5
9 -2 6 4 9 13 6 21 -3 8 0 11 8 8 7 -3 16 2 19 10 5 13 12 14 32 6 27 -10 49
-5 40 10 -7 12 23 33 40 27 8 -4 17 -1 21 5 5 7 2 8 -6 3 -8 -5 -11 -4 -7 3 9
14 49 3 40 -12 -3 -6 0 -5 8 2 12 11 12 14 -1 22 -9 6 -10 10 -3 10 7 0 16 -8
22 -17 9 -17 10 -17 16 0 9 21 22 23 22 2 0 -8 -4 -12 -9 -9 -4 3 -11 -2 -14
-10 -4 -11 -15 -14 -36 -11 -18 3 -27 2 -23 -4 6 -11 -29 -34 -39 -24 -3 3 -6
-1 -6 -10 0 -13 5 -15 25 -7 14 5 25 7 25 4 0 -4 7 -1 16 7 13 10 17 10 25 -2
8 -12 13 -6 11 13 -1 3 5 12 13 18 19 16 19 3 -1 -35 -8 -16 -12 -26 -8 -22 4
4 12 3 18 -2 17 -14 66 -1 66 18 0 10 5 7 13 -9 12 -22 11 -26 -8 -32 -11 -3
-17 -7 -12 -8 19 -6 33 -5 39 4 7 10 38 -16 38 -33 0 -14 2 -14 34 3 28 14 79
10 56 -4 -7 -4 -21 -5 -31 -3 -21 6 -52 -14 -44 -27 3 -5 0 -12 -6 -16 -7 -4
-9 -3 -6 2 7 12 -9 41 -18 32 -4 -3 -2 -16 5 -27 9 -17 14 -19 31 -11 11 6 17
15 14 21 -4 5 3 9 13 9 13 0 22 -9 26 -26 8 -29 3 -39 -12 -30 -6 3 -8 15 -5
26 9 33 -7 22 -23 -16 -11 -27 -18 -34 -27 -25 -17 17 -36 13 -32 -8 3 -16 0
-17 -21 -7 -13 6 -24 15 -24 19 0 5 -5 5 -11 2 -6 -5 -4 -12 8 -20 10 -7 15
-17 11 -21 -4 -4 -16 -1 -25 7 -16 12 -17 12 -6 -2 7 -9 10 -19 6 -22 -3 -4
-1 -7 5 -7 6 0 14 5 17 10 10 16 22 11 28 -11 3 -12 10 -18 16 -14 15 9 14 -8
-1 -23 -9 -9 -9 -12 0 -12 7 0 12 4 12 9 0 5 8 8 18 7 9 0 16 5 14 12 -1 6 5
12 14 12 9 0 12 -5 8 -12 -5 -8 -2 -9 12 -3 10 4 33 7 49 7 28 -1 28 0 8 8
-29 12 -29 15 2 16 14 1 25 -2 25 -8 0 -5 10 -8 23 -6 18 2 22 9 22 34 -1 23
3 30 13 27 9 -4 10 -9 3 -16 -7 -7 -7 -16 0 -29 7 -13 7 -18 -2 -16 -7 2 -14
-4 -16 -13 -3 -13 4 -16 37 -14 22 1 43 -1 46 -6 3 -5 -3 -6 -13 -2 -15 5 -16
3 -6 -7 10 -11 9 -17 -4 -32 -9 -10 -12 -18 -7 -18 5 0 17 9 27 20 9 11 21 20
27 20 13 0 13 -27 0 -35 -6 -4 -7 1 -4 12 5 15 4 16 -5 3 -16 -23 -13 -40 6
-33 13 5 15 2 10 -11 -4 -9 -3 -15 2 -11 12 7 2 -56 -12 -73 -5 -7 -16 -11
-23 -8 -15 6 -44 -19 -44 -37 0 -9 2 -9 8 0 14 22 65 22 85 0 20 -24 22 -39 5
-36 -25 3 -38 -1 -38 -12 0 -6 7 -9 15 -5 8 3 15 1 15 -4 0 -5 7 -7 16 -3 14
5 14 3 3 -15 -11 -18 -11 -24 0 -34 11 -10 12 -10 7 0 -4 6 -2 12 4 12 6 0 8
4 5 10 -3 6 1 7 10 4 10 -4 12 -10 6 -18 -5 -6 -6 -17 -2 -25 6 -9 12 -3 21
18 7 17 17 31 22 31 6 0 5 -7 -2 -15 -7 -8 -8 -15 -2 -15 11 0 37 29 31 34 -2
2 -13 8 -24 14 -16 9 -17 11 -4 12 9 0 22 -7 29 -15 7 -9 19 -14 27 -11 10 4
11 1 4 -13 -8 -13 -6 -18 5 -18 7 0 14 6 14 13 0 7 8 10 21 7 11 -3 17 -9 12
-12 -4 -3 -13 -13 -20 -21 -10 -13 -9 -16 8 -17 10 -1 19 5 19 13 0 8 5 14 10
14 6 0 10 -7 10 -15 0 -8 5 -15 11 -15 5 0 7 6 3 13 -5 7 -2 7 10 -2 13 -11
16 -11 14 -2 -2 8 4 15 12 17 71 17 70 17 70 -7 0 -18 -3 -20 -12 -11 -19 19
-48 15 -48 -8 0 -11 -3 -19 -7 -19 -19 3 -33 -2 -33 -10 0 -6 12 -6 30 0 16 6
27 15 24 20 -3 5 2 9 10 9 9 0 16 -7 16 -15 0 -8 -6 -15 -14 -15 -8 0 -13 -8
-11 -17 2 -10 4 -21 4 -25 1 -5 6 -8 12 -8 5 0 7 5 3 11 -5 8 1 10 20 7 16 -3
33 0 42 9 13 13 18 10 15 -10 -1 -5 3 -6 9 -2 6 3 8 11 5 16 -9 14 5 11 21 -5
8 -9 10 -17 5 -21 -6 -3 -8 -15 -6 -26 2 -11 -2 -22 -10 -26 -9 -3 -14 -17
-14 -32 1 -20 2 -22 6 -6 3 11 11 27 19 36 8 9 11 19 7 23 -4 4 1 4 12 1 20
-7 20 -6 1 9 -25 20 -17 20 20 1 21 -10 30 -11 35 -3 4 6 15 13 23 14 9 1 14
-2 10 -7 -3 -5 0 -9 7 -9 9 0 9 -3 -1 -14 -8 -11 -18 -12 -36 -6 -17 7 -24 6
-24 -3 0 -9 -2 -9 -8 0 -4 7 -13 9 -21 4 -25 -16 -2 -28 44 -24 30 3 45 1 45
-7 0 -6 5 -8 11 -4 8 4 7 9 -2 16 -11 8 -10 9 2 5 9 -3 23 0 30 6 9 9 9 6 -1
-6 -13 -17 -12 -19 10 -15 21 2 25 -1 24 -19 -1 -13 3 -23 7 -23 5 0 9 5 9 11
0 6 7 9 15 5 8 -3 15 -1 15 4 0 6 7 10 16 10 8 0 13 -4 10 -9 -4 -5 2 -7 11
-5 10 2 25 0 33 -6 12 -8 13 -11 1 -19 -8 -5 -9 -11 -3 -15 5 -3 13 1 16 10 3
8 10 12 16 9 5 -3 10 -1 10 4 0 15 27 14 36 -1 4 -6 2 -14 -4 -16 -17 -5 -15
-19 3 -19 21 0 19 37 -2 53 -16 12 -16 13 -1 8 9 -3 18 0 21 8 2 7 3 5 2 -4
-2 -10 7 -19 24 -23 24 -7 24 -8 6 -15 -19 -7 -19 -8 -2 -15 18 -7 46 17 47
40 0 6 -5 3 -10 -5 -7 -11 -12 -12 -21 -3 -13 13 -5 43 11 43 6 0 8 -4 5 -10
-3 -5 3 -10 15 -10 13 0 19 -4 14 -12 -4 -6 -3 -8 4 -5 13 9 42 -2 42 -15 0
-5 -4 -6 -10 -3 -5 3 -10 2 -10 -3 0 -16 45 -30 45 -14 1 11 24 48 25 38 0 -5
8 -2 18 5 15 12 16 12 5 -2 -9 -11 -9 -19 -2 -26 8 -8 8 -13 0 -17 -14 -9 -15
-36 -1 -36 5 0 7 6 4 14 -4 9 5 15 25 18 17 3 31 1 31 -4 0 -4 -5 -8 -10 -8
-6 0 -10 -8 -8 -17 2 -14 -4 -18 -27 -18 -16 0 -37 5 -45 10 -13 9 -13 8 -1
-7 12 -16 11 -18 -5 -19 -14 0 -15 -2 -4 -6 8 -3 19 -12 23 -20 7 -12 12 -12
25 -1 9 7 14 8 10 4 -5 -5 1 -15 12 -23 23 -16 27 -38 5 -29 -8 3 -15 0 -15
-7 0 -7 11 -14 26 -15 14 -1 23 1 21 6 -3 4 5 16 16 27 19 19 20 19 13 1 -4
-13 2 -26 20 -43 14 -13 29 -22 32 -18 3 3 -3 11 -13 19 -13 9 -15 15 -6 20 7
5 20 1 30 -8 22 -20 28 -20 28 -1 0 9 -5 14 -11 12 -6 -2 -16 3 -23 12 -11 14
-13 14 -28 -4 -16 -20 -16 -20 -6 2 6 12 8 23 3 26 -4 2 -1 2 6 1 7 -2 15 3
18 11 6 15 34 9 34 -7 0 -6 -7 -7 -16 -4 -14 5 -15 4 -4 -9 7 -8 16 -12 21 -9
5 3 9 -1 9 -8 1 -7 9 -3 20 10 l19 22 25 -25 c21 -21 29 -24 46 -15 11 6 20 7
21 3 6 -58 6 -74 -1 -78 -4 -3 -10 5 -14 18 -4 13 -9 18 -13 11 -5 -6 -26 -15
-49 -21 -32 -8 -41 -7 -41 3 0 7 4 11 8 8 4 -2 11 1 15 7 5 9 0 10 -17 5 -13
-3 -36 -9 -51 -12 -16 -4 -28 -11 -28 -16 0 -5 -4 -7 -9 -3 -9 5 -41 -20 -41
-33 0 -4 11 -12 25 -18 13 -7 24 -9 23 -5 -3 28 4 40 20 34 9 -4 20 -11 24
-17 5 -7 8 -4 8 7 0 10 -7 20 -16 24 -13 5 -13 7 -2 14 27 17 37 10 32 -26 -3
-29 -1 -34 13 -32 10 1 24 6 31 10 6 5 12 5 12 0 0 -4 4 -2 8 5 6 9 13 7 28
-10 15 -18 15 -20 2 -9 -13 10 -18 10 -18 2 0 -7 -4 -9 -10 -6 -5 3 -10 1 -10
-5 0 -7 6 -10 14 -7 7 3 23 -1 35 -9 17 -12 20 -12 15 -1 -3 8 5 18 19 24 19
9 24 18 21 40 l-4 28 14 -30 c9 -19 10 -32 4 -36 -11 -7 11 -49 25 -49 4 0 6
-4 3 -9 -3 -5 -15 -7 -26 -4 -13 4 -20 0 -20 -10 0 -8 -8 -18 -17 -21 -13 -5
-14 -9 -3 -19 10 -9 13 -9 17 1 3 6 9 10 14 6 5 -3 9 0 9 5 0 6 5 11 11 11 6
0 8 -9 4 -20 -4 -12 -2 -27 4 -34 9 -11 6 -12 -14 -8 -14 2 -23 8 -20 12 6 10
-24 17 -47 12 -10 -2 -18 -12 -18 -22 0 -12 5 -17 14 -14 8 3 16 -3 19 -16 5
-18 8 -20 26 -9 11 7 17 17 14 23 -3 5 -1 6 6 2 8 -5 9 -12 2 -19 -5 -7 -10
-16 -10 -22 -1 -5 -6 -10 -11 -10 -6 0 -15 -7 -20 -15 -7 -11 -11 -9 -19 13
-12 31 -26 37 -16 7 3 -10 2 -27 -4 -37 -7 -13 -4 -24 9 -40 10 -12 20 -19 24
-16 3 4 6 0 7 -8 1 -8 5 -3 9 11 8 24 8 24 9 2 1 -19 3 -21 15 -10 10 10 11
17 3 28 -9 12 -9 13 3 3 9 -9 19 -9 34 -2 13 7 10 2 -8 -13 -16 -14 -26 -30
-22 -36 3 -6 2 -13 -4 -17 -6 -4 -8 -11 -5 -16 7 -11 56 -9 73 4 7 6 15 7 19
3 3 -3 1 -6 -6 -6 -8 0 -10 -8 -6 -22 5 -18 4 -20 -4 -8 -7 10 -11 11 -11 3 0
-7 -6 -11 -12 -9 -7 3 -25 7 -40 10 -21 5 -28 12 -28 31 0 21 -5 25 -30 25
-23 0 -30 -4 -30 -20 0 -13 5 -18 15 -14 8 4 15 2 15 -3 0 -5 7 -18 15 -29 14
-17 15 -17 9 -1 -6 16 -4 17 12 9 39 -21 64 -29 123 -35 18 -3 38 -12 43 -21
6 -10 5 -16 -1 -16 -5 0 -12 6 -15 13 -4 8 -8 8 -11 1 -3 -6 -20 -9 -38 -8
-17 2 -23 1 -12 -2 26 -8 45 -24 45 -38 0 -6 -5 -4 -10 4 -8 11 -9 9 -8 -12 3
-31 13 -36 22 -11 5 12 9 14 18 5 15 -15 32 -16 23 -2 -7 11 6 13 29 4 9 -3
13 -10 10 -15 -3 -5 0 -9 5 -9 6 0 11 5 11 11 0 5 4 8 9 5 5 -3 9 -17 9 -31 0
-14 -4 -28 -9 -31 -5 -3 -9 4 -9 15 0 17 -6 19 -50 18 -27 -1 -50 -6 -50 -10
0 -5 -10 -5 -22 -1 -13 3 -19 3 -15 -2 4 -5 27 -9 50 -10 34 -2 67 -7 84 -13
1 -1 -1 -11 -6 -23 -6 -16 -4 -26 7 -34 12 -9 10 -15 -17 -43 -38 -39 -39 -47
-3 -54 54 -10 76 -17 86 -27 6 -6 0 -7 -20 -2 -16 4 -56 7 -89 6 -79 -3 -77
-3 -70 -14 4 -6 30 -8 60 -6 44 4 53 2 48 -10 -3 -9 -12 -13 -21 -9 -8 3 -19
0 -24 -7 -6 -10 -8 -10 -8 0 0 6 -10 11 -22 11 -17 -1 -19 -2 -5 -6 9 -2 17
-9 17 -15 0 -6 18 -7 51 -3 39 6 50 4 44 -5 -5 -9 -1 -9 16 1 l24 13 -25 6
c-14 3 -20 9 -14 12 12 8 34 6 52 -5 13 -9 32 -1 32 14 0 5 -5 8 -11 6 -6 -1
-14 4 -16 11 -3 7 1 11 9 10 7 -2 12 3 10 10 -1 8 2 11 7 7 6 -3 8 -12 4 -20
-7 -20 27 -20 53 0 17 13 18 14 1 15 -16 0 -15 3 5 31 16 22 28 29 43 25 11
-3 31 -9 44 -13 21 -5 23 -3 17 12 -5 14 0 24 16 37 19 14 20 18 6 18 -29 0
-9 30 21 31 26 0 26 0 4 11 -30 15 -29 28 2 28 14 0 25 5 25 11 0 5 -4 7 -10
4 -12 -7 -14 8 -2 19 4 4 7 13 7 19 0 7 8 12 17 12 9 0 20 4 24 8 4 4 1 7 -6
7 -13 0 -5 14 8 16 4 0 14 4 22 7 15 6 160 27 193 28 10 0 31 13 46 30 16 16
33 29 39 29 5 0 39 32 74 71 34 39 74 84 88 99 45 49 70 80 70 88 0 4 11 19
25 34 14 15 25 31 25 37 0 5 14 24 30 42 43 49 50 57 50 65 0 3 14 27 31 53
71 104 127 217 190 381 16 41 29 83 29 93 0 9 4 17 9 17 5 0 11 12 14 28 4 15
19 86 36 157 16 72 35 171 42 220 18 113 18 516 1 640 -16 117 -75 363 -101
420 -5 11 -21 56 -36 100 -16 44 -33 89 -39 100 -6 11 -26 56 -46 100 -41 91
-54 115 -129 228 -29 45 -57 81 -62 79 -5 -1 -9 4 -9 12 0 24 -100 144 -225
270 -131 132 -151 150 -240 216 -33 25 -62 47 -65 51 -3 3 -32 23 -65 44 -33
22 -62 42 -65 45 -3 3 -18 12 -35 20 -16 8 -48 26 -70 41 -57 38 -145 80 -255
124 -187 74 -263 94 -545 145 -121 22 -348 30 -495 19z"/>
</g>
</svg>
