<?xml version="1.0" standalone="no"?>
<!DOCTYPE svg PUBLIC "-//W3C//DTD SVG 20010904//EN"
 "http://www.w3.org/TR/2001/REC-SVG-20010904/DTD/svg10.dtd">
<svg version="1.0" xmlns="http://www.w3.org/2000/svg"
 width="2048.000000pt" height="2048.000000pt" viewBox="0 0 2048.000000 2048.000000"
 preserveAspectRatio="xMidYMid meet">
<metadata>
Created by potrace 1.16, written by Peter Selinger 2001-2019
</metadata>
<g transform="translate(0.000000,2048.000000) scale(0.100000,-0.100000)"
fill="#000000" stroke="none">
<path d="M5887 15829 c-351 -37 -687 -211 -924 -479 -181 -204 -299 -447 -349
-715 -18 -97 -19 -240 -19 -4500 0 -4203 1 -4404 18 -4490 65 -326 201 -575
429 -790 200 -188 424 -304 712 -368 l101 -22 4525 0 c4320 0 4529 1 4619 18
574 110 1006 504 1151 1049 16 62 34 154 40 203 14 126 14 8659 0 8793 -37
342 -180 643 -419 883 -210 210 -430 327 -749 401 l-97 23 -4480 1 c-2464 1
-4515 -2 -4558 -7z m1728 -1690 c389 -47 719 -313 844 -678 57 -166 71 -372
36 -536 -78 -375 -353 -668 -730 -777 -71 -20 -101 -23 -260 -22 -167 0 -186
2 -270 28 -300 92 -513 276 -646 561 -125 267 -123 580 7 854 100 212 280 391
489 486 173 79 346 106 530 84z m5300 -2503 c436 -65 795 -240 1060 -518 311
-325 468 -722 515 -1303 6 -71 10 -818 10 -1842 l0 -1723 -810 0 -809 0 -4
1523 c-3 1485 -4 1525 -24 1627 -107 547 -445 849 -928 827 -231 -11 -400 -81
-542 -225 -148 -150 -249 -373 -300 -663 -15 -84 -17 -249 -20 -1594 l-4
-1500 -782 1 c-430 0 -794 2 -810 2 l-27 2 2 2626 3 2625 758 0 759 0 -2 -371
c0 -228 3 -370 9 -370 5 0 47 57 93 128 121 181 213 282 368 401 262 201 553
315 920 361 102 12 443 4 565 -14z m-4588 -2758 l3 -2628 -871 0 c-790 0 -871
1 -865 16 3 9 6 1190 6 2625 l0 2609 308 2 c169 2 557 3 862 3 l555 0 2 -2627z"/>
</g>
</svg>
